<svg width="208" height="303" viewBox="0 0 208 303" fill="none" xmlns="http://www.w3.org/2000/svg">
  <g clip-path="url(#clip0_872_295)">
    <path d="M207.69 294.112C207.69 298.832 203.848 302.69 199.138 302.69H8.85392C4.15407 302.69 0.3125 298.832 0.3125 294.112V8.89073C0.3125 4.17728 4.15407 0.3125 8.85392 0.3125H199.138C203.848 0.3125 207.69 4.17728 207.69 8.89073V294.112Z" fill="white" stroke="black" stroke-width="0.622432" />
    <path d="M24.3724 32.8744H18.8872V31.046H20.3655V26.9613H16.1641V25.2307L20.3649 10H22.8941V25.0162H24.6058V26.9613H22.8941V31.046H24.3724V32.8744ZM20.3655 25.0162V14.1078L17.3658 25.0162H20.3655Z" fill="#E61408" />
    <path d="M183.632 270.125H189.117V271.953H187.639V276.038H191.84V277.769L187.639 292.999H185.11V277.983H183.398V276.038H185.11V271.953H183.632V270.125ZM187.639 277.983V288.893L190.638 277.983H187.639Z" fill="#E61408" />
    <path d="M49.633 17.0469C44.2706 17.0584 39.9101 21.6419 39.9455 27.2656C40.0207 39.1909 54.9989 47.8153 59.4143 57.2344C63.8297 47.8153 78.8391 39.1909 78.9143 27.2656C78.9497 21.6419 74.5892 17.0584 69.2268 17.0469C63.8644 17.0359 59.4301 21.5997 59.4143 27.2344C59.3985 21.5997 54.9954 17.0359 49.633 17.0469Z" fill="#E61408" />
    <path d="M17.4364 37.1016C15.824 37.105 14.5128 38.4832 14.5235 40.1742C14.5461 43.7599 19.0498 46.3531 20.3775 49.1853C21.7051 46.3531 26.2182 43.7599 26.2408 40.1742C26.2515 38.4832 24.9403 37.105 23.3279 37.1016C21.7155 37.0983 20.3822 38.4705 20.3775 40.1648C20.3727 38.4705 19.0488 37.0983 17.4364 37.1016Z" fill="#E61408" />
    <path d="M184.671 265.516C183.058 265.512 181.747 264.134 181.758 262.443C181.78 258.857 186.284 256.264 187.612 253.432C188.939 256.264 193.453 258.857 193.475 262.443C193.486 264.134 192.175 265.512 190.562 265.516C188.95 265.519 187.617 264.147 187.612 262.452C187.607 264.147 186.283 265.519 184.671 265.516Z" fill="#E61408" />
    <path d="M137.602 17.0469C132.239 17.0584 127.879 21.6419 127.914 27.2656C127.989 39.1909 142.968 47.8153 147.383 57.2344C151.798 47.8153 166.808 39.1909 166.883 27.2656C166.918 21.6419 162.558 17.0584 157.196 17.0469C151.833 17.0359 147.399 21.5997 147.383 27.2344C147.367 21.5997 142.964 17.0359 137.602 17.0469Z" fill="#E61408" />
    <path d="M49.633 285.922C44.2706 285.91 39.9101 281.327 39.9455 275.703C40.0207 263.778 54.9989 255.153 59.4143 245.734C63.8297 255.153 78.8391 263.778 78.9143 275.703C78.9497 281.327 74.5892 285.91 69.2268 285.922C63.8644 285.933 59.4301 281.369 59.4143 275.734C59.3985 281.369 54.9954 285.933 49.633 285.922Z" fill="#E61408" />
    <path d="M137.602 285.922C132.239 285.91 127.879 281.327 127.914 275.703C127.989 263.778 142.968 255.153 147.383 245.734C151.798 255.153 166.808 263.778 166.883 275.703C166.918 281.327 162.558 285.91 157.196 285.922C151.833 285.933 147.399 281.369 147.383 275.734C147.367 281.369 142.964 285.933 137.602 285.922Z" fill="#E61408" />
  </g>
  <defs>
    <clipPath id="clip0_872_295">
      <rect width="208" height="303" fill="white" />
    </clipPath>
  </defs>
</svg>
