<svg width="208" height="303" viewBox="0 0 208 303" fill="none" xmlns="http://www.w3.org/2000/svg">
  <g clip-path="url(#clip0_872_268)">
    <path d="M207.69 294.112C207.69 298.832 203.848 302.69 199.138 302.69H8.85392C4.15407 302.69 0.3125 298.832 0.3125 294.112V8.89073C0.3125 4.17728 4.15407 0.3125 8.85392 0.3125H199.138C203.848 0.3125 207.69 4.17728 207.69 8.89073V294.112Z" fill="white" stroke="black" stroke-width="0.622432" />
    <path d="M18.9193 19.328C19.2189 18.8064 19.5466 18.4156 19.9015 18.1548C20.2565 17.8947 20.6492 17.764 21.0795 17.764C22.0995 17.764 22.9025 18.4369 23.4878 19.7814C24.0726 21.1266 24.3655 22.9738 24.3655 25.3225C24.3655 27.8019 24.0343 29.7166 23.3723 31.0666C22.7098 32.4167 21.7719 33.0914 20.5586 33.0914C19.194 33.0914 18.1582 32.1662 17.4513 30.316C16.7438 28.4657 16.3906 25.7456 16.3906 22.155C16.3906 18.0734 16.7809 14.9922 17.5613 12.9109C18.3418 10.8297 19.5022 9.78906 21.0437 9.78906C21.4436 9.78906 21.874 9.86383 22.3347 10.0127C22.7949 10.1623 23.2903 10.386 23.8209 10.6838V14.6518H23.004C22.8946 13.6294 22.683 12.8556 22.37 12.3292C22.0569 11.8029 21.657 11.5397 21.1701 11.5397C20.3848 11.5397 19.8158 12.1511 19.4633 13.3741C19.1107 14.5971 18.929 16.5817 18.9193 19.328ZM20.3975 31.3408C20.8607 31.3408 21.1902 30.9013 21.3865 30.0218C21.5828 29.1428 21.6813 27.6177 21.6813 25.4471C21.6813 23.2771 21.5828 21.752 21.3865 20.8725C21.1902 19.9935 20.8607 19.5535 20.3975 19.5535C19.9344 19.5535 19.6043 19.9935 19.408 20.8725C19.2116 21.752 19.1138 23.2771 19.1138 25.4471C19.1138 27.6177 19.2116 29.1428 19.408 30.0218C19.6043 30.9013 19.9344 31.3408 20.3975 31.3408Z" fill="#E61408" />
    <path d="M189.079 283.67C188.779 284.192 188.452 284.582 188.097 284.843C187.742 285.104 187.348 285.234 186.918 285.234C185.899 285.234 185.095 284.561 184.511 283.217C183.925 281.871 183.633 280.024 183.633 277.676C183.633 275.197 183.963 273.281 184.625 271.932C185.289 270.582 186.226 269.906 187.439 269.906C188.804 269.906 189.84 270.833 190.546 272.683C191.254 274.533 191.608 277.253 191.608 280.843C191.608 284.925 191.216 288.005 190.436 290.087C189.655 292.168 188.496 293.209 186.954 293.209C186.554 293.209 186.124 293.134 185.663 292.985C185.203 292.837 184.707 292.613 184.177 292.314V288.346H184.994C185.104 289.369 185.315 290.143 185.628 290.669C185.94 291.195 186.341 291.458 186.828 291.458C187.613 291.458 188.182 290.848 188.534 289.625C188.887 288.402 189.069 286.417 189.079 283.67ZM187.601 271.657C187.136 271.657 186.808 272.097 186.611 272.977C186.414 273.855 186.317 275.38 186.317 277.55C186.317 279.722 186.414 281.246 186.611 282.126C186.808 283.004 187.136 283.444 187.601 283.444C188.063 283.444 188.393 283.004 188.59 282.126C188.786 281.246 188.885 279.722 188.885 277.55C188.885 275.38 188.786 273.855 188.59 272.977C188.393 272.097 188.063 271.657 187.601 271.657Z" fill="#E61408" />
    <path d="M49.633 17.0469C44.2706 17.0584 39.9101 21.6419 39.9455 27.2656C40.0207 39.1909 54.9989 47.8153 59.4143 57.2344C63.8296 47.8153 78.8391 39.1909 78.9143 27.2656C78.9497 21.6419 74.5892 17.0584 69.2268 17.0469C63.8644 17.0359 59.4301 21.5997 59.4143 27.2344C59.3985 21.5997 54.9954 17.0359 49.633 17.0469Z" fill="#E61408" />
    <path d="M17.4364 37.1016C15.824 37.105 14.5128 38.4832 14.5235 40.1742C14.5461 43.7599 19.0498 46.3531 20.3775 49.1853C21.7051 46.3531 26.2182 43.7599 26.2408 40.1742C26.2515 38.4832 24.9403 37.105 23.3279 37.1016C21.7155 37.0983 20.3822 38.4705 20.3775 40.1648C20.3727 38.4705 19.0488 37.0983 17.4364 37.1016Z" fill="#E61408" />
    <path d="M184.671 265.516C183.058 265.512 181.747 264.134 181.758 262.443C181.78 258.857 186.284 256.264 187.612 253.432C188.939 256.264 193.453 258.857 193.475 262.443C193.486 264.134 192.175 265.512 190.562 265.516C188.95 265.519 187.617 264.147 187.612 262.452C187.607 264.147 186.283 265.519 184.671 265.516Z" fill="#E61408" />
    <path d="M137.602 131.406C132.239 131.418 127.879 136.001 127.914 141.625C127.989 153.55 142.968 162.175 147.383 171.594C151.798 162.175 166.808 153.55 166.883 141.625C166.918 136.001 162.558 131.418 157.196 131.406C151.833 131.395 147.399 135.959 147.383 141.594C147.367 135.959 142.964 131.395 137.602 131.406Z" fill="#E61408" />
    <path d="M49.633 131.406C44.2706 131.418 39.9101 136.001 39.9455 141.625C40.0207 153.55 54.9989 162.175 59.4143 171.594C63.8296 162.175 78.8391 153.55 78.9143 141.625C78.9497 136.001 74.5892 131.418 69.2268 131.406C63.8644 131.395 59.4301 135.959 59.4143 141.594C59.3985 135.959 54.9954 131.395 49.633 131.406Z" fill="#E61408" />
    <path d="M137.602 17.0469C132.239 17.0584 127.879 21.6419 127.914 27.2656C127.989 39.1909 142.968 47.8153 147.383 57.2344C151.798 47.8153 166.808 39.1909 166.883 27.2656C166.918 21.6419 162.558 17.0584 157.196 17.0469C151.833 17.0359 147.399 21.5997 147.383 27.2344C147.367 21.5997 142.964 17.0359 137.602 17.0469Z" fill="#E61408" />
    <path d="M49.633 285.922C44.2706 285.91 39.9101 281.327 39.9455 275.703C40.0207 263.778 54.9989 255.153 59.4143 245.734C63.8296 255.153 78.8391 263.778 78.9143 275.703C78.9497 281.327 74.5892 285.91 69.2268 285.922C63.8644 285.933 59.4301 281.369 59.4143 275.734C59.3985 281.369 54.9954 285.933 49.633 285.922Z" fill="#E61408" />
    <path d="M137.602 285.922C132.239 285.91 127.879 281.327 127.914 275.703C127.989 263.778 142.968 255.153 147.383 245.734C151.798 255.153 166.808 263.778 166.883 275.703C166.918 281.327 162.558 285.91 157.196 285.922C151.833 285.933 147.399 281.369 147.383 275.734C147.367 281.369 142.964 285.933 137.602 285.922Z" fill="#E61408" />
  </g>
  <defs>
    <clipPath id="clip0_872_268">
      <rect width="208" height="303" fill="white" />
    </clipPath>
  </defs>
</svg>
