<svg width="208" height="303" viewBox="0 0 208 303" fill="none" xmlns="http://www.w3.org/2000/svg">
  <g clip-path="url(#clip0_872_307)">
    <path d="M207.69 294.112C207.69 298.832 203.848 302.69 199.138 302.69H8.85392C4.15407 302.69 0.3125 298.832 0.3125 294.112V8.89073C0.3125 4.17728 4.15407 0.3125 8.85392 0.3125H199.138C203.848 0.3125 207.69 4.17728 207.69 8.89073V294.112Z" fill="white" stroke="black" stroke-width="0.622432" />
    <path d="M16.7412 10.8394C17.3345 10.4893 17.9095 10.2267 18.4675 10.0517C19.0255 9.87659 19.5665 9.78906 20.0892 9.78906C21.3061 9.78906 22.2386 10.2741 22.8865 11.243C23.5357 12.2125 23.8603 13.6015 23.8603 15.4098C23.8603 16.7659 23.6743 17.8661 23.3023 18.7098C22.9315 19.5535 22.3844 20.1212 21.6611 20.4124C22.5291 20.723 23.1771 21.3892 23.6062 22.4103C24.0341 23.4321 24.2493 24.8289 24.2493 26.6014C24.2493 28.6948 23.8773 30.3002 23.1345 31.4168C22.3917 32.5334 21.3171 33.0914 19.9117 33.0914C19.389 33.0914 18.8444 32.9905 18.2766 32.7899C17.7089 32.5893 17.1193 32.2878 16.5078 31.8854V26.9449H17.3248C17.3746 28.3751 17.5764 29.4656 17.929 30.2157C18.2815 30.9657 18.7702 31.3408 19.3951 31.3408C20.0698 31.3408 20.5937 30.9171 20.967 30.0698C21.339 29.2224 21.5262 28.0213 21.5262 26.4665C21.5262 24.8423 21.3341 23.5883 20.9512 22.7057C20.5682 21.8232 20.0236 21.3819 19.3173 21.3819H18.8808V19.5924H19.2273C19.8899 19.5924 20.3859 19.2502 20.7177 18.5651C21.0484 17.8807 21.215 16.8583 21.215 15.4979C21.215 14.219 21.0581 13.2392 20.7445 12.5596C20.4308 11.88 19.9798 11.5397 19.3939 11.5397C18.8577 11.5397 18.4322 11.8618 18.1186 12.5055C17.805 13.1498 17.619 14.0853 17.5582 15.3131H16.7412V10.8394Z" fill="#E61408" />
    <path d="M191.258 292.158C190.665 292.508 190.089 292.771 189.532 292.946C188.973 293.121 188.433 293.209 187.91 293.209C186.692 293.209 185.761 292.725 185.112 291.755C184.462 290.786 184.139 289.396 184.139 287.588C184.139 286.233 184.324 285.132 184.696 284.288C185.068 283.444 185.615 282.878 186.337 282.586C185.469 282.275 184.822 281.608 184.392 280.587C183.964 279.566 183.75 278.169 183.75 276.397C183.75 274.303 184.122 272.697 184.864 271.581C185.608 270.465 186.682 269.906 188.088 269.906C188.61 269.906 189.155 270.008 189.721 270.208C190.29 270.41 190.879 270.711 191.492 271.112V276.053H190.675C190.624 274.623 190.422 273.533 190.069 272.783C189.717 272.032 189.228 271.657 188.603 271.657C187.93 271.657 187.404 272.081 187.032 272.928C186.66 273.776 186.473 274.977 186.473 276.532C186.473 278.156 186.665 279.411 187.047 280.293C187.431 281.176 187.976 281.616 188.681 281.616H189.118V283.405H188.771C188.109 283.405 187.613 283.748 187.28 284.434C186.95 285.117 186.784 286.141 186.784 287.5C186.784 288.779 186.94 289.758 187.254 290.439C187.567 291.118 188.02 291.458 188.605 291.458C189.14 291.458 189.566 291.137 189.879 290.493C190.193 289.848 190.38 288.912 190.441 287.684H191.258V292.158Z" fill="#E61408" />
    <path d="M94.2033 17.0781C88.8409 17.0897 84.4804 21.6731 84.5158 27.2969C84.591 39.2222 99.5692 47.8465 103.985 57.2656C108.4 47.8465 123.409 39.2222 123.485 27.2969C123.52 21.6731 119.159 17.0897 113.797 17.0781C108.435 17.0672 104 21.6309 103.985 27.2656C103.969 21.6309 99.5657 17.0672 94.2033 17.0781Z" fill="#E61408" />
    <path d="M17.4364 37.1016C15.824 37.105 14.5128 38.4832 14.5235 40.1742C14.5461 43.7599 19.0498 46.3531 20.3775 49.1853C21.7051 46.3531 26.2182 43.7599 26.2408 40.1742C26.2515 38.4832 24.9403 37.105 23.3279 37.1016C21.7155 37.0983 20.3822 38.4705 20.3775 40.1648C20.3727 38.4705 19.0488 37.0983 17.4364 37.1016Z" fill="#E61408" />
    <path d="M184.671 265.516C183.058 265.512 181.747 264.134 181.758 262.443C181.78 258.857 186.284 256.264 187.612 253.432C188.939 256.264 193.453 258.857 193.475 262.443C193.486 264.134 192.175 265.512 190.562 265.516C188.95 265.519 187.617 264.147 187.612 262.452C187.607 264.147 186.283 265.519 184.671 265.516Z" fill="#E61408" />
    <path d="M94.2033 131C88.8409 131.012 84.4804 135.595 84.5158 141.219C84.591 153.144 99.5692 161.768 103.985 171.188C108.4 161.768 123.409 153.144 123.485 141.219C123.52 135.595 119.159 131.012 113.797 131C108.435 130.989 104 135.553 103.985 141.188C103.969 135.553 99.5657 130.989 94.2033 131Z" fill="#E61408" />
    <path d="M94.2033 285.922C88.8409 285.91 84.4804 281.327 84.5158 275.703C84.591 263.778 99.5692 255.153 103.985 245.734C108.4 255.153 123.409 263.778 123.485 275.703C123.52 281.327 119.159 285.91 113.797 285.922C108.435 285.933 104 281.369 103.985 275.734C103.969 281.369 99.5657 285.933 94.2033 285.922Z" fill="#E61408" />
  </g>
  <defs>
    <clipPath id="clip0_872_307">
      <rect width="208" height="303" fill="white" />
    </clipPath>
  </defs>
</svg>
