<svg width="208" height="303" viewBox="0 0 208 303" fill="none" xmlns="http://www.w3.org/2000/svg">
  <g clip-path="url(#clip0_872_237)">
    <path d="M207.69 294.112C207.69 298.832 203.848 302.69 199.138 302.69H8.85392C4.15407 302.69 0.3125 298.832 0.3125 294.112V8.89073C0.3125 4.17728 4.15407 0.3125 8.85392 0.3125H199.138C203.848 0.3125 207.69 4.17728 207.69 8.89073V294.112Z" fill="white" stroke="black" stroke-width="0.622432" />
    <path d="M21.9831 20.6786C22.7879 20.9704 23.3987 21.628 23.8163 22.6523C24.2339 23.6765 24.443 25.0174 24.443 26.6744C24.443 28.7435 24.0941 30.3299 23.3963 31.4344C22.6985 32.5395 21.6925 33.0914 20.3778 33.0914C19.0624 33.0914 18.0564 32.5395 17.3586 31.4344C16.6608 30.3299 16.3125 28.7435 16.3125 26.6744C16.3125 25.0174 16.5192 23.6765 16.9331 22.6523C17.3471 21.628 17.9482 20.9704 18.736 20.6786C18.0449 20.3181 17.5264 19.7145 17.1811 18.8684C16.8352 18.0223 16.6626 16.9489 16.6626 15.6469C16.6626 13.7443 16.9793 12.2928 17.6139 11.291C18.2479 10.2899 19.1694 9.78906 20.3778 9.78906C21.5758 9.78906 22.4943 10.2899 23.1337 11.291C23.7732 12.2928 24.0929 13.7443 24.0929 15.6469C24.0929 16.9489 23.9178 18.0223 23.5689 18.8684C23.22 19.7145 22.6912 20.3181 21.9831 20.6786ZM21.7588 26.4209C21.7588 24.5797 21.6548 23.3118 21.4482 22.6176C21.2415 21.9235 20.8804 21.5764 20.3656 21.5764C19.8508 21.5764 19.4873 21.9235 19.2757 22.6176C19.0636 23.3118 18.9578 24.5797 18.9578 26.4209C18.9578 28.2821 19.0636 29.5677 19.2757 30.2771C19.4873 30.9864 19.8508 31.3408 20.3656 31.3408C20.8701 31.3408 21.2287 30.9864 21.4409 30.2771C21.6524 29.5677 21.7588 28.2821 21.7588 26.4209ZM21.4865 15.7052C21.4865 14.1212 21.4026 13.0313 21.2348 12.4344C21.0671 11.8381 20.7814 11.5397 20.3778 11.5397C19.9638 11.5397 19.6757 11.8381 19.5128 12.4344C19.3499 13.0313 19.2691 14.1212 19.2691 15.7052C19.2691 17.2795 19.3499 18.3597 19.5128 18.9462C19.6757 19.5328 19.9638 19.8258 20.3778 19.8258C20.7814 19.8258 21.0671 19.5328 21.2348 18.9462C21.4026 18.3597 21.4865 17.2795 21.4865 15.7052Z" fill="#E61408" />
    <path d="M186.015 282.32C185.21 282.028 184.599 281.37 184.182 280.347C183.764 279.322 183.555 277.981 183.555 276.324C183.555 274.255 183.904 272.668 184.601 271.564C185.299 270.458 186.305 269.906 187.62 269.906C188.935 269.906 189.942 270.458 190.64 271.564C191.338 272.668 191.685 274.255 191.685 276.324C191.685 277.981 191.479 279.322 191.065 280.347C190.651 281.37 190.049 282.028 189.261 282.32C189.953 282.681 190.472 283.284 190.817 284.13C191.162 284.976 191.335 286.049 191.335 287.351C191.335 289.254 191.019 290.705 190.384 291.707C189.75 292.708 188.828 293.209 187.62 293.209C186.421 293.209 185.503 292.708 184.864 291.707C184.225 290.705 183.905 289.254 183.905 287.351C183.905 286.049 184.08 284.976 184.429 284.13C184.778 283.284 185.306 282.681 186.015 282.32ZM186.239 276.578C186.239 278.418 186.343 279.686 186.55 280.381C186.757 281.075 187.117 281.421 187.632 281.421C188.148 281.421 188.51 281.075 188.721 280.381C188.934 279.686 189.04 278.418 189.04 276.578C189.04 274.716 188.934 273.431 188.721 272.722C188.51 272.012 188.148 271.657 187.632 271.657C187.128 271.657 186.769 272.012 186.557 272.722C186.346 273.431 186.239 274.716 186.239 276.578ZM186.511 287.293C186.511 288.877 186.595 289.968 186.763 290.563C186.931 291.16 187.216 291.458 187.62 291.458C188.033 291.458 188.323 291.16 188.486 290.563C188.648 289.968 188.729 288.877 188.729 287.293C188.729 285.719 188.648 284.638 188.486 284.052C188.323 283.466 188.033 283.172 187.62 283.172C187.216 283.172 186.931 283.466 186.763 284.052C186.595 284.638 186.511 285.719 186.511 287.293Z" fill="#E61408" />
    <path d="M49.633 17.0469C44.2706 17.0584 39.9101 21.6419 39.9455 27.2656C40.0207 39.1909 54.9989 47.8153 59.4143 57.2344C63.8297 47.8153 78.8391 39.1909 78.9143 27.2656C78.9497 21.6419 74.5892 17.0584 69.2268 17.0469C63.8644 17.0359 59.4301 21.5997 59.4143 27.2344C59.3985 21.5997 54.9954 17.0359 49.633 17.0469Z" fill="#E61408" />
    <path d="M17.4364 37.1016C15.824 37.105 14.5128 38.4832 14.5235 40.1742C14.5461 43.7599 19.0498 46.3531 20.3775 49.1853C21.7051 46.3531 26.2182 43.7599 26.2408 40.1742C26.2515 38.4832 24.9403 37.105 23.3279 37.1016C21.7155 37.0983 20.3822 38.4705 20.3775 40.1648C20.3727 38.4705 19.0488 37.0983 17.4364 37.1016Z" fill="#E61408" />
    <path d="M184.671 265.516C183.058 265.512 181.747 264.134 181.758 262.443C181.78 258.857 186.284 256.264 187.612 253.432C188.939 256.264 193.453 258.857 193.475 262.443C193.486 264.134 192.175 265.512 190.562 265.516C188.95 265.519 187.617 264.147 187.612 262.452C187.607 264.147 186.283 265.519 184.671 265.516Z" fill="#E61408" />
    <path d="M137.602 17.0469C132.239 17.0584 127.879 21.6419 127.914 27.2656C127.989 39.1909 142.968 47.8153 147.383 57.2344C151.798 47.8153 166.808 39.1909 166.883 27.2656C166.918 21.6419 162.558 17.0584 157.196 17.0469C151.833 17.0359 147.399 21.5997 147.383 27.2344C147.367 21.5997 142.964 17.0359 137.602 17.0469Z" fill="#E61408" />
    <path d="M94.2033 74.2266C88.8409 74.2381 84.4804 78.8216 84.5158 84.4453C84.591 96.3706 99.5692 104.995 103.985 114.414C108.4 104.995 123.409 96.3706 123.485 84.4453C123.52 78.8216 119.159 74.2381 113.797 74.2266C108.435 74.2156 104 78.7794 103.985 84.4141C103.969 78.7794 99.5657 74.2156 94.2033 74.2266Z" fill="#E61408" />
    <path d="M49.633 131.406C44.2706 131.418 39.9101 136.001 39.9455 141.625C40.0207 153.55 54.9989 162.175 59.4143 171.594C63.8297 162.175 78.8391 153.55 78.9143 141.625C78.9497 136.001 74.5892 131.418 69.2268 131.406C63.8644 131.395 59.4301 135.959 59.4143 141.594C59.3985 135.959 54.9954 131.395 49.633 131.406Z" fill="#E61408" />
    <path d="M137.602 131.406C132.239 131.418 127.879 136.001 127.914 141.625C127.989 153.55 142.968 162.175 147.383 171.594C151.798 162.175 166.808 153.55 166.883 141.625C166.918 136.001 162.558 131.418 157.196 131.406C151.833 131.395 147.399 135.959 147.383 141.594C147.367 135.959 142.964 131.395 137.602 131.406Z" fill="#E61408" />
    <path d="M94.2033 228.758C88.8409 228.746 84.4804 224.163 84.5158 218.539C84.591 206.614 99.5692 197.989 103.985 188.57C108.4 197.989 123.409 206.614 123.485 218.539C123.52 224.163 119.159 228.746 113.797 228.758C108.435 228.769 104 224.205 103.985 218.57C103.969 224.205 99.5657 228.769 94.2033 228.758Z" fill="#E61408" />
    <path d="M49.633 285.922C44.2706 285.91 39.9101 281.327 39.9455 275.703C40.0207 263.778 54.9989 255.153 59.4143 245.734C63.8297 255.153 78.8391 263.778 78.9143 275.703C78.9497 281.327 74.5892 285.91 69.2268 285.922C63.8644 285.933 59.4301 281.369 59.4143 275.734C59.3985 281.369 54.9954 285.933 49.633 285.922Z" fill="#E61408" />
    <path d="M137.602 285.922C132.239 285.91 127.879 281.327 127.914 275.703C127.989 263.778 142.968 255.153 147.383 245.734C151.798 255.153 166.808 263.778 166.883 275.703C166.918 281.327 162.558 285.91 157.196 285.922C151.833 285.933 147.399 281.369 147.383 275.734C147.367 281.369 142.964 285.933 137.602 285.922Z" fill="#E61408" />
  </g>
  <defs>
    <clipPath id="clip0_872_237">
      <rect width="208" height="303" fill="white" />
    </clipPath>
  </defs>
</svg>
