<svg width="208" height="303" viewBox="0 0 208 303" fill="none" xmlns="http://www.w3.org/2000/svg">
  <g clip-path="url(#clip0_872_806)">
    <path d="M207.69 294.112C207.69 298.832 203.848 302.69 199.138 302.69H8.85392C4.15407 302.69 0.3125 298.832 0.3125 294.112V8.89073C0.3125 4.17728 4.15407 0.3125 8.85392 0.3125H199.138C203.848 0.3125 207.69 4.17728 207.69 8.89073V294.112Z" fill="white" stroke="black" stroke-width="0.622432" />
    <path d="M17.5588 15.952H16.7419V11.1282C17.2938 10.7525 17.8378 10.4705 18.3745 10.282C18.9113 10.0942 19.4504 10 19.9926 10C21.2667 10 22.2623 10.5854 22.9796 11.7548C23.6968 12.9249 24.0554 14.554 24.0554 16.6425C24.0554 18.1293 23.8579 19.4623 23.464 20.6421C23.0701 21.822 22.3188 23.22 21.2113 24.8369L18.4189 28.9453H23.1607V26.2999H24.0943V32.8744H16.6641V29.2127L18.1472 26.9163C19.4249 24.9566 20.2753 23.2887 20.6983 21.9113C21.1208 20.5345 21.3323 18.9268 21.3323 17.0875C21.3323 15.349 21.1712 14.0245 20.8491 13.1152C20.5269 12.2059 20.0595 11.7506 19.4456 11.7506C18.9119 11.7506 18.487 12.1098 18.1697 12.8277C17.8524 13.5456 17.6488 14.5868 17.5588 15.952Z" fill="#E61408" />
    <path d="M190.442 287.047H191.259V291.871C190.707 292.248 190.162 292.53 189.626 292.717C189.09 292.906 188.55 292.999 188.008 292.999C186.734 292.999 185.738 292.415 185.021 291.245C184.304 290.074 183.945 288.445 183.945 286.357C183.945 284.871 184.142 283.538 184.536 282.357C184.93 281.178 185.681 279.78 186.79 278.163L189.581 274.054H184.84V276.699H183.906V270.125H191.337V273.787L189.853 276.084C188.576 278.044 187.726 279.712 187.303 281.088C186.88 282.465 186.668 284.074 186.668 285.912C186.668 287.65 186.829 288.975 187.152 289.885C187.473 290.794 187.941 291.249 188.555 291.249C189.089 291.249 189.513 290.89 189.832 290.172C190.148 289.454 190.352 288.414 190.442 287.047Z" fill="#E61408" />
    <path d="M94.2033 17.0781C88.841 17.0897 84.4804 21.6731 84.5158 27.2969C84.591 39.2222 99.5692 47.8465 103.985 57.2656C108.4 47.8465 123.409 39.2222 123.485 27.2969C123.52 21.6731 119.159 17.0897 113.797 17.0781C108.435 17.0672 104 21.6309 103.985 27.2656C103.969 21.6309 99.5658 17.0672 94.2033 17.0781Z" fill="#E61408" />
    <path d="M17.4364 37.1016C15.824 37.105 14.5128 38.4832 14.5235 40.1742C14.5461 43.7599 19.0498 46.3531 20.3775 49.1853C21.7051 46.3531 26.2182 43.7599 26.2408 40.1742C26.2515 38.4832 24.9403 37.105 23.3279 37.1016C21.7155 37.0983 20.3822 38.4705 20.3775 40.1648C20.3727 38.4705 19.0488 37.0983 17.4364 37.1016Z" fill="#E61408" />
    <path d="M184.671 265.516C183.058 265.512 181.747 264.134 181.758 262.443C181.78 258.857 186.284 256.264 187.612 253.432C188.939 256.264 193.453 258.857 193.475 262.443C193.486 264.134 192.175 265.512 190.562 265.516C188.95 265.519 187.617 264.147 187.612 262.452C187.607 264.147 186.283 265.519 184.671 265.516Z" fill="#E61408" />
    <path d="M94.2033 285.922C88.841 285.91 84.4804 281.327 84.5158 275.703C84.591 263.778 99.5692 255.153 103.985 245.734C108.4 255.153 123.409 263.778 123.485 275.703C123.52 281.327 119.159 285.91 113.797 285.922C108.435 285.933 104 281.369 103.985 275.734C103.969 281.369 99.5658 285.933 94.2033 285.922Z" fill="#E61408" />
  </g>
  <defs>
    <clipPath id="clip0_872_806">
      <rect width="208" height="303" fill="white" />
    </clipPath>
  </defs>
</svg>
