<svg width="209" height="303" viewBox="0 0 209 303" fill="none" xmlns="http://www.w3.org/2000/svg">
  <g clip-path="url(#clip0_872_182)">
    <path d="M208.19 294.112C208.19 298.832 204.348 302.69 199.638 302.69H9.35392C4.65407 302.69 0.8125 298.832 0.8125 294.112V8.89073C0.8125 4.17728 4.65407 0.3125 9.35392 0.3125H199.638C204.348 0.3125 208.19 4.17728 208.19 8.89073V294.112Z" fill="white" stroke="black" stroke-width="0.622432" />
    <path d="M18.0588 15.952H17.2419V11.1282C17.7938 10.7525 18.3378 10.4705 18.8745 10.282C19.4113 10.0942 19.9504 10 20.4926 10C21.7667 10 22.7623 10.5854 23.4796 11.7548C24.1968 12.9249 24.5554 14.554 24.5554 16.6425C24.5554 18.1293 24.3579 19.4623 23.964 20.6421C23.5701 21.822 22.8188 23.22 21.7113 24.8369L18.9189 28.9453H23.6607V26.2999H24.5943V32.8744H17.1641V29.2127L18.6472 26.9163C19.9249 24.9566 20.7753 23.2887 21.1983 21.9113C21.6208 20.5345 21.8323 18.9268 21.8323 17.0875C21.8323 15.349 21.6712 14.0245 21.3491 13.1152C21.0269 12.2059 20.5595 11.7506 19.9456 11.7506C19.4119 11.7506 18.987 12.1098 18.6697 12.8277C18.3524 13.5456 18.1488 14.5868 18.0588 15.952ZM190.937 287.045H191.754V291.869C191.202 292.246 190.657 292.528 190.121 292.715C189.585 292.903 189.045 292.997 188.503 292.997C187.229 292.997 186.233 292.412 185.516 291.243C184.799 290.072 184.44 288.443 184.44 286.354C184.44 284.869 184.637 283.535 185.031 282.355C185.425 281.176 186.176 279.778 187.285 278.161L190.076 274.052H185.335V276.697H184.401V270.123H191.831V273.784L190.348 276.082C189.071 278.042 188.221 279.71 187.798 281.086C187.375 282.463 187.163 284.071 187.163 285.91C187.163 287.648 187.324 288.973 187.647 289.882C187.968 290.792 188.436 291.246 189.05 291.246C189.584 291.246 190.008 290.888 190.326 290.169C190.642 289.452 190.847 288.411 190.937 287.045Z" fill="black" />
    <path d="M104.5 16.5938C100.536 23.7286 87.0256 30.2651 87 39.2812C86.9879 43.5386 90.9164 46.9687 95.75 46.9687C98.8292 46.9687 101.565 45.5868 103.125 43.4687C102.473 49.5989 100.726 56.45 94.3438 57.75H114.656C108.274 56.45 106.527 49.5989 105.875 43.4687C107.435 45.5868 110.171 46.9687 113.25 46.9687C118.084 46.9687 122.012 43.5386 122 39.2812C121.974 30.2651 108.464 23.7286 104.5 16.5938Z" fill="black" />
    <path d="M20.8853 36.9609C19.6936 39.1056 15.6363 41.0704 15.625 43.7805C15.625 45.0602 16.8022 46.0912 18.2551 46.0912C19.1807 46.0912 20.0031 45.6759 20.472 45.0392C20.2761 46.8818 19.7507 48.9412 17.8324 49.3319H23.9381C22.0198 48.9412 21.4944 46.8818 21.2986 45.0392C21.7674 45.6759 22.5898 46.0912 23.5154 46.0912C24.9683 46.0912 26.1455 45.0602 26.1455 43.7805C26.1342 41.0704 22.0769 39.1056 20.8853 36.9609Z" fill="black" />
    <path d="M188.12 265.664C186.928 263.519 182.871 261.555 182.859 258.845C182.859 257.565 184.037 256.534 185.49 256.534C186.415 256.534 187.238 256.949 187.706 257.586C187.51 255.743 186.985 253.684 185.067 253.293H191.172C189.254 253.684 188.729 255.743 188.533 257.586C189.002 256.949 189.824 256.534 190.75 256.534C192.203 256.534 193.38 257.565 193.38 258.845C193.369 261.555 189.311 263.519 188.12 265.664Z" fill="black" />
    <path d="M104.5 286.406C100.536 279.271 87.0256 272.735 87 263.719C86.9879 259.461 90.9164 256.031 95.75 256.031C98.8292 256.031 101.565 257.413 103.125 259.531C102.473 253.401 100.726 246.55 94.3438 245.25H114.656C108.274 246.55 106.527 253.401 105.875 259.531C107.435 257.413 110.171 256.031 113.25 256.031C118.084 256.031 122.012 259.461 122 263.719C121.974 272.735 108.464 279.271 104.5 286.406Z" fill="black" />
  </g>
  <defs>
    <clipPath id="clip0_872_182">
      <rect width="208" height="303" fill="white" transform="translate(0.5)" />
    </clipPath>
  </defs>
</svg>
