<svg width="208" height="303" viewBox="0 0 208 303" fill="none" xmlns="http://www.w3.org/2000/svg">
  <g clip-path="url(#clip0_872_189)">
    <path d="M207.69 294.112C207.69 298.832 203.848 302.69 199.138 302.69H8.85392C4.15407 302.69 0.3125 298.832 0.3125 294.112V8.89073C0.3125 4.17728 4.15407 0.3125 8.85392 0.3125H199.138C203.848 0.3125 207.69 4.17728 207.69 8.89073V294.112Z" fill="white" stroke="black" stroke-width="0.622432" />
    <path d="M13.9521 33H8.75102L16.676 10.0433H22.9308L30.8446 33H25.6435L19.8931 15.2893H19.7137L13.9521 33ZM13.6271 23.9765H25.9125V27.7653H13.6271V23.9765Z" fill="black" />
    <path d="M181.952 270H176.751L184.676 292.957H190.931L198.845 270H193.643L187.893 287.711H187.714L181.952 270ZM181.627 279.023H193.912V275.235H181.627V279.023Z" fill="black" />
    <path d="M104 130.922C100.036 138.057 86.5256 144.593 86.5 153.609C86.4879 157.867 90.4164 161.297 95.25 161.297C98.3292 161.297 101.065 159.915 102.625 157.797C101.973 163.927 100.226 170.778 93.8438 172.078H104H114.156C107.774 170.778 106.027 163.927 105.375 157.797C106.935 159.915 109.671 161.297 112.75 161.297C117.584 161.297 121.512 157.867 121.5 153.609C121.474 144.593 107.964 138.057 104 130.922Z" fill="black" />
    <path d="M20.3853 36.9609C19.1936 39.1056 15.1363 41.0704 15.125 43.7805C15.125 45.0602 16.3022 46.0912 17.7551 46.0912C18.6807 46.0912 19.5031 45.6759 19.972 45.0392C19.7761 46.8818 19.2507 48.9412 17.3324 49.3319H20.3853H23.4381C21.5198 48.9412 20.9944 46.8818 20.7986 45.0392C21.2674 45.6759 22.0898 46.0912 23.0154 46.0912C24.4683 46.0912 25.6455 45.0602 25.6455 43.7805C25.6342 41.0704 21.5769 39.1056 20.3853 36.9609Z" fill="black" />
    <path d="M187.62 265.664C186.428 263.519 182.371 261.555 182.359 258.845C182.359 257.565 183.537 256.534 184.99 256.534C185.915 256.534 186.738 256.949 187.206 257.586C187.01 255.743 186.485 253.684 184.567 253.293H187.62H190.672C188.754 253.684 188.229 255.743 188.033 257.586C188.502 256.949 189.324 256.534 190.25 256.534C191.703 256.534 192.88 257.565 192.88 258.845C192.869 261.555 188.811 263.519 187.62 265.664Z" fill="black" />
  </g>
  <defs>
    <clipPath id="clip0_872_189">
      <rect width="208" height="303" fill="white" />
    </clipPath>
  </defs>
</svg>
