<svg width="209" height="303" viewBox="0 0 209 303" fill="none" xmlns="http://www.w3.org/2000/svg">
  <g clip-path="url(#clip0_872_39)">
    <path d="M208.19 294.112C208.19 298.832 204.348 302.69 199.638 302.69H9.35392C4.65407 302.69 0.8125 298.832 0.8125 294.112V8.89073C0.8125 4.17728 4.65407 0.3125 9.35392 0.3125H199.638C204.348 0.3125 208.19 4.17728 208.19 8.89073V294.112Z" fill="white" stroke="black" stroke-width="0.622432" />
    <path d="M24.5556 14.0378L20.4217 32.6652H19.054L23.0822 14.4591H18.1368V17.4934H17.2031V10.2188H24.5556V14.0378Z" fill="black" />
    <path d="M184.445 288.964L188.579 270.336H189.948L185.919 288.542H190.864V285.508H191.798V292.782H184.445V288.964Z" fill="black" />
    <path d="M59.9297 16.5625C55.9654 23.6974 42.4553 30.2338 42.4297 39.25C42.4176 43.5073 46.3461 46.9375 51.1797 46.9375C54.2589 46.9375 56.995 45.5556 58.5547 43.4375C57.9031 49.5677 56.1554 56.4188 49.7735 57.7188H59.9297H70.086C63.7041 56.4188 61.9563 49.5677 61.3047 43.4375C62.8644 45.5556 65.6005 46.9375 68.6797 46.9375C73.5133 46.9375 77.4418 43.5073 77.4297 39.25C77.4041 30.2338 63.8941 23.6974 59.9297 16.5625Z" fill="black" />
    <path d="M20.8853 36.9609C19.6936 39.1056 15.6363 41.0704 15.625 43.7805C15.625 45.0602 16.8022 46.0912 18.2551 46.0912C19.1807 46.0912 20.0031 45.6759 20.472 45.0392C20.2761 46.8818 19.7507 48.9412 17.8324 49.3319H20.8853H23.9381C22.0198 48.9412 21.4944 46.8818 21.2986 45.0392C21.7674 45.6759 22.5898 46.0912 23.5154 46.0912C24.9683 46.0912 26.1455 45.0602 26.1455 43.7805C26.1342 41.0704 22.0769 39.1056 20.8853 36.9609Z" fill="black" />
    <path d="M188.12 265.664C186.928 263.519 182.871 261.555 182.859 258.845C182.859 257.565 184.037 256.534 185.49 256.534C186.415 256.534 187.238 256.949 187.706 257.586C187.51 255.743 186.985 253.684 185.067 253.293H188.12H191.172C189.254 253.684 188.729 255.743 188.533 257.586C189.002 256.949 189.824 256.534 190.75 256.534C192.203 256.534 193.38 257.565 193.38 258.845C193.369 261.555 189.311 263.519 188.12 265.664Z" fill="black" />
    <path d="M147.898 286.406C143.934 279.271 130.424 272.735 130.398 263.719C130.386 259.461 134.315 256.031 139.148 256.031C142.228 256.031 144.964 257.413 146.523 259.531C145.872 253.401 144.124 246.55 137.742 245.25H147.898H158.055C151.673 246.55 149.925 253.401 149.273 259.531C150.833 257.413 153.569 256.031 156.648 256.031C161.482 256.031 165.411 259.461 165.398 263.719C165.373 272.735 151.863 279.271 147.898 286.406Z" fill="black" />
    <path d="M59.9297 286.406C55.9654 279.271 42.4553 272.735 42.4297 263.719C42.4176 259.461 46.3461 256.031 51.1797 256.031C54.2589 256.031 56.995 257.413 58.5547 259.531C57.9031 253.401 56.1554 246.55 49.7735 245.25H59.9297H70.086C63.7041 246.55 61.9563 253.401 61.3047 259.531C62.8644 257.413 65.6005 256.031 68.6797 256.031C73.5133 256.031 77.4418 259.461 77.4297 263.719C77.4041 272.735 63.8941 279.271 59.9297 286.406Z" fill="black" />
    <path d="M147.898 16.5625C143.934 23.6974 130.424 30.2338 130.398 39.25C130.386 43.5073 134.315 46.9375 139.148 46.9375C142.228 46.9375 144.964 45.5556 146.523 43.4375C145.872 49.5677 144.124 56.4188 137.742 57.7188H147.898H158.055C151.673 56.4188 149.925 49.5677 149.273 43.4375C150.833 45.5556 153.569 46.9375 156.648 46.9375C161.482 46.9375 165.411 43.5073 165.398 39.25C165.373 30.2338 151.863 23.6974 147.898 16.5625Z" fill="black" />
    <path d="M104.5 73.7422C100.536 80.8771 87.0256 87.4135 87 96.4297C86.9879 100.687 90.9164 104.117 95.75 104.117C98.8292 104.117 101.565 102.735 103.125 100.617C102.473 106.747 100.726 113.598 94.3438 114.898H104.5H114.656C108.274 113.598 106.527 106.747 105.875 100.617C107.435 102.735 110.171 104.117 113.25 104.117C118.084 104.117 122.012 100.687 122 96.4297C121.974 87.4135 108.464 80.8771 104.5 73.7422Z" fill="black" />
    <path d="M59.9297 130.922C55.9654 138.057 42.4553 144.593 42.4297 153.609C42.4176 157.867 46.3461 161.297 51.1797 161.297C54.2589 161.297 56.995 159.915 58.5547 157.797C57.9031 163.927 56.1554 170.778 49.7735 172.078H59.9297H70.086C63.7041 170.778 61.9563 163.927 61.3047 157.797C62.8644 159.915 65.6005 161.297 68.6797 161.297C73.5133 161.297 77.4418 157.867 77.4297 153.609C77.4041 144.593 63.8941 138.057 59.9297 130.922Z" fill="black" />
    <path d="M147.898 130.922C143.934 138.057 130.424 144.593 130.398 153.609C130.386 157.867 134.315 161.297 139.148 161.297C142.228 161.297 144.964 159.915 146.523 157.797C145.872 163.927 144.124 170.778 137.742 172.078H147.898H158.055C151.673 170.778 149.925 163.927 149.273 157.797C150.833 159.915 153.569 161.297 156.648 161.297C161.482 161.297 165.411 157.867 165.398 153.609C165.373 144.593 151.863 138.057 147.898 130.922Z" fill="black" />
  </g>
  <defs>
    <clipPath id="clip0_872_39">
      <rect width="208" height="303" fill="white" transform="translate(0.5)" />
    </clipPath>
  </defs>
</svg>
