<svg width="209" height="303" viewBox="0 0 209 303" fill="none" xmlns="http://www.w3.org/2000/svg">
  <g clip-path="url(#clip0_872_156)">
    <path d="M208.19 294.112C208.19 298.832 204.348 302.69 199.638 302.69H9.35392C4.65407 302.69 0.8125 298.832 0.8125 294.112V8.89073C0.8125 4.17728 4.65407 0.3125 9.35392 0.3125H199.638C204.348 0.3125 208.19 4.17728 208.19 8.89073V294.112Z" fill="white" stroke="black" stroke-width="0.622432" />
    <path d="M17.2412 10.8394C17.8345 10.4893 18.4095 10.2267 18.9675 10.0517C19.5255 9.87659 20.0665 9.78906 20.5892 9.78906C21.8061 9.78906 22.7386 10.2741 23.3865 11.243C24.0357 12.2125 24.3603 13.6015 24.3603 15.4098C24.3603 16.7659 24.1743 17.8661 23.8023 18.7098C23.4315 19.5535 22.8844 20.1212 22.1611 20.4124C23.0291 20.723 23.6771 21.3892 24.1062 22.4103C24.5341 23.4321 24.7493 24.8289 24.7493 26.6014C24.7493 28.6948 24.3773 30.3002 23.6345 31.4168C22.8917 32.5334 21.8171 33.0914 20.4117 33.0914C19.889 33.0914 19.3444 32.9905 18.7766 32.7899C18.2089 32.5893 17.6193 32.2878 17.0078 31.8854V26.9449H17.8248C17.8746 28.3751 18.0764 29.4656 18.429 30.2157C18.7815 30.9657 19.2702 31.3408 19.8951 31.3408C20.5698 31.3408 21.0937 30.9171 21.467 30.0698C21.839 29.2224 22.0262 28.0213 22.0262 26.4665C22.0262 24.8423 21.8341 23.5883 21.4512 22.7057C21.0682 21.8232 20.5236 21.3819 19.8173 21.3819H19.3808V19.5924H19.7273C20.3899 19.5924 20.8859 19.2502 21.2177 18.5651C21.5484 17.8807 21.715 16.8583 21.715 15.4979C21.715 14.219 21.5581 13.2392 21.2445 12.5596C20.9308 11.88 20.4798 11.5397 19.8939 11.5397C19.3577 11.5397 18.9322 11.8618 18.6186 12.5055C18.305 13.1498 18.119 14.0853 18.0582 15.3131H17.2412V10.8394Z" fill="black" />
    <path d="M191.758 292.158C191.165 292.508 190.589 292.771 190.032 292.946C189.473 293.121 188.933 293.209 188.41 293.209C187.192 293.209 186.261 292.725 185.612 291.755C184.962 290.786 184.639 289.396 184.639 287.588C184.639 286.233 184.824 285.132 185.196 284.288C185.568 283.444 186.115 282.878 186.837 282.586C185.969 282.275 185.322 281.608 184.892 280.587C184.464 279.566 184.25 278.169 184.25 276.397C184.25 274.303 184.622 272.697 185.364 271.581C186.108 270.465 187.182 269.906 188.588 269.906C189.11 269.906 189.655 270.008 190.221 270.208C190.79 270.41 191.379 270.711 191.992 271.112V276.053H191.175C191.124 274.623 190.922 273.533 190.569 272.783C190.217 272.032 189.728 271.657 189.103 271.657C188.43 271.657 187.904 272.081 187.532 272.928C187.16 273.776 186.973 274.977 186.973 276.532C186.973 278.156 187.165 279.411 187.547 280.293C187.931 281.176 188.476 281.616 189.181 281.616H189.618V283.405H189.271C188.609 283.405 188.113 283.748 187.78 284.434C187.45 285.117 187.284 286.141 187.284 287.5C187.284 288.779 187.44 289.758 187.754 290.439C188.067 291.118 188.52 291.458 189.105 291.458C189.64 291.458 190.066 291.137 190.379 290.493C190.693 289.848 190.88 288.912 190.941 287.684H191.758V292.158Z" fill="black" />
    <path d="M114.665 172.08C110.335 172.085 108.057 167.467 106.861 162.848C105.665 158.229 105.553 153.608 105.553 153.608L103.343 153.586C103.343 153.586 102.927 172.068 94.2656 172.077L114.665 172.08Z" fill="black" />
    <path d="M121.997 153.604C121.96 144.588 108.462 138.049 104.497 130.914C100.536 138.049 87.0384 144.588 87.0001 153.604C86.9824 157.861 90.9176 161.309 95.75 161.309C100.581 161.309 104.497 157.861 104.497 153.604C104.497 157.861 108.417 161.309 113.248 161.309C118.082 161.309 121.997 157.861 121.997 153.604Z" fill="black" />
    <path d="M24.0865 49.6278C22.7231 49.6297 22.0059 48.1751 21.629 46.7211C21.2528 45.2666 21.2169 43.812 21.2169 43.812L20.5215 43.8047C20.5215 43.8047 20.3909 49.6242 17.6641 49.6266L24.0865 49.6278Z" fill="black" />
    <path d="M26.394 43.8081C26.3819 40.9694 22.1318 38.9107 20.8839 36.6641C19.6366 38.9107 15.3872 40.9694 15.375 43.8081C15.3695 45.1483 16.6083 46.234 18.1298 46.234C19.6512 46.234 20.8839 45.1483 20.8839 43.8081C20.8839 45.1483 22.1178 46.234 23.6393 46.234C25.1607 46.234 26.394 45.1483 26.394 43.8081Z" fill="black" />
    <path d="M184.914 252.992C186.277 252.99 186.995 254.445 187.371 255.899C187.747 257.354 187.783 258.808 187.783 258.808L188.478 258.815C188.478 258.815 188.61 252.996 191.335 252.993L184.914 252.992Z" fill="black" />
    <path d="M182.609 258.808C182.622 261.647 186.87 263.706 188.119 265.953C189.366 263.706 193.615 261.647 193.627 258.808C193.633 257.467 192.393 256.383 190.872 256.383C189.352 256.383 188.119 257.467 188.119 258.808C188.119 257.467 186.884 256.383 185.364 256.383C183.842 256.383 182.609 257.467 182.609 258.808Z" fill="black" />
    <path d="M114.665 57.7521C110.335 57.7569 108.057 53.1385 106.861 48.5201C105.665 43.9005 105.553 39.2797 105.553 39.2797L103.343 39.2578C103.343 39.2578 102.927 57.7399 94.2656 57.7484L114.665 57.7521Z" fill="black" />
    <path d="M121.997 39.2755C121.96 30.2594 108.462 23.7208 104.497 16.5859C100.536 23.7208 87.0384 30.2594 87.0001 39.2755C86.9824 43.5329 90.9176 46.9806 95.75 46.9806C100.581 46.9806 104.497 43.5329 104.497 39.2755C104.497 43.5329 108.417 46.9806 113.248 46.9806C118.082 46.9806 121.997 43.5329 121.997 39.2755Z" fill="black" />
    <path d="M114.665 245.248C110.335 245.243 108.057 249.861 106.861 254.48C105.665 259.099 105.553 263.72 105.553 263.72L103.343 263.742C103.343 263.742 102.927 245.26 94.2656 245.252L114.665 245.248Z" fill="black" />
    <path d="M121.997 263.724C121.96 272.741 108.462 279.279 104.497 286.414C100.536 279.279 87.0384 272.741 87.0001 263.724C86.9824 259.467 90.9176 256.019 95.75 256.019C100.581 256.019 104.497 259.467 104.497 263.724C104.497 259.467 108.417 256.019 113.248 256.019C118.082 256.019 121.997 259.467 121.997 263.724Z" fill="black" />
  </g>
  <defs>
    <clipPath id="clip0_872_156">
      <rect width="208" height="303" fill="white" transform="translate(0.5)" />
    </clipPath>
  </defs>
</svg>
