<svg width="209" height="303" viewBox="0 0 209 303" fill="none" xmlns="http://www.w3.org/2000/svg">
  <g clip-path="url(#clip0_872_92)">
    <path d="M208.19 294.112C208.19 298.832 204.348 302.69 199.638 302.69H9.35392C4.65407 302.69 0.8125 298.832 0.8125 294.112V8.89073C0.8125 4.17728 4.65407 0.3125 9.35392 0.3125H199.638C204.348 0.3125 208.19 4.17728 208.19 8.89073V294.112Z" fill="white" stroke="black" stroke-width="0.622432" />
    <path d="M23.8008 10V13.9291H18.4713V18.877C18.7703 18.3609 19.0998 17.9713 19.459 17.7081C19.8183 17.4455 20.1975 17.3136 20.5969 17.3136C21.8345 17.3136 22.807 18.0132 23.5158 19.4113C24.2245 20.8093 24.5789 22.7112 24.5789 25.1165C24.5789 27.5624 24.2233 29.4668 23.5121 30.8296C22.8009 32.193 21.7992 32.8744 20.5075 32.8744C19.9666 32.8744 19.4256 32.7729 18.8846 32.5711C18.3436 32.3687 17.7783 32.055 17.1875 31.6295V26.7279H18.0044C18.0342 28.2086 18.2075 29.3112 18.5235 30.0364C18.8396 30.7615 19.3034 31.1238 19.9149 31.1238C20.5768 31.1238 21.0655 30.6308 21.3816 29.6443C21.6977 28.6578 21.8557 27.1528 21.8557 25.1298C21.8557 23.1373 21.7007 21.6475 21.3907 20.661C21.0807 19.6744 20.6109 19.1809 19.9812 19.1809C19.6408 19.1809 19.3387 19.3383 19.0736 19.6526C18.8086 19.9674 18.5612 20.4537 18.3315 21.1126H17.6543V10H23.8008Z" fill="black" />
    <path d="M185.2 292.999V289.07H190.529V284.122C190.23 284.639 189.9 285.029 189.541 285.292C189.183 285.555 188.803 285.686 188.403 285.686C187.166 285.686 186.193 284.987 185.484 283.589C184.776 282.191 184.422 280.288 184.422 277.884C184.422 275.438 184.777 273.534 185.488 272.17C186.199 270.807 187.201 270.125 188.492 270.125C189.034 270.125 189.574 270.227 190.116 270.429C190.656 270.631 191.222 270.944 191.813 271.37V276.272H190.996C190.966 274.791 190.792 273.689 190.476 272.964C190.16 272.238 189.697 271.876 189.085 271.876C188.424 271.876 187.935 272.369 187.619 273.356C187.303 274.342 187.145 275.847 187.145 277.87C187.145 279.863 187.299 281.353 187.609 282.339C187.919 283.325 188.39 283.819 189.02 283.819C189.36 283.819 189.661 283.662 189.927 283.347C190.192 283.033 190.44 282.547 190.668 281.888H191.346V292.999H185.2Z" fill="black" />
    <path d="M70.0952 57.7286C65.7649 57.7335 63.4867 53.1151 62.2905 48.4967C61.0942 43.8771 60.9824 39.2563 60.9824 39.2563L58.7722 39.2344C58.7722 39.2344 58.3565 57.7165 49.6953 57.725L70.0952 57.7286Z" fill="black" />
    <path d="M77.427 39.2521C77.3893 30.236 63.8915 23.6974 59.9271 16.5625C55.9658 23.6974 42.468 30.236 42.4297 39.2521C42.4121 43.5094 46.3473 46.9571 51.1797 46.9571C56.0108 46.9571 59.9271 43.5094 59.9271 39.2521C59.9271 43.5094 63.8465 46.9571 68.6777 46.9571C73.5112 46.9571 77.427 43.5094 77.427 39.2521Z" fill="black" />
    <path d="M24.0865 49.6278C22.7231 49.6297 22.0059 48.1751 21.629 46.7211C21.2528 45.2666 21.2169 43.812 21.2169 43.812L20.5215 43.8047C20.5215 43.8047 20.3909 49.6242 17.6641 49.6266L24.0865 49.6278Z" fill="black" />
    <path d="M26.394 43.8081C26.3819 40.9694 22.1318 38.9107 20.8839 36.6641C19.6366 38.9107 15.3872 40.9694 15.375 43.8081C15.3695 45.1483 16.6083 46.234 18.1298 46.234C19.6512 46.234 20.8839 45.1483 20.8839 43.8081C20.8839 45.1483 22.1178 46.234 23.6393 46.234C25.1607 46.234 26.394 45.1483 26.394 43.8081Z" fill="black" />
    <path d="M184.914 252.992C186.277 252.99 186.995 254.445 187.371 255.899C187.747 257.354 187.783 258.808 187.783 258.808L188.478 258.815C188.478 258.815 188.61 252.996 191.335 252.993L184.914 252.992Z" fill="black" />
    <path d="M182.609 258.808C182.622 261.647 186.87 263.706 188.119 265.953C189.366 263.706 193.615 261.647 193.627 258.808C193.633 257.467 192.393 256.383 190.872 256.383C189.352 256.383 188.119 257.467 188.119 258.808C188.119 257.467 186.884 256.383 185.364 256.383C183.842 256.383 182.609 257.467 182.609 258.808Z" fill="black" />
    <path d="M158.072 57.7286C153.741 57.7335 151.463 53.1151 150.267 48.4967C149.071 43.8771 148.959 39.2563 148.959 39.2563L146.749 39.2344C146.749 39.2344 146.333 57.7165 137.672 57.725L158.072 57.7286Z" fill="black" />
    <path d="M165.404 39.2521C165.366 30.236 151.868 23.6974 147.904 16.5625C143.942 23.6974 130.445 30.236 130.406 39.2521C130.389 43.5094 134.324 46.9571 139.156 46.9571C143.987 46.9571 147.904 43.5094 147.904 39.2521C147.904 43.5094 151.823 46.9571 156.654 46.9571C161.488 46.9571 165.404 43.5094 165.404 39.2521Z" fill="black" />
    <path d="M114.665 172.08C110.335 172.085 108.057 167.467 106.861 162.848C105.665 158.229 105.553 153.608 105.553 153.608L103.343 153.586C103.343 153.586 102.927 172.068 94.2656 172.077L114.665 172.08Z" fill="black" />
    <path d="M121.997 153.604C121.96 144.588 108.462 138.049 104.497 130.914C100.536 138.049 87.0384 144.588 87.0001 153.604C86.9824 157.861 90.9176 161.309 95.75 161.309C100.581 161.309 104.497 157.861 104.497 153.604C104.497 157.861 108.417 161.309 113.248 161.309C118.082 161.309 121.997 157.861 121.997 153.604Z" fill="black" />
    <path d="M70.0952 245.248C65.7649 245.243 63.4867 249.861 62.2905 254.48C61.0942 259.099 60.9824 263.72 60.9824 263.72L58.7722 263.742C58.7722 263.742 58.3565 245.26 49.6953 245.252L70.0952 245.248Z" fill="black" />
    <path d="M77.427 263.724C77.3893 272.741 63.8915 279.279 59.9271 286.414C55.9658 279.279 42.468 272.741 42.4297 263.724C42.4121 259.467 46.3473 256.019 51.1797 256.019C56.0108 256.019 59.9271 259.467 59.9271 263.724C59.9271 259.467 63.8465 256.019 68.6777 256.019C73.5112 256.019 77.427 259.467 77.427 263.724Z" fill="black" />
    <path d="M158.072 245.248C153.741 245.243 151.463 249.861 150.267 254.48C149.071 259.099 148.959 263.72 148.959 263.72L146.749 263.742C146.749 263.742 146.333 245.26 137.672 245.252L158.072 245.248Z" fill="black" />
    <path d="M165.404 263.724C165.366 272.741 151.868 279.279 147.904 286.414C143.942 279.279 130.445 272.741 130.406 263.724C130.389 259.467 134.324 256.019 139.156 256.019C143.987 256.019 147.904 259.467 147.904 263.724C147.904 259.467 151.823 256.019 156.654 256.019C161.488 256.019 165.404 259.467 165.404 263.724Z" fill="black" />
  </g>
  <defs>
    <clipPath id="clip0_872_92">
      <rect width="208" height="303" fill="white" transform="translate(0.5)" />
    </clipPath>
  </defs>
</svg>
