<svg width="208" height="303" viewBox="0 0 208 303" fill="none" xmlns="http://www.w3.org/2000/svg">
  <g clip-path="url(#clip0_872_3616)">
    <path d="M207.69 294.112C207.69 298.832 203.848 302.69 199.138 302.69H8.85393C4.15407 302.69 0.3125 298.832 0.3125 294.112V8.89073C0.3125 4.17728 4.15407 0.3125 8.85393 0.3125H199.138C203.848 0.3125 207.69 4.17728 207.69 8.89073V294.112Z" fill="white" stroke="black" stroke-width="0.622432" />
    <path d="M12.21 32.6635V30.8351H14.0773V12.6623L11.9766 15.4305V13.1887L14.5015 9.78906H16.6059V30.8351H18.5121V32.6635H12.21Z" fill="black" />
    <path d="M24.6425 33.0914C23.2992 33.0914 22.272 32.0915 21.5596 30.0904C20.8472 28.09 20.4922 25.2095 20.4922 21.4481C20.4922 17.6874 20.8472 14.8038 21.5596 12.7979C22.272 10.792 23.2992 9.78906 24.6425 9.78906C25.9762 9.78906 26.9986 10.792 27.7109 12.7979C28.4221 14.8038 28.7783 17.6874 28.7783 21.4481C28.7783 25.2095 28.4221 28.09 27.7109 30.0904C26.9986 32.0915 25.9762 33.0914 24.6425 33.0914ZM24.6425 31.3408C25.1799 31.3408 25.5494 30.7937 25.7513 29.6996C25.9531 28.6055 26.0552 25.855 26.0552 21.4475C26.0552 17.071 25.9531 14.326 25.7513 13.2112C25.5494 12.097 25.1799 11.5397 24.6425 11.5397C24.0955 11.5397 23.7211 12.0867 23.5193 13.1808C23.3162 14.275 23.2153 17.0309 23.2153 21.4475C23.2153 25.855 23.3162 28.6055 23.5193 29.6996C23.7211 30.7937 24.0955 31.3408 24.6425 31.3408Z" fill="black" />
    <path d="M195.787 270.336V272.164H193.919V290.338L196.02 287.57V289.811L193.494 293.21H191.391V272.164H189.484V270.336H195.787Z" fill="black" />
    <path d="M183.355 269.906C184.699 269.906 185.728 270.907 186.438 272.908C187.15 274.908 187.505 277.789 187.505 281.55C187.505 285.311 187.15 288.195 186.438 290.201C185.728 292.207 184.699 293.209 183.355 293.209C182.022 293.209 180.999 292.207 180.289 290.201C179.576 288.195 179.219 285.311 179.219 281.55C179.219 277.789 179.576 274.908 180.289 272.908C180.999 270.907 182.022 269.906 183.355 269.906ZM183.355 271.657C182.82 271.657 182.45 272.204 182.246 273.298C182.044 274.392 181.942 277.143 181.942 281.55C181.942 285.927 182.044 288.672 182.246 289.788C182.45 290.901 182.82 291.458 183.355 291.458C183.902 291.458 184.276 290.911 184.48 289.817C184.682 288.723 184.782 285.968 184.782 281.55C184.782 277.143 184.682 274.392 184.48 273.298C184.276 272.204 183.902 271.657 183.355 271.657Z" fill="black" />
    <path d="M59.4297 16.5625C55.4654 23.6974 41.9553 30.2338 41.9297 39.25C41.9176 43.5073 45.8461 46.9375 50.6797 46.9375C53.7589 46.9375 56.495 45.5556 58.0547 43.4375C57.4031 49.5677 55.6554 56.4188 49.2735 57.7187H59.4297H69.586C63.2041 56.4188 61.4563 49.5677 60.8047 43.4375C62.3644 45.5556 65.1005 46.9375 68.1797 46.9375C73.0133 46.9375 76.9418 43.5073 76.9297 39.25C76.9041 30.2338 63.3941 23.6974 59.4297 16.5625Z" fill="black" />
    <path d="M20.3853 36.9609C19.1936 39.1056 15.1363 41.0704 15.125 43.7805C15.125 45.0602 16.3022 46.0912 17.7551 46.0912C18.6807 46.0912 19.5031 45.6759 19.972 45.0392C19.7761 46.8818 19.2507 48.9412 17.3324 49.3319H20.3853H23.4381C21.5198 48.9412 20.9944 46.8818 20.7986 45.0392C21.2674 45.6759 22.0898 46.0912 23.0154 46.0912C24.4683 46.0912 25.6455 45.0602 25.6455 43.7805C25.6342 41.0704 21.5769 39.1056 20.3853 36.9609Z" fill="black" />
    <path d="M187.62 265.664C186.428 263.519 182.371 261.555 182.359 258.845C182.359 257.565 183.537 256.534 184.99 256.534C185.915 256.534 186.738 256.949 187.206 257.586C187.01 255.743 186.485 253.684 184.567 253.293H187.62H190.672C188.754 253.684 188.229 255.743 188.033 257.586C188.502 256.949 189.324 256.534 190.25 256.534C191.703 256.534 192.88 257.565 192.88 258.845C192.869 261.555 188.811 263.519 187.62 265.664Z" fill="black" />
    <path d="M147.398 286.406C143.434 279.271 129.924 272.735 129.898 263.719C129.886 259.461 133.815 256.031 138.648 256.031C141.728 256.031 144.464 257.413 146.023 259.531C145.372 253.401 143.624 246.55 137.242 245.25H147.398H157.555C151.173 246.55 149.425 253.401 148.773 259.531C150.333 257.413 153.069 256.031 156.148 256.031C160.982 256.031 164.911 259.461 164.898 263.719C164.873 272.735 151.363 279.271 147.398 286.406Z" fill="black" />
    <path d="M59.4297 286.406C55.4654 279.271 41.9553 272.735 41.9297 263.719C41.9176 259.461 45.8461 256.031 50.6797 256.031C53.7589 256.031 56.495 257.413 58.0547 259.531C57.4031 253.401 55.6554 246.55 49.2735 245.25H59.4297H69.586C63.2041 246.55 61.4563 253.401 60.8047 259.531C62.3644 257.413 65.1005 256.031 68.1797 256.031C73.0133 256.031 76.9418 259.461 76.9297 263.719C76.9041 272.735 63.3941 279.271 59.4297 286.406Z" fill="black" />
    <path d="M104 248.289C100.036 241.154 86.5256 234.618 86.5 225.602C86.4879 221.344 90.4165 217.914 95.25 217.914C98.3292 217.914 101.065 219.296 102.625 221.414C101.973 215.284 100.226 208.433 93.8438 207.133H104H114.156C107.774 208.433 106.027 215.284 105.375 221.414C106.935 219.296 109.671 217.914 112.75 217.914C117.584 217.914 121.512 221.344 121.5 225.602C121.474 234.618 107.964 241.154 104 248.289Z" fill="black" />
    <path d="M145.906 210.18C141.942 203.045 128.432 196.508 128.406 187.492C128.394 183.235 132.323 179.805 137.156 179.805C140.235 179.805 142.972 181.187 144.531 183.305C143.88 177.175 142.132 170.323 135.75 169.023H145.906H156.063C149.681 170.323 147.933 177.175 147.281 183.305C148.841 181.187 151.577 179.805 154.656 179.805C159.49 179.805 163.418 183.235 163.406 187.492C163.381 196.508 149.871 203.045 145.906 210.18Z" fill="black" />
    <path d="M59.4297 210.18C55.4654 203.045 41.9553 196.508 41.9297 187.492C41.9176 183.235 45.8461 179.805 50.6797 179.805C53.7589 179.805 56.495 181.187 58.0547 183.305C57.4031 177.175 55.6554 170.323 49.2735 169.023H59.4297H69.586C63.2041 170.323 61.4563 177.175 60.8047 183.305C62.3644 181.187 65.1005 179.805 68.1797 179.805C73.0133 179.805 76.9418 183.235 76.9297 187.492C76.9041 196.508 63.3941 203.045 59.4297 210.18Z" fill="black" />
    <path d="M147.398 92.7969C143.434 99.9318 129.924 106.468 129.898 115.484C129.886 119.742 133.815 123.172 138.648 123.172C141.728 123.172 144.464 121.79 146.023 119.672C145.372 125.802 143.624 132.653 137.242 133.953H147.398H157.555C151.173 132.653 149.425 125.802 148.773 119.672C150.333 121.79 153.069 123.172 156.148 123.172C160.982 123.172 164.911 119.742 164.898 115.484C164.873 106.468 151.363 99.9318 147.398 92.7969Z" fill="black" />
    <path d="M59.4297 92.7969C55.4654 99.9318 41.9553 106.468 41.9297 115.484C41.9176 119.742 45.8461 123.172 50.6797 123.172C53.7589 123.172 56.495 121.79 58.0547 119.672C57.4031 125.802 55.6554 132.653 49.2735 133.953H59.4297H69.586C63.2041 132.653 61.4563 125.802 60.8047 119.672C62.3644 121.79 65.1005 123.172 68.1797 123.172C73.0133 123.172 76.9418 119.742 76.9297 115.484C76.9041 106.468 63.3941 99.9318 59.4297 92.7969Z" fill="black" />
    <path d="M104 54.6797C100.036 61.8146 86.5256 68.351 86.5 77.3672C86.4879 81.6245 90.4165 85.0547 95.25 85.0547C98.3292 85.0547 101.065 83.6728 102.625 81.5547C101.973 87.6849 100.226 94.536 93.8438 95.8359H104H114.156C107.774 94.536 106.027 87.6849 105.375 81.5547C106.935 83.6728 109.671 85.0547 112.75 85.0547C117.584 85.0547 121.512 81.6245 121.5 77.3672C121.474 68.351 107.964 61.8146 104 54.6797Z" fill="black" />
    <path d="M147.398 16.5625C143.434 23.6974 129.924 30.2338 129.898 39.25C129.886 43.5073 133.815 46.9375 138.648 46.9375C141.728 46.9375 144.464 45.5556 146.023 43.4375C145.372 49.5677 143.624 56.4188 137.242 57.7187H147.398H157.555C151.173 56.4188 149.425 49.5677 148.773 43.4375C150.333 45.5556 153.069 46.9375 156.148 46.9375C160.982 46.9375 164.911 43.5073 164.898 39.25C164.873 30.2338 151.363 23.6974 147.398 16.5625Z" fill="black" />
  </g>
  <defs>
    <clipPath id="clip0_872_3616">
      <rect width="208" height="303" fill="white" />
    </clipPath>
  </defs>
</svg>
