<svg width="209" height="303" viewBox="0 0 209 303" fill="none" xmlns="http://www.w3.org/2000/svg">
  <g clip-path="url(#clip0_872_6)">
    <path d="M208.19 294.112C208.19 298.832 204.348 302.69 199.638 302.69H9.35393C4.65407 302.69 0.8125 298.832 0.8125 294.112V8.89073C0.8125 4.17728 4.65407 0.3125 9.35393 0.3125H199.638C204.348 0.3125 208.19 4.17728 208.19 8.89073V294.112Z" fill="white" stroke="black" stroke-width="0.622432" />
    <path d="M22.3369 23.5227C22.0354 24.0539 21.7048 24.4527 21.3437 24.7183C20.9826 24.9839 20.5912 25.1165 20.1706 25.1165C19.1579 25.1165 18.358 24.4466 17.7708 23.1063C17.1836 21.7666 16.8906 19.917 16.8906 17.5579C16.8906 15.0688 17.2176 13.1517 17.8705 11.8065C18.5233 10.4619 19.4582 9.78906 20.6751 9.78906C22.0512 9.78906 23.0943 10.7172 23.8018 12.5724C24.5118 14.4281 24.8655 17.1458 24.8655 20.726C24.8655 24.8083 24.4729 27.8894 23.6875 29.9701C22.9034 32.0514 21.7364 33.0914 20.1876 33.0914C19.7852 33.0914 19.3524 33.0166 18.8904 32.8677C18.4273 32.7182 17.93 32.4951 17.3964 32.1966V28.2286H18.2133C18.3336 29.251 18.5488 30.0254 18.86 30.5518C19.1713 31.0782 19.5724 31.3408 20.0648 31.3408C20.8574 31.3408 21.4312 30.7269 21.7874 29.499C22.1436 28.2712 22.326 26.2793 22.3369 23.5227ZM20.8392 11.5397C20.3687 11.5397 20.0344 11.9797 19.835 12.8587C19.6356 13.7382 19.536 15.2633 19.536 17.4333C19.536 19.6039 19.6356 21.129 19.835 22.0079C20.0344 22.8875 20.3687 23.327 20.8392 23.327C21.3097 23.327 21.644 22.8875 21.8433 22.0079C22.0427 21.129 22.1424 19.6039 22.1424 17.4333C22.1424 15.2633 22.0427 13.7382 21.8433 12.8587C21.644 11.9797 21.3097 11.5397 20.8392 11.5397Z" fill="black" />
    <path d="M186.661 279.476C186.963 278.944 187.294 278.545 187.656 278.28C188.016 278.015 188.407 277.881 188.828 277.881C189.842 277.881 190.642 278.552 191.228 279.892C191.816 281.232 192.108 283.082 192.108 285.44C192.108 287.93 191.782 289.846 191.128 291.192C190.476 292.536 189.54 293.209 188.325 293.209C186.948 293.209 185.905 292.281 185.195 290.426C184.488 288.569 184.133 285.852 184.133 282.272C184.133 278.19 184.527 275.109 185.31 273.028C186.095 270.947 187.262 269.906 188.811 269.906C189.214 269.906 189.645 269.982 190.109 270.13C190.571 270.281 191.07 270.503 191.602 270.801V274.769H190.785C190.666 273.748 190.45 272.972 190.138 272.447C189.827 271.919 189.426 271.657 188.935 271.657C188.142 271.657 187.568 272.272 187.211 273.5C186.856 274.728 186.671 276.719 186.661 279.476ZM188.159 291.458C188.631 291.458 188.964 291.018 189.163 290.14C189.363 289.26 189.462 287.736 189.462 285.564C189.462 283.394 189.363 281.869 189.163 280.991C188.964 280.111 188.631 279.671 188.159 279.671C187.69 279.671 187.354 280.111 187.155 280.991C186.956 281.869 186.856 283.394 186.856 285.564C186.856 287.736 186.956 289.26 187.155 290.14C187.354 291.018 187.69 291.458 188.159 291.458Z" fill="black" />
    <path d="M59.9297 16.5625C55.9654 23.6974 42.4553 30.2338 42.4297 39.25C42.4176 43.5073 46.3461 46.9375 51.1797 46.9375C54.2589 46.9375 56.995 45.5556 58.5547 43.4375C57.9031 49.5677 56.1554 56.4188 49.7735 57.7187H59.9297H70.086C63.7041 56.4188 61.9563 49.5677 61.3047 43.4375C62.8644 45.5556 65.6005 46.9375 68.6797 46.9375C73.5133 46.9375 77.4418 43.5073 77.4297 39.25C77.4041 30.2338 63.8941 23.6974 59.9297 16.5625Z" fill="black" />
    <path d="M20.8853 36.9609C19.6936 39.1056 15.6363 41.0704 15.625 43.7805C15.625 45.0602 16.8022 46.0912 18.2551 46.0912C19.1807 46.0912 20.0031 45.6759 20.472 45.0392C20.2761 46.8818 19.7507 48.9412 17.8324 49.3319H20.8853H23.9381C22.0198 48.9412 21.4944 46.8818 21.2986 45.0392C21.7674 45.6759 22.5898 46.0912 23.5154 46.0912C24.9683 46.0912 26.1455 45.0602 26.1455 43.7805C26.1342 41.0704 22.0769 39.1056 20.8853 36.9609Z" fill="black" />
    <path d="M188.12 265.664C186.928 263.519 182.871 261.555 182.859 258.845C182.859 257.565 184.037 256.534 185.49 256.534C186.415 256.534 187.238 256.949 187.706 257.586C187.51 255.743 186.985 253.684 185.067 253.293H188.12H191.172C189.254 253.684 188.729 255.743 188.533 257.586C189.002 256.949 189.824 256.534 190.75 256.534C192.203 256.534 193.38 257.565 193.38 258.845C193.369 261.555 189.311 263.519 188.12 265.664Z" fill="black" />
    <path d="M147.898 286.406C143.934 279.271 130.424 272.735 130.398 263.719C130.386 259.461 134.315 256.031 139.148 256.031C142.228 256.031 144.964 257.413 146.523 259.531C145.872 253.401 144.124 246.55 137.742 245.25H147.898H158.055C151.673 246.55 149.925 253.401 149.273 259.531C150.833 257.413 153.569 256.031 156.648 256.031C161.482 256.031 165.411 259.461 165.398 263.719C165.373 272.735 151.863 279.271 147.898 286.406Z" fill="black" />
    <path d="M59.9297 286.406C55.9654 279.271 42.4553 272.735 42.4297 263.719C42.4176 259.461 46.3461 256.031 51.1797 256.031C54.2589 256.031 56.995 257.413 58.5547 259.531C57.9031 253.401 56.1554 246.55 49.7735 245.25H59.9297H70.086C63.7041 246.55 61.9563 253.401 61.3047 259.531C62.8644 257.413 65.6005 256.031 68.6797 256.031C73.5133 256.031 77.4418 259.461 77.4297 263.719C77.4041 272.735 63.8941 279.271 59.9297 286.406Z" fill="black" />
    <path d="M146.406 210.18C142.442 203.045 128.932 196.508 128.906 187.492C128.894 183.235 132.823 179.805 137.656 179.805C140.735 179.805 143.472 181.187 145.031 183.305C144.38 177.175 142.632 170.323 136.25 169.023H146.406H156.563C150.181 170.323 148.433 177.175 147.781 183.305C149.341 181.187 152.077 179.805 155.156 179.805C159.99 179.805 163.918 183.235 163.906 187.492C163.881 196.508 150.371 203.045 146.406 210.18Z" fill="black" />
    <path d="M59.9297 210.18C55.9654 203.045 42.4553 196.508 42.4297 187.492C42.4176 183.235 46.3461 179.805 51.1797 179.805C54.2589 179.805 56.995 181.187 58.5547 183.305C57.9031 177.175 56.1554 170.323 49.7735 169.023H59.9297H70.086C63.7041 170.323 61.9563 177.175 61.3047 183.305C62.8644 181.187 65.6005 179.805 68.6797 179.805C73.5133 179.805 77.4418 183.235 77.4297 187.492C77.4041 196.508 63.8941 203.045 59.9297 210.18Z" fill="black" />
    <path d="M104.5 130.922C100.536 138.057 87.0256 144.593 87 153.609C86.9879 157.867 90.9164 161.297 95.75 161.297C98.8292 161.297 101.565 159.915 103.125 157.797C102.473 163.927 100.726 170.778 94.3438 172.078H104.5H114.656C108.274 170.778 106.527 163.927 105.875 157.797C107.435 159.915 110.171 161.297 113.25 161.297C118.084 161.297 122.012 157.867 122 153.609C121.974 144.593 108.464 138.057 104.5 130.922Z" fill="black" />
    <path d="M147.898 92.7969C143.934 99.9318 130.424 106.468 130.398 115.484C130.386 119.742 134.315 123.172 139.148 123.172C142.228 123.172 144.964 121.79 146.523 119.672C145.872 125.802 144.124 132.653 137.742 133.953H147.898H158.055C151.673 132.653 149.925 125.802 149.273 119.672C150.833 121.79 153.569 123.172 156.648 123.172C161.482 123.172 165.411 119.742 165.398 115.484C165.373 106.468 151.863 99.9318 147.898 92.7969Z" fill="black" />
    <path d="M59.9297 92.7969C55.9654 99.9318 42.4553 106.468 42.4297 115.484C42.4176 119.742 46.3461 123.172 51.1797 123.172C54.2589 123.172 56.995 121.79 58.5547 119.672C57.9031 125.802 56.1554 132.653 49.7735 133.953H59.9297H70.086C63.7041 132.653 61.9563 125.802 61.3047 119.672C62.8644 121.79 65.6005 123.172 68.6797 123.172C73.5133 123.172 77.4418 119.742 77.4297 115.484C77.4041 106.468 63.8941 99.9318 59.9297 92.7969Z" fill="black" />
    <path d="M147.898 16.5625C143.934 23.6974 130.424 30.2338 130.398 39.25C130.386 43.5073 134.315 46.9375 139.148 46.9375C142.228 46.9375 144.964 45.5556 146.523 43.4375C145.872 49.5677 144.124 56.4188 137.742 57.7187H147.898H158.055C151.673 56.4188 149.925 49.5677 149.273 43.4375C150.833 45.5556 153.569 46.9375 156.648 46.9375C161.482 46.9375 165.411 43.5073 165.398 39.25C165.373 30.2338 151.863 23.6974 147.898 16.5625Z" fill="black" />
  </g>
  <defs>
    <clipPath id="clip0_872_6">
      <rect width="208" height="303" fill="white" transform="translate(0.5)" />
    </clipPath>
  </defs>
</svg>
