<svg width="209" height="303" viewBox="0 0 209 303" fill="none" xmlns="http://www.w3.org/2000/svg">
  <g clip-path="url(#clip0_872_54)">
    <path d="M208.19 294.112C208.19 298.832 204.348 302.69 199.638 302.69H9.35392C4.65407 302.69 0.8125 298.832 0.8125 294.112V8.89073C0.8125 4.17728 4.65407 0.3125 9.35392 0.3125H199.638C204.348 0.3125 208.19 4.17728 208.19 8.89073V294.112Z" fill="white" stroke="black" stroke-width="0.622432" />
    <path d="M19.4193 19.328C19.7189 18.8064 20.0466 18.4156 20.4015 18.1548C20.7565 17.8947 21.1492 17.764 21.5795 17.764C22.5995 17.764 23.4025 18.4369 23.9878 19.7814C24.5726 21.1266 24.8655 22.9738 24.8655 25.3225C24.8655 27.8019 24.5343 29.7166 23.8723 31.0666C23.2098 32.4167 22.2719 33.0914 21.0586 33.0914C19.694 33.0914 18.6582 32.1662 17.9513 30.316C17.2438 28.4657 16.8906 25.7456 16.8906 22.155C16.8906 18.0734 17.2809 14.9922 18.0613 12.9109C18.8418 10.8297 20.0022 9.78906 21.5437 9.78906C21.9436 9.78906 22.374 9.86383 22.8347 10.0127C23.2949 10.1623 23.7903 10.386 24.3209 10.6838V14.6518H23.504C23.3946 13.6294 23.183 12.8556 22.87 12.3292C22.5569 11.8029 22.157 11.5397 21.6701 11.5397C20.8848 11.5397 20.3158 12.1511 19.9633 13.3741C19.6107 14.5971 19.429 16.5817 19.4193 19.328ZM20.8975 31.3408C21.3607 31.3408 21.6902 30.9013 21.8865 30.0218C22.0828 29.1428 22.1813 27.6177 22.1813 25.4471C22.1813 23.2771 22.0828 21.752 21.8865 20.8725C21.6902 19.9935 21.3607 19.5535 20.8975 19.5535C20.4344 19.5535 20.1043 19.9935 19.908 20.8725C19.7116 21.752 19.6138 23.2771 19.6138 25.4471C19.6138 27.6177 19.7116 29.1428 19.908 30.0218C20.1043 30.9013 20.4344 31.3408 20.8975 31.3408Z" fill="black" />
    <path d="M189.579 283.67C189.279 284.192 188.952 284.582 188.597 284.843C188.242 285.104 187.848 285.234 187.418 285.234C186.399 285.234 185.595 284.561 185.011 283.217C184.425 281.871 184.133 280.024 184.133 277.676C184.133 275.197 184.463 273.281 185.125 271.932C185.789 270.582 186.726 269.906 187.939 269.906C189.304 269.906 190.34 270.833 191.046 272.683C191.754 274.533 192.108 277.253 192.108 280.843C192.108 284.925 191.716 288.005 190.936 290.087C190.155 292.168 188.996 293.209 187.454 293.209C187.054 293.209 186.624 293.134 186.163 292.985C185.703 292.837 185.207 292.613 184.677 292.314V288.346H185.494C185.604 289.369 185.815 290.143 186.128 290.669C186.44 291.195 186.841 291.458 187.328 291.458C188.113 291.458 188.682 290.848 189.034 289.625C189.387 288.402 189.569 286.417 189.579 283.67ZM188.101 271.657C187.636 271.657 187.308 272.097 187.111 272.977C186.914 273.855 186.817 275.38 186.817 277.55C186.817 279.722 186.914 281.246 187.111 282.126C187.308 283.004 187.636 283.444 188.101 283.444C188.563 283.444 188.893 283.004 189.09 282.126C189.286 281.246 189.385 279.722 189.385 277.55C189.385 275.38 189.286 273.855 189.09 272.977C188.893 272.097 188.563 271.657 188.101 271.657Z" fill="black" />
    <path d="M70.0952 57.7286C65.7649 57.7335 63.4867 53.1151 62.2905 48.4967C61.0942 43.8771 60.9824 39.2563 60.9824 39.2563L58.7722 39.2344C58.7722 39.2344 58.3565 57.7165 49.6953 57.725L70.0952 57.7286Z" fill="black" />
    <path d="M77.427 39.2521C77.3893 30.236 63.8915 23.6974 59.9271 16.5625C55.9658 23.6974 42.468 30.236 42.4297 39.2521C42.4121 43.5094 46.3473 46.9571 51.1797 46.9571C56.0108 46.9571 59.9271 43.5094 59.9271 39.2521C59.9271 43.5094 63.8465 46.9571 68.6777 46.9571C73.5112 46.9571 77.427 43.5094 77.427 39.2521Z" fill="black" />
    <path d="M24.0865 49.6278C22.7231 49.6297 22.0059 48.1751 21.629 46.7211C21.2528 45.2666 21.2169 43.812 21.2169 43.812L20.5215 43.8047C20.5215 43.8047 20.3909 49.6242 17.6641 49.6266L24.0865 49.6278Z" fill="black" />
    <path d="M26.394 43.8081C26.3819 40.9694 22.1318 38.9107 20.8839 36.6641C19.6366 38.9107 15.3872 40.9694 15.375 43.8081C15.3695 45.1483 16.6083 46.234 18.1298 46.234C19.6512 46.234 20.8839 45.1483 20.8839 43.8081C20.8839 45.1483 22.1178 46.234 23.6393 46.234C25.1607 46.234 26.394 45.1483 26.394 43.8081Z" fill="black" />
    <path d="M184.914 252.992C186.277 252.99 186.995 254.445 187.371 255.899C187.747 257.354 187.783 258.808 187.783 258.808L188.478 258.815C188.478 258.815 188.61 252.996 191.335 252.993L184.914 252.992Z" fill="black" />
    <path d="M182.609 258.808C182.622 261.647 186.87 263.706 188.119 265.953C189.366 263.706 193.615 261.647 193.627 258.808C193.633 257.467 192.393 256.383 190.872 256.383C189.352 256.383 188.119 257.467 188.119 258.808C188.119 257.467 186.884 256.383 185.364 256.383C183.842 256.383 182.609 257.467 182.609 258.808Z" fill="black" />
    <path d="M158.072 245.248C153.741 245.243 151.463 249.861 150.267 254.48C149.071 259.099 148.959 263.72 148.959 263.72L146.749 263.742C146.749 263.742 146.333 245.26 137.672 245.252L158.072 245.248Z" fill="black" />
    <path d="M165.404 263.724C165.366 272.741 151.868 279.279 147.904 286.414C143.942 279.279 130.445 272.741 130.406 263.724C130.389 259.467 134.324 256.019 139.156 256.019C143.987 256.019 147.904 259.467 147.904 263.724C147.904 259.467 151.823 256.019 156.654 256.019C161.488 256.019 165.404 259.467 165.404 263.724Z" fill="black" />
    <path d="M70.0952 245.248C65.7649 245.243 63.4867 249.861 62.2905 254.48C61.0942 259.099 60.9824 263.72 60.9824 263.72L58.7722 263.742C58.7722 263.742 58.3565 245.26 49.6953 245.252L70.0952 245.248Z" fill="black" />
    <path d="M77.427 263.724C77.3893 272.741 63.8915 279.279 59.9271 286.414C55.9658 279.279 42.468 272.741 42.4297 263.724C42.4121 259.467 46.3473 256.019 51.1797 256.019C56.0108 256.019 59.9271 259.467 59.9271 263.724C59.9271 259.467 63.8465 256.019 68.6777 256.019C73.5112 256.019 77.427 259.467 77.427 263.724Z" fill="black" />
    <path d="M158.072 57.7286C153.741 57.7335 151.463 53.1151 150.267 48.4967C149.071 43.8771 148.959 39.2563 148.959 39.2563L146.749 39.2344C146.749 39.2344 146.333 57.7165 137.672 57.725L158.072 57.7286Z" fill="black" />
    <path d="M165.404 39.2521C165.366 30.236 151.868 23.6974 147.904 16.5625C143.942 23.6974 130.445 30.236 130.406 39.2521C130.389 43.5094 134.324 46.9571 139.156 46.9571C143.987 46.9571 147.904 43.5094 147.904 39.2521C147.904 43.5094 151.823 46.9571 156.654 46.9571C161.488 46.9571 165.404 43.5094 165.404 39.2521Z" fill="black" />
    <path d="M70.0952 172.08C65.7649 172.085 63.4867 167.467 62.2905 162.848C61.0942 158.229 60.9824 153.608 60.9824 153.608L58.7722 153.586C58.7722 153.586 58.3565 172.068 49.6953 172.077L70.0952 172.08Z" fill="black" />
    <path d="M77.427 153.604C77.3893 144.588 63.8915 138.049 59.9271 130.914C55.9658 138.049 42.468 144.588 42.4297 153.604C42.4121 157.861 46.3473 161.309 51.1797 161.309C56.0108 161.309 59.9271 157.861 59.9271 153.604C59.9271 157.861 63.8465 161.309 68.6777 161.309C73.5112 161.309 77.427 157.861 77.427 153.604Z" fill="black" />
    <path d="M158.072 172.08C153.741 172.085 151.463 167.467 150.267 162.848C149.071 158.229 148.959 153.608 148.959 153.608L146.749 153.586C146.749 153.586 146.333 172.068 137.672 172.077L158.072 172.08Z" fill="black" />
    <path d="M165.404 153.604C165.366 144.588 151.868 138.049 147.904 130.914C143.942 138.049 130.445 144.588 130.406 153.604C130.389 157.861 134.324 161.309 139.156 161.309C143.987 161.309 147.904 157.861 147.904 153.604C147.904 157.861 151.823 161.309 156.654 161.309C161.488 161.309 165.404 157.861 165.404 153.604Z" fill="black" />
  </g>
  <defs>
    <clipPath id="clip0_872_54">
      <rect width="208" height="303" fill="white" transform="translate(0.5)" />
    </clipPath>
  </defs>
</svg>
