<svg width="208" height="303" viewBox="0 0 208 303" fill="none" xmlns="http://www.w3.org/2000/svg">
  <g clip-path="url(#clip0_872_2068)">
    <path d="M207.689 294.109C207.689 298.825 203.847 302.688 199.138 302.688H8.85354C4.15541 302.688 0.3125 298.825 0.3125 294.109V8.88927C0.3125 4.17323 4.15541 0.3125 8.85354 0.3125H199.138C203.847 0.3125 207.689 4.17323 207.689 8.88927V294.109Z" fill="white" stroke="black" stroke-width="0.5" />
    <path d="M194.475 264.74V268.291H193.619C193.596 267.352 193.502 266.659 193.333 266.221C193.162 265.779 192.904 265.561 192.564 265.561C192.131 265.561 191.829 265.934 191.657 266.682C191.485 267.429 191.402 268.831 191.402 270.886V290.844H192.881V292.678H187.512V290.844H188.795V270.766C188.795 268.323 189.068 266.54 189.614 265.413C190.159 264.29 191.035 263.725 192.235 263.725C192.607 263.725 192.976 263.81 193.346 263.979C193.718 264.15 194.093 264.404 194.475 264.74ZM181.012 269.735C182.698 269.735 184.018 270.772 184.976 272.844C185.933 274.915 186.412 277.772 186.412 281.413C186.412 285.054 185.932 287.912 184.976 289.99C184.02 292.068 182.698 293.106 181.012 293.106C179.318 293.106 177.992 292.07 177.035 289.997C176.076 287.927 175.598 285.064 175.598 281.413C175.598 277.772 176.08 274.914 177.042 272.844C178.004 270.771 179.328 269.735 181.012 269.735ZM181.012 271.569C180.152 271.569 179.513 272.378 179.099 273.995C178.684 275.615 178.476 278.087 178.476 281.413C178.476 284.749 178.684 287.227 179.099 288.846C179.513 290.463 180.152 291.272 181.012 291.272C181.864 291.272 182.495 290.456 182.91 288.821C183.326 287.189 183.533 284.72 183.533 281.412C183.533 278.114 183.326 275.65 182.91 274.018C182.496 272.386 181.864 271.569 181.012 271.569ZM174.358 270.164V271.999H173.075V290.845H174.358V292.679H169.223V290.845H170.507V282.634L166.259 290.845H167.328V292.679H163.596V290.845H164.936L168.532 283.899L163.629 271.999H162.649V270.164H166.046L170.508 281.097V271.999H169.224V270.164H174.358ZM162.408 270.164V271.999H161.124V290.845H162.408V292.679H153.421V287.373H154.354V290.612H158.556V283.393H155.949V286.242H155.015V278.476H155.949V281.325H158.556V272.233H154.237V275.472H153.304V270.166L162.408 270.164ZM145.245 281.143C144.855 281.014 144.524 280.719 144.25 280.258C143.976 279.797 143.739 279.132 143.54 278.26L142.089 271.997H141.051V270.163H144.347L145.957 276.964C146.273 278.369 146.539 279.263 146.757 279.649C146.975 280.035 147.275 280.229 147.66 280.229H148.078V271.996H146.794V270.162H151.929V271.996H150.646V290.843H151.929V292.677H146.206C145.038 292.677 144.138 292.15 143.504 291.099C142.871 290.047 142.553 288.555 142.553 286.624C142.553 285.053 142.78 283.812 143.227 282.903C143.676 281.993 144.347 281.407 145.245 281.143ZM148.077 282.026H147.196C146.562 282.026 146.071 282.41 145.72 283.175C145.373 283.938 145.197 285.03 145.197 286.45C145.197 287.87 145.371 288.959 145.72 289.713C146.069 290.467 146.562 290.844 147.196 290.844H148.077V282.026ZM12.8516 37.6239V34.0729H13.708C13.7292 35.0131 13.8238 35.7048 13.9931 36.1431C14.1649 36.5851 14.4213 36.8036 14.7637 36.8036C15.1956 36.8036 15.4969 36.4303 15.6687 35.6836C15.8405 34.9369 15.9251 33.5335 15.9251 31.4782V11.5191H14.4462V9.68609H19.8154V11.5203H18.5319V31.5994C18.5319 34.0417 18.2593 35.8247 17.714 36.9509C17.1688 38.076 16.2936 38.6391 15.0911 38.6391C14.7214 38.6391 14.3504 38.5542 13.9794 38.3856C13.6084 38.217 13.2325 37.9611 12.8516 37.6239ZM26.3136 32.6295C24.628 32.6295 23.3072 31.5931 22.3499 29.5217C21.3926 27.4502 20.9133 24.5934 20.9133 20.9511C20.9133 17.3102 21.3926 14.4521 22.3499 12.3744C23.3072 10.2967 24.628 9.25781 26.3136 9.25781C28.0078 9.25781 29.3349 10.2942 30.2922 12.3669C31.2495 14.4383 31.7275 17.3002 31.7275 20.9511C31.7275 24.5934 31.2457 27.4502 30.2834 29.5217C29.3212 31.5931 27.9979 32.6295 26.3136 32.6295ZM26.3136 30.7952C27.1738 30.7952 27.8124 29.9861 28.2269 28.3692C28.6415 26.7497 28.8494 24.2775 28.8494 20.9511C28.8494 17.6148 28.6415 15.1376 28.2269 13.5194C27.8124 11.9011 27.1738 11.092 26.3136 11.092C25.4621 11.092 24.8297 11.9086 24.4151 13.5431C24.0006 15.1763 23.7927 17.6448 23.7927 20.9524C23.7927 24.25 24.0006 26.7148 24.4151 28.348C24.8297 29.9811 25.4621 30.7952 26.3136 30.7952ZM32.9686 32.1999V30.3657H34.2521V11.5191H32.9686V9.68609H38.1037V11.5203H36.8203V19.7312L41.0677 11.5203H39.9996V9.68609H43.7305V11.5203H42.3923L38.7959 18.4664L43.6994 30.367H44.6779V32.2012H41.2819L36.819 21.2683V30.367H38.1025V32.2012L32.9686 32.1999ZM44.9181 32.1999V30.3657H46.2016V11.5191H44.9181V9.68609H53.9048V14.9927H52.9712V11.7538H48.7697V18.9721H51.3765V16.124H52.3101V23.8891H51.3765V21.041H48.7697V30.1322H53.0882V26.8933H54.0218V32.1999H44.9181ZM62.0811 21.2208C62.4707 21.3507 62.8019 21.6454 63.0758 22.1061C63.3496 22.5668 63.5862 23.2324 63.7853 24.1051L65.2381 30.367H66.2763V32.2012H62.9787L61.369 25.4C61.0541 23.9953 60.7877 23.1 60.5698 22.7154C60.352 22.3271 60.0507 22.1348 59.6661 22.1348H59.2478V30.3682H60.5312V32.2024H55.3962V30.3657H56.6796V11.5191H55.3962V9.68609H61.1213C62.289 9.68609 63.189 10.213 63.8227 11.2643C64.4563 12.3157 64.7738 13.8078 64.7738 15.7406C64.7738 17.3114 64.5484 18.5513 64.1003 19.4615C63.6521 20.3718 62.9787 20.9586 62.0811 21.2208ZM59.249 20.3381H60.1292C60.7653 20.3381 61.257 19.9547 61.6056 19.1906C61.9541 18.4264 62.1284 17.3339 62.1284 15.9142C62.1284 14.4945 61.9541 13.407 61.6056 12.6528C61.257 11.8986 60.7653 11.5203 60.1292 11.5203H59.249V20.3381Z" fill="black" />
    <path d="M125.909 245.271L125.019 247.003L125.937 253.023L128.331 252.606L133.077 249.372L127.802 244.316L125.909 245.271ZM170.921 82.0342C168.6 78.2983 167.447 76.0483 167.69 74.5749C167.912 73.2339 169.508 71.5245 166.173 68.8662C164.195 67.2892 155.767 69.6529 161.549 76.6664C166.933 77.3431 166.215 76.1819 165.047 81.9505C156.962 90.2751 152.417 87.6255 144.912 85.7101C135.68 84.1481 133.664 89.848 129.601 86.2695C126.048 74.1579 131.804 78.8152 133.642 79.5594C137.795 77.7851 136.774 79.0575 137.849 74.1067C135.7 70.658 136.781 71.4858 133.35 70.5431C130.52 71.8642 131.535 70.9364 128.936 74.8621C122.784 77.5516 119.382 78.5867 120.023 89.6245C123.108 96.1835 122.66 94.5603 122.605 97.1337C117.702 104.79 119.052 101.626 116.481 110.766C113.101 113.697 113.811 112.272 113.607 116.803C112.605 119.323 106.611 115.557 106.858 122.929C97.3103 117.18 94.8641 119.686 81.6586 125.822C74.7085 127.684 77.1771 127.405 70.8295 127.248C69.9469 127.691 68.3696 127.217 75.2463 133.917C77.8157 133.758 76.5023 134.025 81.2017 132.618C82.0457 133.169 86.465 134.301 81.4519 139.328C78.9186 139.388 76.16 138.381 70.9602 147.618C70.2108 148.948 70.0128 150.676 69.4141 152.582C80.8581 150.471 77.924 151.497 82.9109 148.22C87.4173 138.253 90.4386 143.163 91.447 146.628C89.0519 150.768 90.6005 149.789 84.8243 150.611C79.79 155.632 81.4358 152.822 77.787 163.447C80.1959 165.735 87.9775 162.707 93.3653 158.957C93.9865 155.673 94.5616 151.092 100.945 153.966C102.04 156.955 102.181 155.659 100.237 159.419C93.613 161.398 94.4147 160.038 90.5532 172.296C90.5532 178.167 89.7166 177.206 93.7824 176.573C101.703 172.789 101.549 173.379 105.901 168.521C103.373 157.601 111.69 161.184 111.816 161.223C113.423 163.811 115.052 164.563 107.36 168.647C107.554 182.192 107.226 179.312 108.443 182.989C110.279 183.487 111.289 185.441 120.522 173.512C120.445 166.562 119.867 164.809 125.395 164.494C130.604 167.635 125.968 170.762 123.436 172.755C123.697 176.738 123.471 182.235 126.769 184.164C135.217 176.967 133.323 179.048 135.685 174.769C134.238 170.021 132.378 167.437 137.975 165.627C142.036 168.931 141.867 167.884 139.265 174.099C141.567 182.001 140.284 179.399 144.639 185.633C145.071 185.623 148.37 186.951 150.552 174.728C147.781 170.16 148.062 170.584 149.928 167.597C152.736 167.547 151.874 167.021 153.511 169.905C151.888 175.22 150.987 179.098 163.548 185.005C164.983 183.823 165.105 187.536 155.177 162.692C154.176 153.428 154.613 156.579 153.301 148.767C149.16 142.059 151.461 144.405 142.765 138.617C142.863 129.761 142.631 132.377 143.68 126.83C153.36 120.223 152.089 120.274 158.05 124.691C160.217 130.315 160.322 129.623 157.216 129.683C154.251 131.36 155.042 130.212 153.969 134.592C157.207 140.265 158.635 138.833 161.589 137.569C163.84 131.744 160.582 133.295 163.714 128.846C166.647 119.524 159.264 116.989 162.437 109.346C165.482 105.418 167.182 103.348 168.755 101.5C173.497 90.6521 171.78 86.7265 170.921 82.0342ZM145.917 115.836C136.087 122.135 139.662 120.743 130.248 122.406L124.27 121.167L121.46 117.142C121.684 108.184 120.863 111.422 124.666 102.945L128.686 96.9677L135.203 93.3217C135.203 93.3217 137.188 93.1007 137.979 92.9808L141.812 92.7261L144.534 94.9099C143.848 98.7931 143.906 97.7967 144.186 99.4949C148.188 99.8695 146.62 99.4299 151.084 101.603L151.638 105.13C149.662 111.793 150.899 109.335 145.917 115.836Z" fill="#E6180A" />
    <path d="M144.316 85.4436L144.798 86.013L136.674 93.3212L136.193 92.7505L144.316 85.4436ZM67.021 131.384L70.7033 132.219L73.2952 136.658L70.4419 150.497L63.0287 164.388L51.6706 176.138H41.6631L40.0547 173.943L52.8109 162.351L63.0287 145.536L67.021 131.384ZM132.243 184.553L133.844 183.343L138.444 182.202L139.912 183.544L142.378 192.945L143.246 198.045L142.578 207.579L138.778 223.09L135.977 229.936L131.443 235.845L125.908 239.671L126.308 236.986L130.976 229.265L133.71 221.141L136.175 210.197L137.042 202.409L135.842 193.681L132.375 187.437L132.243 184.553ZM97.3298 58.0452L101.988 58.4547L104.551 64.3132L102.589 68.5785L96.146 67.7819L95.1102 61.7336L97.3298 58.0452ZM111.836 52.1604L115.664 50.2812L117.192 50.8157L117.742 52.806V54.6701L116.658 57.8129L112.886 61.2279L106.265 62.7512L105.79 60.912L108.146 60.1716L111.374 56.9888L111.836 52.1604Z" fill="#E6180A" />
    <path d="M66.245 54.7955C66.245 56.2751 65.1233 57.4738 63.7391 57.4738C62.3548 57.4738 61.2344 56.2751 61.2344 54.7955C61.2344 53.3159 62.3548 52.1172 63.7391 52.1172C65.1233 52.1172 66.245 53.3159 66.245 54.7955Z" fill="#FF009C" />
    <path d="M72.0988 68.3754C72.0988 69.7489 70.9311 70.8614 69.4908 70.8614C68.0505 70.8614 66.8828 69.7476 66.8828 68.3754C66.8828 67.0031 68.0505 65.8906 69.4908 65.8906C70.9311 65.8906 72.0988 67.0019 72.0988 68.3754Z" fill="#00FF0A" />
    <path d="M85.1801 88.669C85.1801 90.0999 83.9128 91.2611 82.3518 91.2611C80.7882 91.2611 79.5234 90.0999 79.5234 88.669C79.5234 87.2381 80.7895 86.0781 82.3518 86.0781C83.9128 86.0781 85.1801 87.2368 85.1801 88.669Z" fill="#FF9E00" />
    <path d="M95.6684 95.6434C95.6684 97.2204 94.4273 98.4977 92.8973 98.4977C91.3674 98.4977 90.125 97.2204 90.125 95.6434C90.125 94.0664 91.3661 92.7891 92.8973 92.7891C94.4273 92.7891 95.6684 94.0664 95.6684 95.6434Z" fill="#0072FF" />
    <path d="M106.734 99.1634C106.734 100.903 105.475 102.311 103.926 102.311C102.374 102.311 101.117 100.901 101.117 99.1634C101.117 97.4253 102.374 96.0156 103.926 96.0156C105.477 96.0169 106.734 97.4253 106.734 99.1634Z" fill="#FFFF00" />
    <path d="M77.7178 80.0985C78.1236 80.769 77.7489 81.7391 76.88 82.2686C76.0123 82.798 74.9778 82.6831 74.572 82.0138C74.1662 81.3433 74.5409 80.3732 75.4086 79.8437C76.2775 79.3143 77.3107 79.4292 77.7178 80.0985ZM84.4475 75.5934C84.4475 76.219 84.0106 76.7247 83.4728 76.7247C82.935 76.7247 82.4968 76.219 82.4968 75.5934C82.4968 74.9679 82.935 74.4609 83.4728 74.4609C84.0106 74.4609 84.4475 74.9679 84.4475 75.5934ZM70.6071 86.4365C70.7241 86.5701 70.632 86.841 70.3693 87.1407C70.1067 87.4403 69.7145 87.72 69.3485 87.8699C68.9838 88.0197 68.7049 88.0135 68.624 87.8536C68.507 87.72 68.5979 87.4491 68.8618 87.1494C69.1245 86.8497 69.5166 86.5688 69.8813 86.4202C70.2461 86.2716 70.5249 86.2779 70.6071 86.4365ZM49.8825 100.1L54.4749 95.8036L56.6185 97.9774L52.0274 102.273L49.8825 100.1ZM40.4502 107.176L47.1426 101.74L49.051 103.957L42.3586 109.395L40.4502 107.176ZM38.3401 110.836C38.5642 111.088 38.5804 111.488 38.3837 111.876C38.187 112.264 37.8098 112.576 37.4002 112.687C36.9919 112.8 36.6185 112.695 36.4292 112.413C36.2064 112.161 36.1902 111.761 36.3869 111.373C36.5824 110.984 36.9608 110.672 37.3691 110.561C37.7774 110.45 38.1509 110.554 38.3401 110.836ZM37.6542 181.278L39.4219 180.639L41.9751 182.008L44.2831 184.176L44.308 186.476L39.3771 189.058L36.906 187.407L37.1513 182.467L37.6542 181.278ZM64.2881 107.297C62.3798 132.684 61.5407 127.831 65.9762 133.011C61.781 149.226 63.5972 146.272 58.3501 148.664C46.3633 144.118 48.4833 145.951 47.8746 140.79C52.5553 117.759 50.5336 125.32 56.3222 108.804C57.5783 106.755 62.4121 104.443 64.2881 107.297ZM110.496 199.972L126.106 196.371L130.153 194.626L133.097 194.343L133.866 195.772L133.936 202.829L132.692 204.011L110.653 205.756L108.395 205.351L108.238 202.333L110.496 199.972Z" fill="#E6180A" />
    <path d="M141.392 105.195L145.009 107.147L147.902 109.322C147.721 105.985 144.373 104.31 141.392 105.195ZM139.464 107.867H138.258C138.487 111.055 142.706 113.036 145.492 113.451C145.487 111.871 145.418 109.134 144.218 107.969C143.047 106.834 139.85 105.493 139.464 107.867ZM139.92 108.04C140.118 107.679 141.228 106.432 142.482 107.617C142.063 107.726 140.639 108.202 140.39 110.296C139.716 110.154 139.597 108.722 139.92 108.04ZM144.669 112.407C144.485 112.594 142.558 112.431 140.917 110.757C143.248 110.286 143.244 108.524 143.241 108.283C144.402 109.137 145.152 111.92 144.669 112.407Z" fill="black" />
    <path d="M144.287 99.3713C144.466 97.9578 145.282 96.171 144.77 94.7589C142.998 89.8605 134.307 93.0545 131.51 94.7077C124.724 98.7182 120.172 107.278 121.285 115.155C121.438 116.243 121.141 117.227 121.56 118.31C123.433 123.169 130.004 122.692 134.163 122.236C143.398 121.223 154.084 110.829 151.28 101.072C148.359 99.1228 146.416 99.3713 144.287 99.3713ZM131.414 97.597C131.877 97.1287 132.139 97.1237 133.408 97.8717C132.873 97.7943 131.519 98.5996 131.46 99.5286C131.46 99.5286 131.165 98.8855 131.123 98.5509C131.064 98.0902 130.902 98.1114 131.414 97.597ZM133.827 98.3761C135.395 100.177 136.156 106.718 131.664 100.155C132.349 100.385 133.776 99.6709 133.827 98.3761ZM147.968 112.238C140.078 122.893 121.872 126.745 121.865 114.181C121.861 109.473 123.054 106.241 125.552 102.286C132.063 91.9744 128.484 101.973 134.402 103.743L131.749 106.413C134.26 105.979 137.515 104.486 138.604 102.043C139.721 99.5373 137.416 95.2458 134.642 95.0023C135.274 97.2923 139.862 101.558 135.606 103.013C135.606 100.012 135.124 96.7904 131.507 96.7017C132.564 93.1669 141.631 91.9008 143.866 94.8425C144.999 96.3321 142.752 98.5347 144.152 99.7034C146.16 101.382 150.071 99.2651 151.14 103.013C152.068 106.256 149.77 109.806 147.968 112.238Z" fill="black" />
    <path d="M136.083 114.417C133.739 114.061 131.341 111.532 129.815 109.805C129.264 109.18 128.609 107.534 127.645 107.534C124.925 107.534 125.415 113.044 126.56 114.365C128.57 116.683 133.433 116.128 136.083 115.633L134.396 118.304C138.692 117.629 137.048 113.705 135.843 111.021C134.637 112.177 135.735 113.111 136.083 114.417ZM127.645 108.591L133.19 114.903C130.129 114.903 125.035 112.474 127.645 108.591ZM108.117 54.9367L109.081 56.6361C110.658 55.6659 109.804 54.1313 108.117 54.9367ZM124.269 109.561L127.162 105.678C125.152 105.813 123.781 107.54 124.269 109.561ZM135.36 110.29C135.239 108.708 133.825 108.105 132.467 107.618C132.227 109.237 133.913 110.132 135.36 110.29ZM112.215 128.498C113.662 134.762 120.885 138.012 126.44 139.365C128.614 139.894 132.309 140.299 133.915 138.452C128.99 137.168 124.495 137.224 119.932 134.42C117.521 132.938 114.985 128.741 112.215 128.498ZM128.209 129.047C129.183 127.973 123.742 126.345 123.001 127.049C122.432 127.59 123.409 128.306 123.788 128.528C124.806 129.125 127.165 130.2 128.209 129.047Z" fill="black" />
    <path d="M170.884 80.9205C170.196 79.1487 168.652 77.7565 168.003 76.0771C167.675 75.228 168.552 74.2691 168.606 73.3951C168.795 70.3022 166.944 67.3667 163.569 67.6626C160.075 67.9698 157.685 72.2501 159.647 75.3367C160.925 77.3507 163.275 77.9313 165.497 77.5217C165.44 84.3417 157.843 88.0339 151.755 87.1274C148.261 86.6067 145.568 84.6514 141.871 84.8137C137.986 84.9847 132.578 87.5794 131.133 86.7466C127.875 84.8674 129.283 80.9754 129.574 78.2484C138.234 84.3729 141.22 71.9104 134.88 70.3509C133.035 69.8964 130.86 70.6369 129.731 72.1901C129.21 72.9081 129.18 74.0568 128.485 74.6224C127.113 75.7387 124.869 75.8723 123.355 77.081C120.136 79.6506 119.075 84.8049 119.488 88.6882C120.091 94.3544 122.801 94.8813 122.049 96.9016C121.093 99.4662 118.888 101.742 117.714 104.267C116.807 106.216 116.941 108.666 115.967 110.492C114.992 112.32 112.191 111.746 113.178 117.092C109.802 116.293 105.552 118.726 106.427 122.433C104.968 121.416 103.106 119.984 101.364 119.55C92.2557 117.29 82.303 127.395 74.1204 127.043C72.9142 126.991 71.1589 126.352 70.0896 127.051C68.2509 128.251 70.9809 129.918 71.4676 130.823C72.6764 133.067 64.8026 129.098 63.9935 127.453C63.1606 125.761 65.6666 106.406 65.4176 103.248C65.3466 102.362 64.8225 101.485 65.2458 100.619C65.8583 99.3663 67.0782 98.3924 67.7642 97.1376C68.709 95.4132 69.0314 93.4491 70.4269 91.9883C71.9569 90.385 74.9259 88.9341 75.9741 86.9189C76.4434 86.0149 75.5832 85.1833 75.9492 84.3617C76.3513 83.4627 76.2367 84.4403 84.7255 77.6953C85.44 77.1272 86.5193 75.4128 87.5003 76.3892C89.4049 78.2822 88.2086 85.3281 85.6218 86.2546C84.2474 86.7478 82.8993 84.7862 81.1129 85.5266C79.8468 86.0511 79.1958 87.3596 79.1846 88.6832C79.146 93.3855 86.7795 92.6038 85.4525 87.954C91.1689 86.3807 89.9813 78.9789 91.2884 74.6025C91.3283 74.4689 95.0367 67.2631 96.8418 69.8015C97.758 71.0914 96.7098 75.3304 96.7833 77.0298C96.9663 81.2227 98.2435 85.0459 96.6389 89.1689C96.2791 90.0916 95.9492 91.5962 95.0454 92.1081C94.4043 92.7949 92.3702 92.399 91.0892 92.9996C88.6991 94.7077 89.2456 100.175 93.9985 98.4861C96.5604 97.5758 95.1811 95.8315 96.4061 94.2108C97.6821 92.5214 99.7199 91.4776 100.883 89.6571C103.513 85.5379 102.174 80.677 101.366 76.3043C101.129 75.022 100.561 70.0425 102.802 70.0425C103.651 70.0425 104.015 71.3024 104.246 71.9342C106.787 78.8578 109.105 88.7119 104.896 94.7552C103.88 96.2136 101.658 95.4956 100.881 97.431C100.042 99.5199 101.041 101.882 103.294 102.397C105.706 102.946 107.487 100.95 107.382 98.6434C107.343 97.7881 106.665 96.7617 107.086 95.9726C107.763 94.704 109.051 93.8899 109.711 92.5726C111.852 88.3086 112.192 82.2453 110.599 77.764C109.337 74.2166 103.525 69.9951 104.716 66.1106C105.702 62.8917 109.456 63.4623 111.969 62.13C117.663 59.1121 118.999 54.9604 117.04 49.4016C116.903 48.4302 118.089 47.4825 117.508 46.4836C116.987 45.5871 115.825 45.7182 115.287 46.4836C114.204 48.0244 116.175 49.1082 114.221 50.6202C113.003 51.5642 111.42 51.2158 110.045 51.7153C109.405 51.9475 108.951 52.6555 108.295 52.7853C107.26 52.9914 106.344 52.2097 105.35 53.0026C103.792 54.2475 104.262 57.806 101.366 58.1007C94.718 58.7775 98.9468 50.825 87.8638 48.2017C83.9225 47.2689 79.4809 48.3502 77.0073 51.8264C75.572 53.8454 74.9109 58.7737 71.7104 58.6638C70.4605 58.6201 67.3036 57.6212 66.8019 56.3477C66.1807 54.7731 67.2214 53.2323 65.4176 52.0312C63.727 50.9062 61.1825 51.6753 60.7145 53.733C60.2738 55.6697 61.1041 57.811 63.2727 58.0495C64.1478 58.1457 65.0752 57.6013 65.8844 58.0183C68.0691 59.1458 69.7086 61.1748 72.4361 60.6566C75.9878 59.9824 77.0135 55.1827 79.6688 53.0725C83.9923 49.6351 95.0429 54.637 95.5023 57.3715C95.7712 58.971 92.4449 57.9446 91.7241 57.8585C87.7044 57.3765 83.0449 58.5153 80.9324 62.2324C79.4037 64.9194 80.5402 67.815 76.7757 68.9537C71.1353 70.6606 73.63 66.2342 70.7431 65.3015C67.8961 64.3813 65.5221 66.6038 66.3699 69.2709C67.6235 73.2178 70.707 70.2997 73.1569 70.6156C75.5259 70.9215 77.7355 71.6245 79.8979 69.8977C82.6179 67.7276 82.0739 64.4087 85.9355 63.0415C87.5314 62.4759 92.5196 61.1186 93.2528 63.4473C93.8317 65.2878 92.364 65.1067 83.2827 72.8182C82.5233 73.4637 78.9045 76.3006 77.8999 77.081C75.0192 79.3198 71.8859 83.3665 68.4862 84.6826C67.138 85.2045 64.7665 81.4074 63.5204 84.559C61.5174 83.9808 59.9999 84.8873 59.9041 86.9863C57.6596 86.9938 54.8287 88.7106 53.5727 90.6372C52.3129 92.5689 54.4615 94.704 52.9104 96.472C47.2587 102.912 35.0602 108.641 35.6789 112.232C36.4657 116.79 44.9644 107.058 50.9833 103.352C51.6095 102.966 53.1046 101.299 53.8453 101.458C54.6694 101.635 56.34 105.819 56.5031 106.651C56.7869 108.105 55.0777 110.374 54.6009 111.749C52.9826 116.41 51.2062 121.075 49.919 125.83C48.5633 130.838 48.5247 136.522 46.6923 141.367C45.7649 143.821 43.7955 145.791 42.634 148.164C37.6757 158.291 36.6064 167.159 37.2387 174.383C37.306 175.145 38.2048 175.657 38.1911 176.326C38.1761 177.054 36.8342 177.239 36.6238 178.041C36.3512 179.077 37.1529 179.968 37.1354 180.939C37.0707 184.67 35.4387 189.075 37.7205 192.592C39.3612 195.123 46.1221 191.782 47.1242 189.798C47.6633 188.731 46.8989 187.681 46.4794 186.765C45.1984 183.968 42.9813 182.466 40.6136 180.64C39.9376 180.118 39.4471 177.693 40.0671 176.961C40.6061 176.323 41.6456 176.808 42.3029 176.946C44.0195 177.304 55.4549 177.596 64.9657 173.979C66.6251 173.348 69.6016 172.6 70.5103 170.987C65.3528 171.229 60.7506 174.767 55.3217 173.9C55.4051 173.915 59.1982 170.057 59.1982 170.057C60.9049 167.892 66.4919 161.274 67.7542 158.848C68.6405 157.145 69.5119 154.249 70.9348 152.925C71.7689 152.148 73.986 152.468 75.0914 152.244C87.57 149.727 82.1959 144.222 87.1468 142.986C90.5228 142.143 92.8246 147.588 88.353 149.627C87.0173 150.236 85.6417 149.533 84.2537 150.37C79.253 153.383 76.6313 163.401 77.7443 164.769C78.6567 165.89 83.1084 164.422 84.2537 164.029C87.1878 163.021 91.098 161.794 93.2777 159.445C94.0259 158.638 93.8964 157.415 94.245 156.422C96.4409 150.178 104.107 154.334 100.142 158.607C96.7758 162.231 93.7831 155.237 90.2017 173.173C90.0199 174.081 89.5593 176.63 90.4282 177.301C91.7216 178.303 98.3755 175.086 100.268 173.926C102.449 172.589 104.074 170.988 105.954 169.289C103.061 174.798 100.646 180.612 98.0729 186.283C97.1592 188.296 96.3638 191.96 94.7429 193.467C92.5856 195.474 86.3376 187.831 84.4977 190.732C83.0499 193.013 88.1053 196.168 89.319 197.452C85.2396 197.274 75.1574 195.355 73.1656 197.403C72.2083 198.386 73.0349 199.326 74.1292 199.568C77.087 200.225 80.5178 200.79 83.5316 201.093C83.5316 202.065 78.4675 201.244 75.8172 201.722C71.9096 202.425 72.4959 204.815 75.3342 205.174C78.5447 205.579 81.9942 205.46 85.2197 205.46C85.2197 206.666 85.9442 205.092 75.816 207.589C74.8524 207.826 72.6453 208.532 73.793 209.938C75.6728 212.243 83.2179 209.432 87.3883 209.345C85.8384 211.399 82.7026 211.924 80.8788 213.957C77.7704 217.423 83.3362 216.05 84.9769 215.171C83.5752 219.326 80.3236 224.745 80.5166 226.096C80.6336 226.917 81.3606 226.582 81.7154 226.096C82.4897 224.841 82.9864 223.304 83.5304 221.967H83.7719C84.0732 219.941 85.6093 215.289 87.387 214.197C83.6375 222.83 84.1192 221.967 83.7719 221.967L83.2889 224.396C84.6284 224.176 85.7152 222.011 86.5069 219.926C86.2504 220.727 86.1683 221.42 86.5579 221.681C87.1517 222.078 87.6322 220.891 87.8003 220.511C88.612 218.673 89.5568 216.825 90.2801 214.925H90.5216C92.1287 211.361 92.0478 211.363 90.7618 214.925C90.4245 214.925 90.7693 214.141 88.8323 220.266C91.6071 219.437 91.8387 214.037 93.6549 212.011L93.8952 211.283C93.8952 212.155 93.9761 212.011 93.6549 212.011L91.2436 218.568C93.1719 218.41 94.067 214.925 94.6184 213.228C94.9608 213.228 95.0367 212.619 93.6549 217.355C95.4002 217.069 96.1123 214.52 96.548 212.984H96.7882C98.3979 209.739 98.3145 209.749 97.0285 212.982C96.6862 212.986 96.8928 212.527 96.065 216.141C97.6323 215.899 98.0344 214.093 98.4763 212.74H98.7166C99.5108 211.14 99.9627 210.2 100.108 209.92L100.133 209.914C100.03 210.18 99.634 211.107 98.9593 212.74H98.7166C97.8178 215.654 99.6826 214.53 100.406 212.499C100.743 212.499 100.5 212.793 101.611 210.553C100.778 212.79 100.983 212.495 100.647 212.499V213.956C102.169 213.714 102.577 212.118 103.059 210.799C103.381 210.799 103.222 210.958 103.782 209.827C103.494 210.993 103.623 210.799 103.3 210.799L103.059 212.984C104.389 212.753 104.706 211.529 104.988 210.314C105.318 210.314 105.104 210.611 106.138 208.258C105.363 210.613 105.56 210.311 105.23 210.314L104.989 212.013C106.537 211.888 107.012 210.46 107.401 209.099C107.722 209.099 107.524 209.336 108.364 207.64C107.802 209.346 107.962 209.099 107.641 209.099L107.401 211.285C108.575 211.074 108.91 209.884 109.33 208.858C109.629 208.858 109.518 209.013 109.954 207.895L109.999 207.921C109.788 209.025 109.869 208.853 109.571 208.857V210.312C111.017 210.073 111.429 208.723 111.74 207.399H111.981C111.419 210.636 113.143 207.984 114.196 207.545C115.16 207.145 116.704 207.291 117.767 207.156C117.767 217.251 116.963 226.702 120.131 236.531C120.53 237.772 121.264 238.907 121.577 240.173C122.025 241.979 120.869 244.578 123.549 244.786C123.379 248.827 123.228 252.738 125.861 256.195C127.718 258.633 132.947 255.783 134.073 253.768C136.145 250.061 132.195 246.716 129.335 244.703C128.322 243.99 125.658 242.384 126.28 240.71C126.929 238.96 129.472 239.319 135.834 233.307C144.953 224.685 154.17 205.921 154.17 190.163C154.17 183.768 154.32 181.704 153.252 181.909C152.115 182.126 153.316 183.781 152.214 191.621C149.447 211.298 145.341 212.75 142.359 220.753C141.374 220.753 147.578 208.33 143.758 189.436C142.887 185.124 140.225 179.86 139.175 179.48C138.476 179.228 137.637 179.54 128.615 183.362C128.615 183.683 128.759 183.602 127.891 183.602L128.615 183.362C130.776 181.493 136.134 177.89 136.066 174.627C136.026 172.683 134.168 171.227 134.449 169.041C134.637 167.583 136.246 166.119 137.773 166.251C138.362 166.301 138.83 166.638 139.288 166.985C142.536 169.453 139.055 171.479 139.049 174.137C139.043 176.575 140.443 179.968 141.62 182.076C142.365 183.411 144.096 187.2 146.104 186.38C147.179 185.939 147.758 184.342 148.221 183.372C149.5 180.695 151.22 177.466 150.721 174.38C150.382 172.282 146.922 169.791 150.461 168.068C151.646 167.491 152.852 168.619 153.043 169.766C153.504 172.542 148.185 175.183 157.886 182.813C158.752 183.495 163.923 186.89 164.58 184.52C165.084 182.707 156.858 169.895 155.001 159.326C153.916 153.153 155.658 146.096 147.411 140.676C146.157 139.852 144.392 139.298 143.416 138.112C142.695 137.236 143.467 136.033 143.534 135.048C143.712 132.436 142.759 129.954 143.944 127.344C144.367 126.411 146.147 125.707 146.934 125.094C148.578 123.813 149.869 122.338 151.996 122.059C155.526 121.596 158.949 126.023 159.23 129.22C148.315 129.245 155.336 143.64 161.831 137.754C164.057 135.737 162.257 133.715 162.542 131.405C162.658 130.466 163.513 129.795 163.918 128.977C167.271 122.197 161.757 117.69 161.946 112.713C162.121 108.117 168.036 103.889 170.004 99.8446C172.749 94.212 173.18 86.8364 170.884 80.9205ZM83.2765 90.9519C80.3286 91.8546 78.4003 87.2273 81.3569 86.3632C84.7317 85.3768 86.5592 89.9468 83.2765 90.9519ZM93.3711 98.0878C89.7933 98.8744 88.9655 94.056 92.4474 93.1732C96.0027 92.2729 96.1409 97.4784 93.3711 98.0878ZM105.204 101.335C101.936 102.714 100.083 97.7719 103.055 96.6007C106.238 95.347 107.935 100.184 105.204 101.335ZM64.2399 57.3166C61.0518 57.7686 60.3833 52.7791 63.5167 52.3683C66.4496 51.9837 67.2239 56.8933 64.2399 57.3166ZM112.67 52.3533C113.319 51.3644 116.207 49.9972 116.984 51.3195C119.538 55.6672 114.119 61.0549 110.286 61.5282C109.083 61.6768 106.913 62.6694 106.431 61.0112C108.812 60.769 111.662 57.9321 112.32 55.6709C112.604 54.697 112.088 53.2398 112.67 52.3533ZM105.948 57.5276C105.862 57.615 105.485 57.8185 105.328 57.7586C105.171 57.6987 104.955 55.9918 104.955 55.9918C104.955 55.9918 106.035 57.4389 105.948 57.5276ZM104.743 56.3976C104.662 57.138 104.987 58.6176 106.058 57.7499C106.499 57.3915 104.326 55.1764 105.612 53.8741C106.335 53.1424 107.493 53.8092 108.361 53.6856C109.192 53.5657 110.049 52.5718 110.935 52.9189C113.563 53.9478 108.679 61.4158 104.743 60.6991C102.028 60.2059 103.044 57.424 104.743 56.3976ZM95.8235 62.9553C96.1085 61.3484 98.1091 62.9504 98.6954 61.9165C99.2431 60.9476 97.331 58.9685 99.1983 58.5215C102.017 57.8472 104.477 63.7008 103.6 65.8659C102.859 67.6951 101.654 66.223 100.405 66.5326C99.6801 66.7124 99.4398 67.574 98.7029 67.7176C98.2348 67.8087 97.707 67.5827 97.692 67.0808C97.6634 66.0569 99.2668 65.741 98.8448 64.661C98.3991 63.5235 95.582 64.3151 95.8235 62.9553ZM69.7846 70.6656C66.8218 71.1425 65.7487 66.7636 68.821 66.1918C71.9183 65.6149 73.203 70.1162 69.7846 70.6656ZM83.2852 74.5425C84.4914 74.1829 84.8686 76.3143 83.7333 76.6078C82.4499 76.9411 82.0615 74.9084 83.2852 74.5425ZM44.1291 185.555C43.8702 187.123 42.5954 186.355 41.7016 186.946C41.2086 187.272 41.0119 187.923 40.4854 188.224C37.3695 190.007 35.9702 182.425 38.2782 181.332C40.1131 180.464 44.4665 183.518 44.1291 185.555ZM76.294 79.8229C78.6107 79.3834 78.18 82.2203 76.0525 82.5449C73.7221 82.8995 74.5947 80.1451 76.294 79.8229ZM70.5078 86.5031C70.3286 87.5057 69.7671 87.6281 68.821 87.7167C68.9966 86.6579 69.502 86.5355 70.5078 86.5031ZM65.0342 84.9747C67.1094 84.2231 67.9036 90.6273 66.3674 90.8907C65.0366 91.1205 63.5142 85.5241 65.0342 84.9747ZM61.2834 86.5692C62.2855 84.484 63.6748 87.7055 63.747 90.3863C63.7731 91.3577 63.7569 92.3316 63.7569 93.2993C61.8274 92.9747 60.4667 88.2686 61.2834 86.5692ZM58.3032 88.3835C59.0712 88.155 59.4758 89.089 59.6489 89.6583C61.8597 96.9041 59.2194 97.2474 58.3106 94.9987C57.855 93.8724 56.4956 88.9216 58.3032 88.3835ZM54.5959 91.1829C55.5595 89.6583 56.5242 91.6549 56.6935 92.5714C57.0458 95.6767 56.9537 96.1661 56.767 97.1838C55.0777 96.6256 53.5627 92.8136 54.5959 91.1829ZM37.2363 112.583C35.8818 112.712 36.2416 110.766 37.4765 110.686C39.0625 110.585 38.5222 112.462 37.2363 112.583ZM46.6387 105.819C44.2847 107.766 43.661 108.028 42.3004 109.079C39.5492 107.318 44.6046 103.362 46.6387 102.884C49.2517 102.269 47.4018 105.187 46.6387 105.819ZM51.9867 101.554C51.2224 101.554 50.2688 100.466 50.6385 99.7359C51.0331 98.9556 53.5839 96.5882 54.4017 96.4558C55.2582 96.3172 55.7985 97.4822 55.562 98.1639C55.2383 99.2789 53.193 101.462 51.9867 101.554ZM55.9317 102.525C55.6553 101.802 55.0877 100.948 55.1985 100.139C55.3117 99.3102 57.1243 97.3523 57.9708 97.3311C58.6891 97.3136 59.1285 97.9617 59.8879 97.6895C61.1601 97.2337 60.8663 95.7541 61.6431 94.905C62.8731 93.559 64.3308 94.7065 64.7217 92.0844C68.9318 92.5913 69.9439 86.5031 74.3657 86.0174C73.7134 88.2024 70.9983 89.1127 69.6115 90.6735C68.0057 92.479 67.5114 95.3558 65.928 97.3573C65.0416 98.4786 62.9241 99.0405 62.2917 99.9844C61.8336 100.667 63.2727 100.972 63.6138 101.312C64.347 102.045 64.0071 103.669 63.3797 104.33C62.5021 105.254 58.694 106.896 57.5612 106.016C56.6014 105.271 56.3425 103.599 55.9317 102.525ZM49.6812 147.283C50.4119 146.579 52.0962 146.809 52.278 147.938C52.7037 150.592 50.4306 148.412 45.8868 166.617C45.5532 167.951 44.3669 169.474 43.0224 169.044C41.7775 168.647 46.6574 150.203 49.6812 147.283ZM54.7055 172.097C51.8747 174.531 48.8957 175.601 45.191 175.601C44.4279 175.601 42.3116 175.964 41.9755 175.04C41.5709 173.926 49.7447 167.166 52.2817 164.433C61.978 153.985 67.3533 138.548 67.372 131.902C68.3219 131.904 73.0399 134.54 72.664 139.408C69.1696 153.345 63.2279 164.769 54.7055 172.097ZM71.7141 132.144C73.1582 132.538 74.3209 134.163 75.8122 134.329C78.2223 134.597 80.6411 131.667 83.1495 134.268C83.8628 135.008 83.5889 136.188 83.152 137C81.2461 140.536 78.7065 138.044 76.2952 139.717C74.9321 140.663 74.4591 142.826 72.9192 143.312L74.1254 136.028L71.7141 132.144ZM105.679 165.405C104.801 158.949 114.482 159.812 112.217 164.918C111.572 166.372 108.933 167.852 107.396 168.154C106.074 168.414 105.811 166.375 105.679 165.405ZM104.261 197.208C103.141 196.273 103.077 196.343 104.021 196.722C109.121 185.652 107.748 188.44 110.289 183.854L104.261 197.208ZM112.217 183.37C111.181 188.247 107.833 193.421 105.708 197.936C105.365 197.936 104.892 199.231 110.195 187.254L112.217 183.37ZM104.743 191.096C108.478 182.446 107.925 183.612 108.602 183.612C103.916 193.832 100.251 201.5 104.743 191.096ZM102.091 188.952C107.554 178.032 105.98 178.756 107.154 178.756C101.891 191.115 103.715 187.024 99.9203 195.022C99.6801 193.159 101.272 190.589 102.091 188.952ZM97.9933 194.537C105.128 177.873 103.097 182.609 107.154 173.173C107.154 173.173 101.28 192.37 97.9933 194.537ZM107.396 181.427C107.217 184.876 104.403 188.998 102.948 192.11C98.1962 202.264 102.912 187.398 107.396 181.427ZM107.154 170.017C102.998 180.41 105.314 174.969 96.5467 194.78C95.145 194.78 103.86 174.121 107.154 170.017ZM88.1065 216.63H87.8663C87.7505 217.071 87.2102 218.109 86.7932 219.139C87.7953 216.29 87.4754 216.63 87.8663 216.63C90.0996 212.132 90.051 212.063 88.1065 216.63ZM95.3405 212.745C95.0218 212.745 95.0118 213.091 95.5658 210.864C95.7077 210.841 95.8534 210.818 95.9903 210.794C96.1173 210.848 95.9231 211.181 95.3405 212.745ZM102.574 209.346C101.566 210.7 101.648 210.656 102.574 209.104V209.346ZM104.021 209.589C103.703 209.589 103.646 209.845 104.435 208.265L104.458 208.263L104.021 209.589ZM107.154 201.091C106.148 202.25 106.565 204.888 105.563 205.704C102.455 208.23 96.853 208.116 93.1707 209.475C89.1721 210.949 85.9168 214.498 81.5984 215.172C82.9939 212.501 88.4115 212.541 89.1323 209.356C89.8767 206.062 79.812 210.364 74.3657 209.346C74.3657 208.999 72.8532 209.436 87.626 206.191C86.7795 203.519 84.6446 204.434 82.5532 204.491C77.321 204.634 73.6424 204.068 73.6424 203.52C78.2696 201.542 85.5458 203.416 86.6612 201.923C87.5575 200.723 84.5636 200.396 84.0097 200.222C80.8452 199.223 77.2102 198.665 73.8827 198.665C74.3532 197.318 75.8583 197.842 77.0185 197.755C82.0054 197.384 90.4618 200.363 90.7506 197.452C90.9336 195.614 85.684 194.415 85.4562 191.382L93.8939 195.51C103.731 197.841 100.778 196.571 107.154 200.85V201.091ZM106.913 198.908C113.036 184.907 118.943 172.494 112.668 186.767C106.717 200.304 107.263 198.908 106.913 198.908ZM109.083 198.178C108.842 196.389 110.522 193.953 111.313 192.352C114.272 186.369 117.769 177.575 119.21 176.329C108.57 199.847 109.457 198.178 109.083 198.178ZM111.252 197.693C110.695 195.729 117.937 183.835 121.549 173.9C122.255 171.957 120.187 169.797 120.845 167.587C121.442 165.582 123.953 164.178 125.89 165.23C127.886 166.315 127.508 168.807 126.15 170.255C125.199 171.269 123.65 171.585 122.825 172.728C120.889 175.41 115.776 189.429 111.252 197.693ZM113.422 197.208H113.182C114.026 192.433 117.37 187.297 119.376 182.884C120.571 180.256 121.467 176.871 123.308 174.629C120.096 182.884 122.223 177.979 113.422 197.208ZM115.11 196.722C121.54 182.155 119.669 186.222 123.548 178.272C123.066 182.719 119.527 188.042 117.687 192.11C117.03 193.565 116.463 195.831 115.11 196.722ZM117.297 196.583C117.477 193.401 119.866 191.559 123.791 180.214C124.477 184.005 118.738 190.956 117.763 196.48L117.789 196.478C117.584 196.53 117.423 196.565 117.297 196.583ZM119.21 195.993C119.798 191.988 122.731 186.861 124.754 183.37C124.754 183.37 124.973 183.547 125.266 183.764C125.252 183.797 125.241 183.823 125.23 183.854H124.996C118.901 197.197 119.558 195.993 119.21 195.993ZM127.647 245.054C128.559 245.215 132.512 248.555 131.943 249.489C131.402 250.376 129.465 249.636 126.924 252.561C125.477 251.257 124.03 244.415 127.647 245.054ZM131.242 229.254C134.256 221.493 136.697 213.091 137.27 204.734C138.212 190.989 132.858 190.557 132.378 185.316C132.217 183.563 136.712 182.654 138.015 182.769C139.644 182.911 140.005 185.005 140.398 186.281C141.557 190.04 142.256 193.807 142.662 197.693C143.65 207.161 137.799 224.648 137.138 226.34C136.477 228.032 131.569 235.833 126.44 238.235C126.996 235.16 130.066 232.283 131.242 229.254ZM161.235 111.755C160.385 117.283 166.231 121.904 163.263 128.749C162.914 129.554 162.089 130.025 161.943 130.939C161.56 133.361 163.274 135.684 160.646 137.587C157.966 139.528 153.763 136.517 154.51 133.361C154.787 132.198 155.663 130.883 156.82 130.504C157.871 130.161 161.861 130.458 158.961 125.592C157.279 122.77 154.7 120.695 151.274 121.166C149.747 121.376 148.59 122.567 147.416 123.466C146.214 124.387 144.398 125.25 143.465 126.418C141.687 128.641 142.579 132.15 142.589 134.577C142.594 135.72 141.711 137.122 142.043 138.218C142.525 139.807 145.389 140.811 146.695 141.618C156.043 147.403 153.216 156.931 155.353 164.438C157.758 172.891 163.269 182.447 163.811 184.339C159.23 183.448 154.127 179.634 152.911 174.872C152.228 172.2 155.948 168.723 151.755 166.989C149.706 166.14 148.036 169.049 148.038 170.745C148.041 172.519 149.503 173.306 149.929 174.873C150.596 177.329 148.399 181.037 147.317 183.126C146.939 183.858 146.436 185.194 145.487 185.331C143.466 185.621 139.822 176.435 140.016 174.386C140.12 173.301 140.986 172.499 141.267 171.473C141.958 168.947 141.033 166.376 138.494 165.44C136.712 164.784 134.414 166.391 133.863 168.077C132.978 170.789 135.41 172.582 135.073 174.874C134.572 178.273 129.043 181.543 126.681 183.613H126.44C124.331 181.717 124.533 178.998 124.169 176.33C124.037 175.359 123.697 173.71 124.27 172.831C125.636 170.734 128.611 170.428 128.015 167.104C127.38 163.577 123.067 163.118 120.991 165.658C118.971 168.13 121.117 170.666 120.003 173.175C118.2 177.234 113.906 180.314 110.771 183.129C110.771 183.129 109.549 183.119 109.31 182.877C107.702 181.246 107.483 177.469 107.707 175.36C107.896 173.576 107.284 170.745 108.026 169.115C108.656 167.733 111.491 167.355 112.577 166.205C115.027 163.609 111.964 159.396 108.842 159.876C106.483 160.238 104.597 162.809 104.789 165.165C104.879 166.272 105.75 167.638 105.123 168.682C102.461 173.1 95.5148 175.676 90.7606 176.575C90.7606 172.205 92.1424 164.737 95.4662 161.601C97.2339 159.933 99.9627 161.364 101.61 158.61C104.794 153.284 95.521 148.352 93.4147 156.182C93.2192 156.906 93.4259 157.889 93.0076 158.456C91.2137 160.886 87.1492 161.876 84.4952 162.877C83.4831 163.259 79.517 164.624 78.709 163.562C77.9111 162.513 79.4099 159.873 79.8033 158.854C84.5475 146.577 88.414 153.025 91.0706 148.9C93.1881 145.614 90.4755 140.714 86.4247 142.117C83.2914 143.202 84.0172 146.16 82.2221 148.058C79.3178 151.128 73.9524 151.57 70.0298 151.57C70.4829 147.928 74.2039 142.226 77.3048 140.306C78.3082 139.686 79.3439 140.285 80.3971 140.044C82.5681 139.547 84.4852 136.835 83.9126 134.585C83.3673 132.441 80.3112 131.652 78.4688 132.392C77.7343 132.687 77.0982 133.536 76.299 133.622C75.4761 133.711 74.8574 132.703 74.3483 132.216C73.0013 130.929 70.8141 129.748 70.5128 127.776C74.0121 127.776 77.2675 127.786 80.6075 126.561C86.0276 124.575 91.4266 120.784 97.275 120.052C101.239 119.557 103.458 123.163 107.159 123.163C107.142 122.337 106.826 121.291 107.106 120.502C108.08 117.757 112.205 119.129 113.523 117.335C114.205 116.409 113.72 115.176 114.117 114.18C114.638 112.869 116.089 112.433 116.699 111.267C117.617 109.514 117.53 107.265 118.333 105.44C119.573 102.623 122.113 99.8583 122.948 96.9428C123.504 95.0012 121.481 92.7224 120.9 90.8732C119.704 87.0687 120.027 83.2067 122.028 79.7068C123.804 76.6003 126.285 76.81 128.85 75.1569C130.847 73.8708 132.052 69.8789 135.362 71.5633C137.912 72.8606 137.966 77.1122 135.362 78.4158C133.11 79.542 131.75 77.3969 129.817 77.7652C126.365 78.4257 128.373 85.3206 129.73 86.9151C131.86 89.4186 136.279 86.307 142.113 85.8176C145.006 85.5753 147.179 87.4583 149.827 88.0876C155.422 89.4186 164.482 86.995 165.982 80.6745C166.226 79.6456 166.71 77.9987 165.876 77.1372C165.128 76.363 164.031 76.654 163.089 76.4629C161.149 76.0708 159.689 74.158 160.034 72.1752C160.626 68.7752 165.159 67.6639 167.093 70.4758C168.471 72.4798 166.665 74.3003 167.149 76.3018C167.544 77.9363 169.928 78.3733 171.175 85.5279C172.245 91.6674 170.652 97.667 167.166 102.765C165.215 105.628 161.794 108.122 161.235 111.755Z" fill="black" />
    <path d="M133.411 196.476C133.551 198.052 134.214 202.177 132.847 203.307C131.653 204.293 129.088 203.839 127.625 204.031C123.152 204.619 118.422 204.857 113.905 204.975C112.531 205.01 110.46 205.712 109.16 205.068C107.354 204.172 109.565 200.802 110.77 200.379C115.181 198.828 120.232 198.688 124.753 197.231C128.221 196.114 133.058 192.465 133.411 196.476Z" fill="#E6180A" />
    <path d="M128.237 227.313C128.018 229.297 126.578 230.984 126.202 232.898C124.995 232.169 125.223 229.381 125.066 228.043C124.471 222.982 124.755 217.845 124.755 212.747C124.755 211.533 124.486 207.516 125.792 206.921C128.385 205.738 127.128 211.872 127.269 212.989C127.632 215.903 127.201 218.825 127.408 221.73C127.535 223.528 128.434 225.527 128.237 227.313ZM131.265 188.227C132.696 190.929 130.782 192.976 128.13 193.325C128.335 191.316 129.577 189.324 131.265 188.227Z" fill="white" />
    <path d="M49.7379 135.302C50.7027 128.553 52.733 121.951 54.5568 115.395C55.5626 111.78 56.51 106.978 60.8608 106.25C64.6265 105.619 63.2572 111.522 62.9895 113.938C62.5663 117.756 62.3048 121.517 62.0447 125.349C61.955 126.672 61.3525 128.178 61.4633 129.477C61.65 131.659 63.3978 131.502 64.0887 132.95C64.9713 134.798 62.8762 146.216 59.6308 147.121C58.5154 147.432 57.3254 146.876 56.2772 146.574C53.6206 145.812 49.296 145.284 48.8814 141.858C48.6362 139.828 49.4491 137.323 49.7379 135.302ZM54.0501 206.66C51.7222 211.783 56.4253 218.452 56.4577 223.37C60.1823 220.19 68.2565 219.429 70.6106 214.318C71.721 211.909 70.7475 209.084 68.4682 208.036C66.1764 206.984 63.424 208.074 62.3297 210.49C63.4289 208.064 62.4654 205.261 60.1873 204.208C57.8992 203.149 55.1468 204.245 54.0501 206.66ZM74.3141 238.43C71.3874 239.205 68.4619 239.98 65.5353 240.755C66.5237 240.444 67.2084 239.553 67.8744 238.79C69.3284 236.909 70.6566 234.869 71.482 232.62C71.8878 231.516 72.2575 230.273 71.9787 229.087L74.3141 238.43ZM65.5365 240.756C66.815 240.462 68.1171 240.981 69.2649 241.515C71.365 242.496 73.2609 243.905 74.9851 245.477C75.6399 246.143 76.388 246.835 76.6507 247.775C75.8714 244.661 75.0934 241.547 74.3153 238.431L65.5365 240.756ZM76.6507 247.775C76.3457 246.373 76.8436 244.939 77.3752 243.668C78.2777 241.508 79.5649 239.518 81.0426 237.725C81.6327 237.088 82.2439 236.354 83.0916 236.105C80.1649 236.881 77.2408 237.656 74.3141 238.43L76.6507 247.775ZM83.0916 236.105C81.8132 236.4 80.511 235.882 79.3645 235.347C77.2644 234.368 75.3685 232.956 73.6443 231.385C72.9895 230.72 72.2414 230.027 71.9787 229.087C72.7567 232.202 73.536 235.315 74.3141 238.43L83.0916 236.105Z" fill="#E6180A" />
    <path d="M107.119 241.511C105.282 240.488 104.268 241.275 102.541 241.358C105.019 239.147 106.537 240.147 107.787 237.877C110.288 233.333 103.263 229.414 100.762 233.955C99.5225 236.206 101.176 237.103 100.655 240.356C100.41 239.93 100.2 239.465 100.05 238.962C99.083 235.555 94.4148 234.877 92.7056 237.981C90.9889 241.097 94.0388 244.701 97.5145 243.688C98.2091 243.486 98.9038 243.44 99.5536 243.461C98.8278 244.567 95.9671 248.503 92.9645 246.838L101.142 251.403C98.6996 250.037 99.3071 246.61 100.459 244.04C101.626 245.836 101.354 247.268 103.339 248.376C107.986 250.97 111.765 244.106 107.119 241.511ZM80.6876 183.14C79.5411 179.155 72.7603 177.986 70.1125 175.344C69.2709 179.011 64.1471 183.635 65.2799 187.613C66.236 190.971 71.5416 190.869 72.8686 187.483C73.2508 189.995 73.4487 194.117 70.8333 194.876L79.8038 192.273C77.2182 193.023 75.199 189.536 74.1334 187.043C77.024 189.286 81.6673 186.544 80.6876 183.14Z" fill="black" />
  </g>
  <defs>
    <clipPath id="clip0_872_2068">
      <rect width="208" height="303" fill="white" />
    </clipPath>
  </defs>
</svg>
