<svg width="208" height="303" viewBox="0 0 208 303" fill="none" xmlns="http://www.w3.org/2000/svg">
  <g clip-path="url(#clip0_872_1297)">
    <path d="M207.69 294.112C207.69 298.832 203.848 302.69 199.138 302.69H8.85392C4.15407 302.69 0.3125 298.832 0.3125 294.112V8.89073C0.3125 4.17728 4.15407 0.3125 8.85392 0.3125H199.138C203.848 0.3125 207.69 4.17728 207.69 8.89073V294.112Z" fill="white" stroke="black" stroke-width="0.622432" />
    <path d="M18.9193 19.328C19.2189 18.8064 19.5466 18.4156 19.9015 18.1548C20.2565 17.8947 20.6492 17.764 21.0795 17.764C22.0995 17.764 22.9025 18.4369 23.4878 19.7814C24.0726 21.1266 24.3655 22.9738 24.3655 25.3225C24.3655 27.8019 24.0343 29.7166 23.3723 31.0666C22.7098 32.4167 21.7719 33.0914 20.5586 33.0914C19.194 33.0914 18.1582 32.1662 17.4513 30.316C16.7438 28.4657 16.3906 25.7456 16.3906 22.155C16.3906 18.0734 16.7809 14.9922 17.5613 12.9109C18.3418 10.8297 19.5022 9.78906 21.0437 9.78906C21.4436 9.78906 21.874 9.86383 22.3347 10.0127C22.7949 10.1623 23.2903 10.386 23.8209 10.6838V14.6518H23.004C22.8946 13.6294 22.683 12.8556 22.37 12.3292C22.0569 11.8029 21.657 11.5397 21.1701 11.5397C20.3848 11.5397 19.8158 12.1511 19.4633 13.3741C19.1107 14.5971 18.929 16.5817 18.9193 19.328ZM20.3975 31.3408C20.8607 31.3408 21.1902 30.9013 21.3865 30.0218C21.5828 29.1428 21.6813 27.6177 21.6813 25.4471C21.6813 23.2771 21.5828 21.752 21.3865 20.8725C21.1902 19.9935 20.8607 19.5535 20.3975 19.5535C19.9344 19.5535 19.6043 19.9935 19.408 20.8725C19.2116 21.752 19.1138 23.2771 19.1138 25.4471C19.1138 27.6177 19.2116 29.1428 19.408 30.0218C19.6043 30.9013 19.9344 31.3408 20.3975 31.3408Z" fill="#E61408" />
    <path d="M189.079 283.67C188.779 284.192 188.452 284.582 188.097 284.843C187.742 285.104 187.348 285.234 186.918 285.234C185.899 285.234 185.095 284.561 184.511 283.217C183.925 281.871 183.633 280.024 183.633 277.676C183.633 275.197 183.963 273.281 184.625 271.932C185.289 270.582 186.226 269.906 187.439 269.906C188.804 269.906 189.84 270.833 190.546 272.683C191.254 274.533 191.608 277.253 191.608 280.843C191.608 284.925 191.216 288.005 190.436 290.087C189.655 292.168 188.496 293.209 186.954 293.209C186.554 293.209 186.124 293.134 185.663 292.985C185.203 292.837 184.707 292.613 184.177 292.314V288.346H184.994C185.104 289.369 185.315 290.143 185.628 290.669C185.94 291.195 186.341 291.458 186.828 291.458C187.613 291.458 188.182 290.848 188.534 289.625C188.887 288.402 189.069 286.417 189.079 283.67ZM187.601 271.657C187.136 271.657 186.808 272.097 186.611 272.977C186.414 273.855 186.317 275.38 186.317 277.55C186.317 279.722 186.414 281.246 186.611 282.126C186.808 283.004 187.136 283.444 187.601 283.444C188.063 283.444 188.393 283.004 188.59 282.126C188.786 281.246 188.885 279.722 188.885 277.55C188.885 275.38 188.786 273.855 188.59 272.977C188.393 272.097 188.063 271.657 187.601 271.657Z" fill="#E61408" />
    <path d="M59.4297 17.3906C59.3972 18.5058 58.7354 22.6879 51.5234 29.6094C44.5825 36.2708 41.3413 37.0705 40.3672 37.1406C41.3413 37.2108 44.5825 38.0105 51.5234 44.6719C58.7354 51.5933 59.3972 55.7754 59.4297 56.8906C59.4622 55.7755 60.124 51.5933 67.3359 44.6719C74.2769 38.0105 77.5181 37.2108 78.4922 37.1406C77.5181 37.0705 74.2769 36.2708 67.3359 29.6094C60.124 22.6879 59.4622 18.5058 59.4297 17.3906Z" fill="#E61408" />
    <path d="M20.3802 37.2031C20.3705 37.5384 20.1715 38.7959 18.0029 40.8771C15.9159 42.8801 14.9413 43.1206 14.6484 43.1416C14.9413 43.1627 15.9159 43.4032 18.0029 45.4062C20.1715 47.4874 20.3705 48.7448 20.3802 49.0802C20.39 48.7449 20.589 47.4874 22.7575 45.4062C24.8446 43.4032 25.8191 43.1627 26.112 43.1416C25.8191 43.1206 24.8446 42.8801 22.7575 40.8771C20.589 38.7959 20.39 37.5384 20.3802 37.2031Z" fill="#E61408" />
    <path d="M187.622 253.539C187.613 253.874 187.414 255.132 185.245 257.213C183.158 259.216 182.184 259.456 181.891 259.478C182.184 259.499 183.158 259.739 185.245 261.742C187.414 263.823 187.613 265.081 187.622 265.416C187.632 265.081 187.831 263.823 190 261.742C192.087 259.739 193.061 259.499 193.354 259.478C193.061 259.456 192.087 259.216 190 257.213C187.831 255.132 187.632 253.874 187.622 253.539Z" fill="#E61408" />
    <path d="M147.398 17.3906C147.366 18.5058 146.704 22.6879 139.492 29.6094C132.551 36.2708 129.31 37.0705 128.336 37.1406C129.31 37.2108 132.551 38.0105 139.492 44.6719C146.704 51.5933 147.366 55.7754 147.398 56.8906C147.431 55.7755 148.093 51.5933 155.305 44.6719C162.246 38.0105 165.487 37.2108 166.461 37.1406C165.487 37.0705 162.246 36.2708 155.305 29.6094C148.093 22.6879 147.431 18.5058 147.398 17.3906Z" fill="#E61408" />
    <path d="M59.4297 131.75C59.3972 132.865 58.7354 137.047 51.5234 143.969C44.5825 150.63 41.3413 151.43 40.3672 151.5C41.3413 151.57 44.5825 152.37 51.5234 159.031C58.7354 165.953 59.3972 170.135 59.4297 171.25C59.4622 170.135 60.124 165.953 67.3359 159.031C74.2769 152.37 77.5181 151.57 78.4922 151.5C77.5181 151.43 74.2769 150.63 67.3359 143.969C60.124 137.047 59.4622 132.865 59.4297 131.75Z" fill="#E61408" />
    <path d="M147.398 131.75C147.366 132.865 146.704 137.047 139.492 143.969C132.551 150.63 129.31 151.43 128.336 151.5C129.31 151.57 132.551 152.37 139.492 159.031C146.704 165.953 147.366 170.135 147.398 171.25C147.431 170.135 148.093 165.953 155.305 159.031C162.246 152.37 165.487 151.57 166.461 151.5C165.487 151.43 162.246 150.63 155.305 143.969C148.093 137.047 147.431 132.865 147.398 131.75Z" fill="#E61408" />
    <path d="M59.4297 246.078C59.3972 247.193 58.7354 251.375 51.5234 258.297C44.5825 264.958 41.3413 265.758 40.3672 265.828C41.3413 265.898 44.5825 266.698 51.5234 273.359C58.7354 280.281 59.3972 284.463 59.4297 285.578C59.4622 284.463 60.124 280.281 67.3359 273.359C74.2769 266.698 77.5181 265.898 78.4922 265.828C77.5181 265.758 74.2769 264.958 67.3359 258.297C60.124 251.375 59.4622 247.193 59.4297 246.078Z" fill="#E61408" />
    <path d="M147.398 246.078C147.366 247.193 146.704 251.375 139.492 258.297C132.551 264.958 129.31 265.758 128.336 265.828C129.31 265.898 132.551 266.698 139.492 273.359C146.704 280.281 147.366 284.463 147.398 285.578C147.431 284.463 148.093 280.281 155.305 273.359C162.246 266.698 165.487 265.898 166.461 265.828C165.487 265.758 162.246 264.958 155.305 258.297C148.093 251.375 147.431 247.193 147.398 246.078Z" fill="#E61408" />
  </g>
  <defs>
    <clipPath id="clip0_872_1297">
      <rect width="208" height="303" fill="white" />
    </clipPath>
  </defs>
</svg>
