<svg width="208" height="303" viewBox="0 0 208 303" fill="none" xmlns="http://www.w3.org/2000/svg">
  <g clip-path="url(#clip0_872_1357)">
    <path d="M207.69 294.112C207.69 298.832 203.848 302.69 199.138 302.69H8.85392C4.15407 302.69 0.3125 298.832 0.3125 294.112V8.89073C0.3125 4.17728 4.15407 0.3125 8.85392 0.3125H199.138C203.848 0.3125 207.69 4.17728 207.69 8.89073V294.112Z" fill="white" stroke="black" stroke-width="0.622432" />
    <path d="M13.9521 33H8.75102L16.676 10.0433H22.9308L30.8446 33H25.6435L19.8931 15.2893H19.7137L13.9521 33ZM13.6271 23.9765H25.9125V27.7653H13.6271V23.9765Z" fill="#E61408" />
    <path d="M181.952 270H176.751L184.676 292.957H190.931L198.845 270H193.643L187.893 287.711H187.714L181.952 270ZM181.627 279.023H193.912V275.235H181.627V279.023Z" fill="#E61408" />
    <path d="M104 131.75C103.967 132.865 103.306 137.047 96.0937 143.969C89.1528 150.63 85.9116 151.43 84.9375 151.5C85.9116 151.57 89.1528 152.37 96.0937 159.031C103.306 165.953 103.967 170.135 104 171.25C104.033 170.135 104.694 165.953 111.906 159.031C118.847 152.37 122.088 151.57 123.062 151.5C122.088 151.43 118.847 150.63 111.906 143.969C104.694 137.047 104.033 132.865 104 131.75Z" fill="#E61408" />
    <path d="M20.3802 37.2031C20.3705 37.5384 20.1715 38.7959 18.0029 40.8771C15.9159 42.8801 14.9413 43.1206 14.6484 43.1416C14.9413 43.1627 15.9159 43.4032 18.0029 45.4062C20.1715 47.4874 20.3705 48.7449 20.3802 49.0802C20.39 48.7449 20.589 47.4874 22.7575 45.4062C24.8446 43.4032 25.8191 43.1627 26.112 43.1416C25.8191 43.1206 24.8446 42.8801 22.7575 40.8771C20.589 38.7959 20.39 37.5384 20.3802 37.2031Z" fill="#E61408" />
    <path d="M187.622 253.539C187.613 253.874 187.414 255.132 185.245 257.213C183.158 259.216 182.184 259.456 181.891 259.478C182.184 259.499 183.158 259.739 185.245 261.742C187.414 263.823 187.613 265.081 187.622 265.416C187.632 265.081 187.831 263.823 190 261.742C192.087 259.739 193.061 259.499 193.354 259.478C193.061 259.456 192.087 259.216 190 257.213C187.831 255.132 187.632 253.874 187.622 253.539Z" fill="#E61408" />
  </g>
  <defs>
    <clipPath id="clip0_872_1357">
      <rect width="208" height="303" fill="white" />
    </clipPath>
  </defs>
</svg>
