<svg width="208" height="303" viewBox="0 0 208 303" fill="none" xmlns="http://www.w3.org/2000/svg">
  <g clip-path="url(#clip0_872_1266)">
    <path d="M207.69 294.112C207.69 298.832 203.848 302.69 199.138 302.69H8.85392C4.15407 302.69 0.3125 298.832 0.3125 294.112V8.89073C0.3125 4.17728 4.15407 0.3125 8.85392 0.3125H199.138C203.848 0.3125 207.69 4.17728 207.69 8.89073V294.112Z" fill="white" stroke="black" stroke-width="0.622432" />
    <path d="M21.9831 20.6786C22.7879 20.9704 23.3987 21.628 23.8163 22.6523C24.2339 23.6765 24.443 25.0174 24.443 26.6744C24.443 28.7435 24.0941 30.3299 23.3963 31.4344C22.6985 32.5395 21.6925 33.0914 20.3778 33.0914C19.0624 33.0914 18.0564 32.5395 17.3586 31.4344C16.6608 30.3299 16.3125 28.7435 16.3125 26.6744C16.3125 25.0174 16.5192 23.6765 16.9331 22.6523C17.3471 21.628 17.9482 20.9704 18.736 20.6786C18.0449 20.3181 17.5264 19.7145 17.1811 18.8684C16.8352 18.0223 16.6626 16.9489 16.6626 15.6469C16.6626 13.7443 16.9793 12.2928 17.6139 11.291C18.2479 10.2899 19.1694 9.78906 20.3778 9.78906C21.5758 9.78906 22.4943 10.2899 23.1337 11.291C23.7732 12.2928 24.0929 13.7443 24.0929 15.6469C24.0929 16.9489 23.9178 18.0223 23.5689 18.8684C23.22 19.7145 22.6912 20.3181 21.9831 20.6786ZM21.7588 26.4209C21.7588 24.5797 21.6548 23.3118 21.4482 22.6176C21.2415 21.9235 20.8804 21.5764 20.3656 21.5764C19.8508 21.5764 19.4873 21.9235 19.2757 22.6176C19.0636 23.3118 18.9578 24.5797 18.9578 26.4209C18.9578 28.2821 19.0636 29.5677 19.2757 30.2771C19.4873 30.9864 19.8508 31.3408 20.3656 31.3408C20.8701 31.3408 21.2287 30.9864 21.4409 30.2771C21.6524 29.5677 21.7588 28.2821 21.7588 26.4209ZM21.4865 15.7052C21.4865 14.1212 21.4026 13.0313 21.2348 12.4344C21.0671 11.8381 20.7814 11.5397 20.3778 11.5397C19.9638 11.5397 19.6757 11.8381 19.5128 12.4344C19.3499 13.0313 19.2691 14.1212 19.2691 15.7052C19.2691 17.2795 19.3499 18.3597 19.5128 18.9462C19.6757 19.5328 19.9638 19.8258 20.3778 19.8258C20.7814 19.8258 21.0671 19.5328 21.2348 18.9462C21.4026 18.3597 21.4865 17.2795 21.4865 15.7052Z" fill="#E61408" />
    <path d="M186.015 282.32C185.21 282.028 184.599 281.37 184.182 280.347C183.764 279.322 183.555 277.981 183.555 276.324C183.555 274.255 183.904 272.668 184.601 271.564C185.299 270.458 186.305 269.906 187.62 269.906C188.935 269.906 189.942 270.458 190.64 271.564C191.338 272.668 191.685 274.255 191.685 276.324C191.685 277.981 191.479 279.322 191.065 280.347C190.651 281.37 190.049 282.028 189.261 282.32C189.953 282.681 190.472 283.284 190.817 284.13C191.162 284.976 191.335 286.049 191.335 287.351C191.335 289.254 191.019 290.705 190.384 291.707C189.75 292.708 188.828 293.209 187.62 293.209C186.421 293.209 185.503 292.708 184.864 291.707C184.225 290.705 183.905 289.254 183.905 287.351C183.905 286.049 184.08 284.976 184.429 284.13C184.778 283.284 185.306 282.681 186.015 282.32ZM186.239 276.578C186.239 278.418 186.343 279.686 186.55 280.381C186.757 281.075 187.117 281.421 187.632 281.421C188.148 281.421 188.51 281.075 188.721 280.381C188.934 279.686 189.04 278.418 189.04 276.578C189.04 274.716 188.934 273.431 188.721 272.722C188.51 272.012 188.148 271.657 187.632 271.657C187.128 271.657 186.769 272.012 186.557 272.722C186.346 273.431 186.239 274.716 186.239 276.578ZM186.511 287.293C186.511 288.877 186.595 289.968 186.763 290.563C186.931 291.16 187.216 291.458 187.62 291.458C188.033 291.458 188.323 291.16 188.486 290.563C188.648 289.968 188.729 288.877 188.729 287.293C188.729 285.719 188.648 284.638 188.486 284.052C188.323 283.466 188.033 283.172 187.62 283.172C187.216 283.172 186.931 283.466 186.763 284.052C186.595 284.638 186.511 285.719 186.511 287.293Z" fill="#E61408" />
    <path d="M59.4297 17.3906C59.3972 18.5058 58.7354 22.6879 51.5234 29.6094C44.5825 36.2708 41.3413 37.0705 40.3672 37.1406C41.3413 37.2108 44.5825 38.0105 51.5234 44.6719C58.7354 51.5933 59.3972 55.7754 59.4297 56.8906C59.4622 55.7755 60.124 51.5933 67.3359 44.6719C74.2769 38.0105 77.5181 37.2108 78.4922 37.1406C77.5181 37.0705 74.2769 36.2708 67.3359 29.6094C60.124 22.6879 59.4622 18.5058 59.4297 17.3906Z" fill="#E61408" />
    <path d="M20.3802 37.2031C20.3705 37.5384 20.1715 38.7959 18.0029 40.8771C15.9159 42.8801 14.9413 43.1206 14.6484 43.1416C14.9413 43.1627 15.9159 43.4032 18.0029 45.4062C20.1715 47.4874 20.3705 48.7448 20.3802 49.0802C20.39 48.7449 20.589 47.4874 22.7575 45.4062C24.8446 43.4032 25.8191 43.1627 26.112 43.1416C25.8191 43.1206 24.8446 42.8801 22.7575 40.8771C20.589 38.7959 20.39 37.5384 20.3802 37.2031Z" fill="#E61408" />
    <path d="M187.622 253.539C187.613 253.874 187.414 255.132 185.245 257.213C183.158 259.216 182.184 259.456 181.891 259.478C182.184 259.499 183.158 259.739 185.245 261.742C187.414 263.823 187.613 265.081 187.622 265.416C187.632 265.081 187.831 263.823 190 261.742C192.087 259.739 193.061 259.499 193.354 259.478C193.061 259.456 192.087 259.216 190 257.213C187.831 255.132 187.632 253.874 187.622 253.539Z" fill="#E61408" />
    <path d="M147.398 17.3906C147.366 18.5058 146.704 22.6879 139.492 29.6094C132.551 36.2708 129.31 37.0705 128.336 37.1406C129.31 37.2108 132.551 38.0105 139.492 44.6719C146.704 51.5933 147.366 55.7754 147.398 56.8906C147.431 55.7755 148.093 51.5933 155.305 44.6719C162.246 38.0105 165.487 37.2108 166.461 37.1406C165.487 37.0705 162.246 36.2708 155.305 29.6094C148.093 22.6879 147.431 18.5058 147.398 17.3906Z" fill="#E61408" />
    <path d="M104 74.5703C103.967 75.6855 103.306 79.8676 96.0937 86.7891C89.1528 93.4505 85.9116 94.2502 84.9375 94.3203C85.9116 94.3904 89.1528 95.1902 96.0937 101.852C103.306 108.773 103.967 112.955 104 114.07C104.033 112.955 104.694 108.773 111.906 101.852C118.847 95.1902 122.088 94.3904 123.062 94.3203C122.088 94.2502 118.847 93.4505 111.906 86.7891C104.694 79.8676 104.033 75.6855 104 74.5703Z" fill="#E61408" />
    <path d="M59.4297 131.75C59.3972 132.865 58.7354 137.047 51.5234 143.969C44.5825 150.63 41.3413 151.43 40.3672 151.5C41.3413 151.57 44.5825 152.37 51.5234 159.031C58.7354 165.953 59.3972 170.135 59.4297 171.25C59.4622 170.135 60.124 165.953 67.3359 159.031C74.2769 152.37 77.5181 151.57 78.4922 151.5C77.5181 151.43 74.2769 150.63 67.3359 143.969C60.124 137.047 59.4622 132.865 59.4297 131.75Z" fill="#E61408" />
    <path d="M147.398 131.75C147.366 132.865 146.704 137.047 139.492 143.969C132.551 150.63 129.31 151.43 128.336 151.5C129.31 151.57 132.551 152.37 139.492 159.031C146.704 165.953 147.366 170.135 147.398 171.25C147.431 170.135 148.093 165.953 155.305 159.031C162.246 152.37 165.487 151.57 166.461 151.5C165.487 151.43 162.246 150.63 155.305 143.969C148.093 137.047 147.431 132.865 147.398 131.75Z" fill="#E61408" />
    <path d="M104 188.914C103.967 190.029 103.306 194.211 96.0937 201.133C89.1528 207.794 85.9116 208.594 84.9375 208.664C85.9116 208.734 89.1528 209.534 96.0937 216.195C103.306 223.117 103.967 227.299 104 228.414C104.033 227.299 104.694 223.117 111.906 216.195C118.847 209.534 122.088 208.734 123.062 208.664C122.088 208.594 118.847 207.794 111.906 201.133C104.694 194.211 104.033 190.029 104 188.914Z" fill="#E61408" />
    <path d="M59.4297 246.078C59.3972 247.193 58.7354 251.375 51.5234 258.297C44.5825 264.958 41.3413 265.758 40.3672 265.828C41.3413 265.898 44.5825 266.698 51.5234 273.359C58.7354 280.281 59.3972 284.463 59.4297 285.578C59.4622 284.463 60.124 280.281 67.3359 273.359C74.2769 266.698 77.5181 265.898 78.4922 265.828C77.5181 265.758 74.2769 264.958 67.3359 258.297C60.124 251.375 59.4622 247.193 59.4297 246.078Z" fill="#E61408" />
    <path d="M147.398 246.078C147.366 247.193 146.704 251.375 139.492 258.297C132.551 264.958 129.31 265.758 128.336 265.828C129.31 265.898 132.551 266.698 139.492 273.359C146.704 280.281 147.366 284.463 147.398 285.578C147.431 284.463 148.093 280.281 155.305 273.359C162.246 266.698 165.487 265.898 166.461 265.828C165.487 265.758 162.246 264.958 155.305 258.297C148.093 251.375 147.431 247.193 147.398 246.078Z" fill="#E61408" />
  </g>
  <defs>
    <clipPath id="clip0_872_1266">
      <rect width="208" height="303" fill="white" />
    </clipPath>
  </defs>
</svg>
