<svg width="208" height="303" viewBox="0 0 208 303" fill="none" xmlns="http://www.w3.org/2000/svg">
  <g clip-path="url(#clip0_872_1324)">
    <path d="M207.69 294.112C207.69 298.832 203.848 302.69 199.138 302.69H8.85392C4.15407 302.69 0.3125 298.832 0.3125 294.112V8.89073C0.3125 4.17728 4.15407 0.3125 8.85392 0.3125H199.138C203.848 0.3125 207.69 4.17728 207.69 8.89073V294.112Z" fill="white" stroke="black" stroke-width="0.622432" />
    <path d="M24.3724 32.8744H18.8872V31.046H20.3655V26.9613H16.1641V25.2307L20.3649 10H22.8941V25.0162H24.6058V26.9613H22.8941V31.046H24.3724V32.8744ZM20.3655 25.0162V14.1078L17.3658 25.0162H20.3655Z" fill="#E61408" />
    <path d="M183.632 270.125H189.117V271.953H187.639V276.038H191.84V277.769L187.639 292.999H185.11V277.983H183.398V276.038H185.11V271.953H183.632V270.125ZM187.639 277.983V288.893L190.638 277.983H187.639Z" fill="#E61408" />
    <path d="M59.4297 17.3906C59.3972 18.5058 58.7354 22.6879 51.5234 29.6094C44.5825 36.2708 41.3413 37.0705 40.3672 37.1406C41.3413 37.2108 44.5825 38.0105 51.5234 44.6719C58.7354 51.5933 59.3972 55.7754 59.4297 56.8906C59.4622 55.7755 60.124 51.5933 67.3359 44.6719C74.2769 38.0105 77.5181 37.2108 78.4922 37.1406C77.5181 37.0705 74.2769 36.2708 67.3359 29.6094C60.124 22.6879 59.4622 18.5058 59.4297 17.3906Z" fill="#E61408" />
    <path d="M20.3802 37.2031C20.3705 37.5384 20.1715 38.7959 18.0029 40.8771C15.9159 42.8801 14.9413 43.1206 14.6484 43.1416C14.9413 43.1627 15.9159 43.4032 18.0029 45.4062C20.1715 47.4874 20.3705 48.7448 20.3802 49.0802C20.39 48.7449 20.589 47.4874 22.7575 45.4062C24.8446 43.4032 25.8191 43.1627 26.112 43.1416C25.8191 43.1206 24.8446 42.8801 22.7575 40.8771C20.589 38.7959 20.39 37.5384 20.3802 37.2031Z" fill="#E61408" />
    <path d="M187.622 253.539C187.613 253.874 187.414 255.132 185.245 257.213C183.158 259.216 182.184 259.456 181.891 259.478C182.184 259.499 183.158 259.739 185.245 261.742C187.414 263.823 187.613 265.081 187.622 265.416C187.632 265.081 187.831 263.823 190 261.742C192.087 259.739 193.061 259.499 193.354 259.478C193.061 259.456 192.087 259.216 190 257.213C187.831 255.132 187.632 253.874 187.622 253.539Z" fill="#E61408" />
    <path d="M147.398 17.3906C147.366 18.5058 146.704 22.6879 139.492 29.6094C132.551 36.2708 129.31 37.0705 128.336 37.1406C129.31 37.2108 132.551 38.0105 139.492 44.6719C146.704 51.5933 147.366 55.7754 147.398 56.8906C147.431 55.7755 148.093 51.5933 155.305 44.6719C162.246 38.0105 165.487 37.2108 166.461 37.1406C165.487 37.0705 162.246 36.2708 155.305 29.6094C148.093 22.6879 147.431 18.5058 147.398 17.3906Z" fill="#E61408" />
    <path d="M59.4297 246.078C59.3972 247.193 58.7354 251.375 51.5234 258.297C44.5825 264.958 41.3413 265.758 40.3672 265.828C41.3413 265.898 44.5825 266.698 51.5234 273.359C58.7354 280.281 59.3972 284.463 59.4297 285.578C59.4622 284.463 60.124 280.281 67.3359 273.359C74.2769 266.698 77.5181 265.898 78.4922 265.828C77.5181 265.758 74.2769 264.958 67.3359 258.297C60.124 251.375 59.4622 247.193 59.4297 246.078Z" fill="#E61408" />
    <path d="M147.398 246.078C147.366 247.193 146.704 251.375 139.492 258.297C132.551 264.958 129.31 265.758 128.336 265.828C129.31 265.898 132.551 266.698 139.492 273.359C146.704 280.281 147.366 284.463 147.398 285.578C147.431 284.463 148.093 280.281 155.305 273.359C162.246 266.698 165.487 265.898 166.461 265.828C165.487 265.758 162.246 264.958 155.305 258.297C148.093 251.375 147.431 247.193 147.398 246.078Z" fill="#E61408" />
  </g>
  <defs>
    <clipPath id="clip0_872_1324">
      <rect width="208" height="303" fill="white" />
    </clipPath>
  </defs>
</svg>
