<svg width="208" height="303" viewBox="0 0 208 303" fill="none" xmlns="http://www.w3.org/2000/svg">
  <g clip-path="url(#clip0_872_1347)">
    <path d="M207.69 294.112C207.69 298.832 203.848 302.69 199.138 302.69H8.85392C4.15407 302.69 0.3125 298.832 0.3125 294.112V8.89073C0.3125 4.17728 4.15407 0.3125 8.85392 0.3125H199.138C203.848 0.3125 207.69 4.17728 207.69 8.89073V294.112Z" fill="white" stroke="black" stroke-width="0.622432" />
    <path d="M17.5588 15.952H16.7419V11.1282C17.2938 10.7525 17.8378 10.4705 18.3745 10.282C18.9113 10.0942 19.4504 10 19.9926 10C21.2667 10 22.2623 10.5854 22.9796 11.7548C23.6968 12.9249 24.0554 14.554 24.0554 16.6425C24.0554 18.1293 23.8579 19.4623 23.464 20.6421C23.0701 21.822 22.3188 23.22 21.2113 24.8369L18.4189 28.9453H23.1607V26.2999H24.0943V32.8744H16.6641V29.2127L18.1472 26.9163C19.4249 24.9566 20.2753 23.2887 20.6983 21.9113C21.1208 20.5345 21.3323 18.9268 21.3323 17.0875C21.3323 15.349 21.1712 14.0245 20.8491 13.1152C20.5269 12.2059 20.0595 11.7506 19.4456 11.7506C18.9119 11.7506 18.487 12.1098 18.1697 12.8277C17.8524 13.5456 17.6488 14.5868 17.5588 15.952Z" fill="#E61408" />
    <path d="M190.442 287.047H191.259V291.871C190.707 292.248 190.162 292.53 189.626 292.717C189.09 292.906 188.55 292.999 188.008 292.999C186.734 292.999 185.738 292.415 185.021 291.245C184.304 290.074 183.945 288.445 183.945 286.357C183.945 284.871 184.142 283.538 184.536 282.357C184.93 281.178 185.681 279.78 186.79 278.163L189.581 274.054H184.84V276.699H183.906V270.125H191.337V273.787L189.853 276.084C188.576 278.044 187.726 279.712 187.303 281.088C186.88 282.465 186.668 284.074 186.668 285.912C186.668 287.65 186.829 288.975 187.152 289.885C187.473 290.794 187.941 291.249 188.555 291.249C189.089 291.249 189.513 290.89 189.832 290.172C190.148 289.454 190.352 288.414 190.442 287.047Z" fill="#E61408" />
    <path d="M104 17.4219C103.967 18.537 103.306 22.7192 96.0937 29.6406C89.1528 36.302 85.9116 37.1017 84.9375 37.1719C85.9116 37.242 89.1528 38.0417 96.0937 44.7031C103.306 51.6246 103.967 55.8067 104 56.9219C104.033 55.8067 104.694 51.6246 111.906 44.7031C118.847 38.0417 122.088 37.242 123.062 37.1719C122.088 37.1017 118.847 36.302 111.906 29.6406C104.694 22.7192 104.033 18.537 104 17.4219Z" fill="#E61408" />
    <path d="M20.3802 37.2031C20.3705 37.5384 20.1715 38.7959 18.0029 40.8771C15.9159 42.8801 14.9413 43.1206 14.6484 43.1416C14.9413 43.1627 15.9159 43.4032 18.0029 45.4062C20.1715 47.4874 20.3705 48.7448 20.3802 49.0802C20.39 48.7449 20.589 47.4874 22.7575 45.4062C24.8446 43.4032 25.8191 43.1627 26.112 43.1416C25.8191 43.1206 24.8446 42.8801 22.7575 40.8771C20.589 38.7959 20.39 37.5384 20.3802 37.2031Z" fill="#E61408" />
    <path d="M187.622 253.539C187.613 253.874 187.414 255.132 185.245 257.213C183.158 259.216 182.184 259.456 181.891 259.478C182.184 259.499 183.158 259.739 185.245 261.742C187.414 263.823 187.613 265.081 187.622 265.416C187.632 265.081 187.831 263.823 190 261.742C192.087 259.739 193.061 259.499 193.354 259.478C193.061 259.456 192.087 259.216 190 257.213C187.831 255.132 187.632 253.874 187.622 253.539Z" fill="#E61408" />
    <path d="M104 246.078C103.967 247.193 103.306 251.375 96.0937 258.297C89.1528 264.958 85.9116 265.758 84.9375 265.828C85.9116 265.898 89.1528 266.698 96.0937 273.359C103.306 280.281 103.967 284.463 104 285.578C104.033 284.463 104.694 280.281 111.906 273.359C118.847 266.698 122.088 265.898 123.062 265.828C122.088 265.758 118.847 264.958 111.906 258.297C104.694 251.375 104.033 247.193 104 246.078Z" fill="#E61408" />
  </g>
  <defs>
    <clipPath id="clip0_872_1347">
      <rect width="208" height="303" fill="white" />
    </clipPath>
  </defs>
</svg>
