<svg width="208" height="303" viewBox="0 0 208 303" fill="none" xmlns="http://www.w3.org/2000/svg">
  <g clip-path="url(#clip0_872_1954)">
    <path d="M207.69 294.112C207.69 298.832 203.848 302.69 199.138 302.69H8.85393C4.15407 302.69 0.3125 298.832 0.3125 294.112V8.89073C0.3125 4.17728 4.15407 0.3125 8.85393 0.3125H199.138C203.848 0.3125 207.69 4.17728 207.69 8.89073V294.112Z" fill="white" stroke="black" stroke-width="0.622432" />
    <path d="M21.8369 23.5227C21.5354 24.0539 21.2048 24.4527 20.8437 24.7183C20.4826 24.9839 20.0912 25.1165 19.6706 25.1165C18.6579 25.1165 17.858 24.4466 17.2708 23.1063C16.6836 21.7666 16.3906 19.917 16.3906 17.5579C16.3906 15.0688 16.7176 13.1517 17.3705 11.8065C18.0233 10.4619 18.9582 9.78906 20.1751 9.78906C21.5512 9.78906 22.5943 10.7172 23.3018 12.5724C24.0118 14.4281 24.3655 17.1458 24.3655 20.726C24.3655 24.8083 23.9729 27.8894 23.1875 29.9701C22.4034 32.0514 21.2364 33.0914 19.6876 33.0914C19.2852 33.0914 18.8524 33.0166 18.3904 32.8677C17.9273 32.7182 17.43 32.4951 16.8964 32.1966V28.2286H17.7133C17.8336 29.251 18.0488 30.0254 18.36 30.5518C18.6713 31.0782 19.0724 31.3408 19.5648 31.3408C20.3574 31.3408 20.9312 30.7269 21.2874 29.499C21.6436 28.2712 21.826 26.2793 21.8369 23.5227ZM20.3392 11.5397C19.8687 11.5397 19.5344 11.9797 19.335 12.8587C19.1356 13.7382 19.036 15.2633 19.036 17.4333C19.036 19.6039 19.1356 21.129 19.335 22.0079C19.5344 22.8875 19.8687 23.327 20.3392 23.327C20.8097 23.327 21.144 22.8875 21.3433 22.0079C21.5427 21.129 21.6424 19.6039 21.6424 17.4333C21.6424 15.2633 21.5427 13.7382 21.3433 12.8587C21.144 11.9797 20.8097 11.5397 20.3392 11.5397Z" fill="black" />
    <path d="M186.161 279.476C186.463 278.944 186.794 278.545 187.156 278.28C187.516 278.015 187.907 277.881 188.328 277.881C189.342 277.881 190.142 278.552 190.728 279.892C191.316 281.232 191.608 283.082 191.608 285.44C191.608 287.93 191.282 289.846 190.628 291.192C189.976 292.536 189.04 293.209 187.825 293.209C186.448 293.209 185.405 292.281 184.695 290.426C183.988 288.569 183.633 285.852 183.633 282.272C183.633 278.19 184.027 275.109 184.81 273.028C185.595 270.947 186.762 269.906 188.311 269.906C188.714 269.906 189.145 269.982 189.609 270.13C190.071 270.281 190.57 270.503 191.102 270.801V274.769H190.285C190.166 273.748 189.95 272.972 189.638 272.447C189.327 271.919 188.926 271.657 188.435 271.657C187.642 271.657 187.068 272.272 186.711 273.5C186.356 274.728 186.171 276.719 186.161 279.476ZM187.659 291.458C188.131 291.458 188.464 291.018 188.663 290.14C188.863 289.26 188.962 287.736 188.962 285.564C188.962 283.394 188.863 281.869 188.663 280.991C188.464 280.111 188.131 279.671 187.659 279.671C187.19 279.671 186.854 280.111 186.655 280.991C186.456 281.869 186.356 283.394 186.356 285.564C186.356 287.736 186.456 289.26 186.655 290.14C186.854 291.018 187.19 291.458 187.659 291.458Z" fill="black" />
    <path d="M187.65 265.66C189.071 265.66 190.223 264.508 190.223 263.087C190.223 262.353 189.911 261.694 189.418 261.224C189.038 260.862 188.495 260.04 188.314 259.381C188.667 259.593 188.984 259.836 189.175 260.036C189.644 260.529 190.304 260.831 191.037 260.831C192.459 260.831 193.611 259.68 193.611 258.258C193.611 256.837 192.459 255.685 191.037 255.685C190.304 255.685 189.644 255.997 189.175 256.489C188.974 256.701 188.634 256.968 188.258 257.191C188.311 254.831 189.121 253.289 190.598 253.289H184.693C186.173 253.289 186.993 254.839 187.042 257.21C186.646 256.983 186.277 256.709 186.068 256.489C185.599 255.997 184.94 255.685 184.206 255.685C182.785 255.685 181.633 256.837 181.633 258.258C181.633 259.68 182.785 260.831 184.206 260.831C184.94 260.831 185.599 260.529 186.068 260.036C186.267 259.827 186.612 259.58 186.985 259.362C186.81 260.025 186.257 260.858 185.872 261.224C185.379 261.694 185.076 262.353 185.076 263.087C185.076 264.508 186.228 265.66 187.65 265.66Z" fill="black" />
    <path d="M20.3515 36.9609C18.93 36.9609 17.7781 38.1128 17.7781 39.5343C17.7781 40.268 18.09 40.9273 18.5829 41.3965C18.9638 41.7591 19.5064 42.5809 19.6871 43.24C19.3346 43.0276 19.017 42.7854 18.8262 42.585C18.357 42.0921 17.6977 41.7896 16.964 41.7896C15.5425 41.7896 14.3906 42.9414 14.3906 44.363C14.3906 45.7845 15.5425 46.9363 16.964 46.9363C17.6977 46.9363 18.357 46.6245 18.8262 46.1316C19.0274 45.9202 19.3676 45.6528 19.7433 45.4297C19.6906 47.7898 18.8806 49.3319 17.4038 49.3319H23.3086C21.8279 49.3319 21.0085 47.7818 20.9598 45.411C21.3559 45.6384 21.724 45.9121 21.933 46.1316C22.4022 46.6245 23.0615 46.9363 23.7952 46.9363C25.2167 46.9363 26.3686 45.7845 26.3686 44.363C26.3686 42.9414 25.2167 41.7896 23.7952 41.7896C23.0615 41.7896 22.4022 42.0921 21.933 42.585C21.7343 42.7937 21.3892 43.0412 21.0159 43.2587C21.191 42.5964 21.7448 41.7627 22.1295 41.3965C22.6224 40.9273 22.9249 40.268 22.9249 39.5343C22.9249 38.1128 21.7731 36.9609 20.3515 36.9609Z" fill="black" />
    <path d="M59.3323 286.398C54.6046 286.398 50.7738 282.568 50.7738 277.84C50.7738 275.4 51.8111 273.207 53.4503 271.647C54.717 270.441 56.5216 267.708 57.1226 265.516C55.9502 266.222 54.8941 267.028 54.2595 267.694C52.699 269.334 50.5064 270.34 48.0663 270.34C43.3386 270.34 39.5078 266.509 39.5078 261.781C39.5078 257.054 43.3386 253.223 48.0663 253.223C50.5064 253.223 52.699 254.26 54.2595 255.899C54.9286 256.602 56.0599 257.492 57.3094 258.233C57.1341 250.384 54.4403 245.256 49.529 245.256H69.1667C64.2423 245.256 61.5173 250.411 61.3552 258.296C62.6725 257.54 63.8969 256.629 64.5918 255.899C66.1523 254.26 68.3449 253.223 70.785 253.223C75.5127 253.223 79.3435 257.054 79.3435 261.781C79.3435 266.509 75.5127 270.34 70.785 270.34C68.3449 270.34 66.1523 269.334 64.5918 267.694C63.931 267 62.7833 266.177 61.5419 265.454C62.1242 267.656 63.966 270.429 65.2454 271.647C66.8846 273.207 67.8907 275.4 67.8907 277.84C67.8907 282.568 64.06 286.398 59.3323 286.398Z" fill="black" />
    <path d="M147.309 16.5703C142.581 16.5703 138.75 20.4011 138.75 25.1288C138.75 27.5689 139.788 29.7615 141.427 31.322C142.694 32.5278 144.498 35.261 145.099 37.4529C143.927 36.7463 142.871 35.9411 142.236 35.2744C140.676 33.6352 138.483 32.6291 136.043 32.6291C131.315 32.6291 127.484 36.4598 127.484 41.1875C127.484 45.9152 131.315 49.746 136.043 49.746C138.483 49.746 140.676 48.7087 142.236 47.0695C142.905 46.3665 144.036 45.4771 145.286 44.7354C145.111 52.5844 142.417 57.7131 137.506 57.7131H157.143C152.219 57.7131 149.494 52.5576 149.332 44.6731C150.649 45.4292 151.873 46.3395 152.568 47.0695C154.129 48.7087 156.322 49.746 158.762 49.746C163.489 49.746 167.32 45.9152 167.32 41.1875C167.32 36.4598 163.489 32.6291 158.762 32.6291C156.322 32.6291 154.129 33.6352 152.568 35.2744C151.908 35.9685 150.76 36.7918 149.518 37.5152C150.101 35.3125 151.943 32.5399 153.222 31.322C154.861 29.7615 155.867 27.5689 155.867 25.1288C155.867 20.4011 152.037 16.5703 147.309 16.5703Z" fill="black" />
    <path d="M59.3323 16.5703C54.6046 16.5703 50.7738 20.4011 50.7738 25.1288C50.7738 27.5689 51.8111 29.7615 53.4503 31.322C54.717 32.5278 56.5216 35.261 57.1226 37.4529C55.9502 36.7463 54.8941 35.9411 54.2595 35.2744C52.699 33.6352 50.5064 32.6291 48.0663 32.6291C43.3386 32.6291 39.5078 36.4598 39.5078 41.1875C39.5078 45.9152 43.3386 49.746 48.0663 49.746C50.5064 49.746 52.699 48.7087 54.2595 47.0695C54.9286 46.3665 56.0599 45.4771 57.3094 44.7354C57.1341 52.5844 54.4403 57.7131 49.529 57.7131H69.1667C64.2423 57.7131 61.5173 52.5576 61.3552 44.6731C62.6725 45.4292 63.8969 46.3395 64.5918 47.0695C66.1523 48.7087 68.3449 49.746 70.785 49.746C75.5127 49.746 79.3435 45.9152 79.3435 41.1875C79.3435 36.4598 75.5127 32.6291 70.785 32.6291C68.3449 32.6291 66.1523 33.6352 64.5918 35.2744C63.931 35.9686 62.7833 36.7918 61.5419 37.5152C62.1242 35.3125 63.966 32.5399 65.2454 31.322C66.8846 29.7615 67.8907 27.5689 67.8907 25.1288C67.8907 20.4011 64.06 16.5703 59.3323 16.5703Z" fill="black" />
    <path d="M59.3323 92.7969C54.6046 92.7969 50.7738 96.6276 50.7738 101.355C50.7738 103.795 51.8111 105.988 53.4503 107.549C54.717 108.754 56.5216 111.488 57.1226 113.679C55.9502 112.973 54.8941 112.168 54.2595 111.501C52.699 109.862 50.5064 108.856 48.0663 108.856C43.3386 108.856 39.5078 112.686 39.5078 117.414C39.5078 122.142 43.3386 125.973 48.0663 125.973C50.5064 125.973 52.699 124.935 54.2595 123.296C54.9286 122.593 56.0599 121.704 57.3094 120.962C57.1341 128.811 54.4403 133.94 49.529 133.94H69.1667C64.2423 133.94 61.5173 128.784 61.3552 120.9C62.6725 121.656 63.8969 122.566 64.5918 123.296C66.1523 124.935 68.3449 125.973 70.785 125.973C75.5127 125.973 79.3435 122.142 79.3435 117.414C79.3435 112.686 75.5127 108.856 70.785 108.856C68.3449 108.856 66.1523 109.862 64.5918 111.501C63.931 112.195 62.7833 113.018 61.5419 113.742C62.1242 111.539 63.966 108.766 65.2454 107.549C66.8846 105.988 67.8907 103.795 67.8907 101.355C67.8907 96.6276 64.06 92.7969 59.3323 92.7969Z" fill="black" />
    <path d="M147.309 286.398C142.581 286.398 138.75 282.568 138.75 277.84C138.75 275.4 139.788 273.207 141.427 271.647C142.694 270.441 144.498 267.708 145.099 265.516C143.927 266.222 142.871 267.028 142.236 267.694C140.676 269.334 138.483 270.34 136.043 270.34C131.315 270.34 127.484 266.509 127.484 261.781C127.484 257.054 131.315 253.223 136.043 253.223C138.483 253.223 140.676 254.26 142.236 255.899C142.905 256.602 144.036 257.492 145.286 258.233C145.111 250.384 142.417 245.256 137.506 245.256H157.143C152.219 245.256 149.494 250.411 149.332 258.296C150.649 257.54 151.873 256.629 152.568 255.899C154.129 254.26 156.322 253.223 158.762 253.223C163.489 253.223 167.32 257.054 167.32 261.781C167.32 266.509 163.489 270.34 158.762 270.34C156.322 270.34 154.129 269.334 152.568 267.694C151.908 267 150.76 266.177 149.518 265.454C150.101 267.656 151.943 270.429 153.222 271.647C154.861 273.207 155.867 275.4 155.867 277.84C155.867 282.568 152.037 286.398 147.309 286.398Z" fill="black" />
    <path d="M147.309 92.7969C142.581 92.7969 138.75 96.6276 138.75 101.355C138.75 103.795 139.788 105.988 141.427 107.549C142.694 108.754 144.498 111.488 145.099 113.679C143.927 112.973 142.871 112.168 142.236 111.501C140.676 109.862 138.483 108.856 136.043 108.856C131.315 108.856 127.484 112.686 127.484 117.414C127.484 122.142 131.315 125.973 136.043 125.973C138.483 125.973 140.676 124.935 142.236 123.296C142.905 122.593 144.036 121.704 145.286 120.962C145.111 128.811 142.417 133.94 137.506 133.94H157.143C152.219 133.94 149.494 128.784 149.332 120.9C150.649 121.656 151.873 122.566 152.568 123.296C154.129 124.935 156.321 125.973 158.762 125.973C163.489 125.973 167.32 122.142 167.32 117.414C167.32 112.686 163.489 108.856 158.762 108.856C156.322 108.856 154.129 109.862 152.568 111.501C151.908 112.195 150.76 113.018 149.518 113.742C150.101 111.539 151.943 108.766 153.222 107.549C154.861 105.988 155.867 103.795 155.867 101.355C155.867 96.6276 152.037 92.7969 147.309 92.7969Z" fill="black" />
    <path d="M145.809 210.172C141.081 210.172 137.25 206.341 137.25 201.613C137.25 199.173 138.288 196.981 139.927 195.42C141.194 194.214 142.998 191.481 143.599 189.289C142.427 189.996 141.371 190.801 140.736 191.468C139.176 193.107 136.983 194.113 134.543 194.113C129.815 194.113 125.984 190.282 125.984 185.555C125.984 180.827 129.815 176.996 134.543 176.996C136.983 176.996 139.176 178.033 140.736 179.673C141.405 180.376 142.536 181.265 143.786 182.007C143.611 174.158 140.917 169.029 136.006 169.029H155.643C150.719 169.029 147.994 174.185 147.832 182.069C149.149 181.313 150.373 180.403 151.068 179.673C152.629 178.033 154.821 176.996 157.262 176.996C161.989 176.996 165.82 180.827 165.82 185.555C165.82 190.282 161.989 194.113 157.262 194.113C154.822 194.113 152.629 193.107 151.068 191.468C150.408 190.774 149.26 189.95 148.018 189.227C148.601 191.43 150.443 194.202 151.722 195.42C153.361 196.981 154.367 199.173 154.367 201.613C154.367 206.341 150.537 210.172 145.809 210.172Z" fill="black" />
    <path d="M59.3323 210.172C54.6046 210.172 50.7738 206.341 50.7738 201.613C50.7738 199.173 51.8111 196.981 53.4503 195.42C54.717 194.214 56.5216 191.481 57.1226 189.289C55.9502 189.996 54.8941 190.801 54.2595 191.468C52.699 193.107 50.5064 194.113 48.0663 194.113C43.3386 194.113 39.5078 190.282 39.5078 185.555C39.5078 180.827 43.3386 176.996 48.0663 176.996C50.5064 176.996 52.699 178.033 54.2595 179.673C54.9286 180.376 56.0599 181.265 57.3094 182.007C57.1341 174.158 54.4403 169.029 49.529 169.029H69.1667C64.2423 169.029 61.5173 174.185 61.3552 182.069C62.6725 181.313 63.8969 180.403 64.5918 179.673C66.1523 178.033 68.3449 176.996 70.785 176.996C75.5127 176.996 79.3435 180.827 79.3435 185.555C79.3435 190.282 75.5127 194.113 70.785 194.113C68.3449 194.113 66.1523 193.107 64.5918 191.468C63.931 190.774 62.7833 189.95 61.5419 189.227C62.1242 191.43 63.966 194.202 65.2454 195.42C66.8846 196.981 67.8907 199.173 67.8907 201.613C67.8907 206.341 64.06 210.172 59.3323 210.172Z" fill="black" />
    <path d="M103.91 130.93C99.1827 130.93 95.352 134.76 95.352 139.488C95.352 141.928 96.3892 144.121 98.0284 145.681C99.2951 146.887 101.1 149.62 101.701 151.812C100.528 151.106 99.4722 150.3 98.8376 149.634C97.2771 147.995 95.0845 146.988 92.6444 146.988C87.9167 146.988 84.0859 150.819 84.0859 155.547C84.0859 160.275 87.9167 164.105 92.6444 164.105C95.0845 164.105 97.2771 163.068 98.8376 161.429C99.5068 160.726 100.638 159.836 101.888 159.095C101.712 166.944 99.0185 172.072 94.1071 172.072H113.745C108.82 172.072 106.095 166.917 105.933 159.033C107.251 159.789 108.475 160.699 109.17 161.429C110.73 163.068 112.923 164.105 115.363 164.105C120.091 164.105 123.922 160.275 123.922 155.547C123.922 150.819 120.091 146.988 115.363 146.988C112.923 146.988 110.73 147.995 109.17 149.634C108.509 150.328 107.361 151.151 106.12 151.875C106.702 149.672 108.544 146.899 109.824 145.681C111.463 144.121 112.469 141.928 112.469 139.488C112.469 134.76 108.638 130.93 103.91 130.93Z" fill="black" />
  </g>
  <defs>
    <clipPath id="clip0_872_1954">
      <rect width="208" height="303" fill="white" />
    </clipPath>
  </defs>
</svg>
