<svg width="208" height="303" viewBox="0 0 208 303" fill="none" xmlns="http://www.w3.org/2000/svg">
  <g clip-path="url(#clip0_872_2061)">
    <path d="M207.69 294.112C207.69 298.832 203.848 302.69 199.138 302.69H8.85392C4.15407 302.69 0.3125 298.832 0.3125 294.112V8.89073C0.3125 4.17728 4.15407 0.3125 8.85392 0.3125H199.138C203.848 0.3125 207.69 4.17728 207.69 8.89073V294.112Z" fill="white" stroke="black" stroke-width="0.622432" />
    <path d="M187.648 265.664C189.07 265.664 190.222 264.512 190.222 263.091C190.222 262.357 189.91 261.698 189.417 261.228C189.036 260.866 188.494 260.044 188.313 259.385C188.665 259.597 188.983 259.84 189.174 260.04C189.643 260.533 190.302 260.835 191.036 260.835C192.458 260.835 193.609 259.684 193.609 258.262C193.609 256.841 192.458 255.689 191.036 255.689C190.302 255.689 189.643 256.001 189.174 256.493C188.973 256.705 188.632 256.972 188.257 257.195C188.309 254.835 189.119 253.293 190.596 253.293H184.691C186.172 253.293 186.991 254.843 187.04 257.214C186.644 256.987 186.276 256.713 186.067 256.493C185.598 256.001 184.938 255.689 184.205 255.689C182.783 255.689 181.631 256.841 181.631 258.262C181.631 259.684 182.783 260.835 184.205 260.835C184.938 260.835 185.598 260.533 186.067 260.04C186.266 259.831 186.611 259.584 186.984 259.366C186.809 260.029 186.255 260.862 185.87 261.228C185.378 261.698 185.075 262.357 185.075 263.091C185.075 264.512 186.227 265.664 187.648 265.664Z" fill="black" />
    <path d="M20.3515 36.9609C18.93 36.9609 17.7781 38.1128 17.7781 39.5343C17.7781 40.268 18.09 40.9273 18.5829 41.3965C18.9638 41.7591 19.5064 42.5809 19.6871 43.24C19.3346 43.0276 19.017 42.7854 18.8262 42.585C18.357 42.0921 17.6977 41.7896 16.964 41.7896C15.5425 41.7896 14.3906 42.9414 14.3906 44.363C14.3906 45.7845 15.5425 46.9363 16.964 46.9363C17.6977 46.9363 18.357 46.6245 18.8262 46.1316C19.0274 45.9202 19.3676 45.6528 19.7433 45.4297C19.6906 47.7898 18.8806 49.3319 17.4038 49.3319H23.3086C21.8279 49.3319 21.0085 47.7818 20.9598 45.411C21.3559 45.6384 21.724 45.9121 21.933 46.1316C22.4022 46.6245 23.0615 46.9363 23.7952 46.9363C25.2167 46.9363 26.3686 45.7845 26.3686 44.363C26.3686 42.9414 25.2167 41.7896 23.7952 41.7896C23.0615 41.7896 22.4022 42.0921 21.933 42.585C21.7343 42.7937 21.3892 43.0412 21.0159 43.2587C21.191 42.5964 21.7448 41.7627 22.1295 41.3965C22.6224 40.9273 22.9249 40.268 22.9249 39.5343C22.9249 38.1128 21.7731 36.9609 20.3515 36.9609Z" fill="black" />
    <path d="M103.91 130.93C99.1827 130.93 95.352 134.76 95.352 139.488C95.352 141.928 96.3892 144.121 98.0284 145.681C99.2951 146.887 101.1 149.62 101.701 151.812C100.528 151.106 99.4722 150.3 98.8376 149.634C97.2771 147.995 95.0845 146.988 92.6444 146.988C87.9167 146.988 84.0859 150.819 84.0859 155.547C84.0859 160.275 87.9167 164.105 92.6444 164.105C95.0845 164.105 97.2771 163.068 98.8376 161.429C99.5068 160.726 100.638 159.836 101.888 159.095C101.712 166.944 99.0185 172.072 94.1071 172.072H113.745C108.82 172.072 106.095 166.917 105.933 159.033C107.251 159.789 108.475 160.699 109.17 161.429C110.73 163.068 112.923 164.105 115.363 164.105C120.091 164.105 123.922 160.275 123.922 155.547C123.922 150.819 120.091 146.988 115.363 146.988C112.923 146.988 110.73 147.995 109.17 149.634C108.509 150.328 107.361 151.151 106.12 151.875C106.702 149.672 108.544 146.899 109.824 145.681C111.463 144.121 112.469 141.928 112.469 139.488C112.469 134.76 108.638 130.93 103.91 130.93Z" fill="black" />
    <path d="M13.9521 33H8.75102L16.676 10.0433H22.9308L30.8446 33H25.6435L19.8931 15.2893H19.7137L13.9521 33ZM13.6271 23.9765H25.9125V27.7653H13.6271V23.9765Z" fill="black" />
    <path d="M181.952 270H176.751L184.676 292.957H190.931L198.845 270H193.643L187.893 287.711H187.714L181.952 270ZM181.627 279.023H193.912V275.235H181.627V279.023Z" fill="black" />
  </g>
  <defs>
    <clipPath id="clip0_872_2061">
      <rect width="208" height="303" fill="white" />
    </clipPath>
  </defs>
</svg>
