<svg width="208" height="303" viewBox="0 0 208 303" fill="none" xmlns="http://www.w3.org/2000/svg">
  <g clip-path="url(#clip0_872_1987)">
    <path d="M207.69 294.112C207.69 298.832 203.848 302.69 199.138 302.69H8.85392C4.15407 302.69 0.3125 298.832 0.3125 294.112V8.89073C0.3125 4.17728 4.15407 0.3125 8.85392 0.3125H199.138C203.848 0.3125 207.69 4.17728 207.69 8.89073V294.112Z" fill="white" stroke="black" stroke-width="0.622432" />
    <path d="M24.0556 14.0378L19.9217 32.6652H18.554L22.5822 14.4591H17.6368V17.4934H16.7031V10.2188H24.0556V14.0378Z" fill="black" />
    <path d="M183.945 288.964L188.079 270.336H189.448L185.419 288.542H190.364V285.508H191.298V292.782H183.945V288.964Z" fill="black" />
    <path d="M187.65 265.66C189.071 265.66 190.223 264.508 190.223 263.087C190.223 262.353 189.911 261.694 189.418 261.224C189.038 260.862 188.495 260.04 188.314 259.381C188.667 259.593 188.984 259.836 189.175 260.036C189.644 260.529 190.304 260.831 191.037 260.831C192.459 260.831 193.611 259.68 193.611 258.258C193.611 256.837 192.459 255.685 191.037 255.685C190.304 255.685 189.644 255.997 189.175 256.489C188.974 256.701 188.634 256.968 188.258 257.191C188.311 254.831 189.121 253.289 190.598 253.289H184.693C186.173 253.289 186.993 254.839 187.042 257.21C186.646 256.983 186.277 256.709 186.068 256.489C185.599 255.997 184.94 255.685 184.206 255.685C182.785 255.685 181.633 256.837 181.633 258.258C181.633 259.68 182.785 260.831 184.206 260.831C184.94 260.831 185.599 260.529 186.068 260.036C186.267 259.827 186.612 259.58 186.985 259.362C186.81 260.025 186.257 260.858 185.872 261.224C185.379 261.694 185.076 262.353 185.076 263.087C185.076 264.508 186.228 265.66 187.65 265.66Z" fill="black" />
    <path d="M20.3515 36.9609C18.93 36.9609 17.7781 38.1128 17.7781 39.5343C17.7781 40.268 18.09 40.9273 18.5829 41.3965C18.9638 41.7591 19.5064 42.5809 19.6871 43.24C19.3346 43.0276 19.017 42.7854 18.8262 42.585C18.357 42.0921 17.6977 41.7896 16.964 41.7896C15.5425 41.7896 14.3906 42.9414 14.3906 44.363C14.3906 45.7845 15.5425 46.9363 16.964 46.9363C17.6977 46.9363 18.357 46.6245 18.8262 46.1316C19.0274 45.9202 19.3676 45.6528 19.7433 45.4297C19.6906 47.7898 18.8806 49.3319 17.4038 49.3319H23.3086C21.8279 49.3319 21.0085 47.7818 20.9598 45.411C21.3559 45.6384 21.724 45.9121 21.933 46.1316C22.4022 46.6245 23.0615 46.9363 23.7952 46.9363C25.2167 46.9363 26.3686 45.7845 26.3686 44.363C26.3686 42.9414 25.2167 41.7896 23.7952 41.7896C23.0615 41.7896 22.4022 42.0921 21.933 42.585C21.7343 42.7937 21.3892 43.0412 21.0159 43.2587C21.191 42.5964 21.7448 41.7627 22.1295 41.3965C22.6224 40.9273 22.9249 40.268 22.9249 39.5343C22.9249 38.1128 21.7731 36.9609 20.3515 36.9609Z" fill="black" />
    <path d="M59.3323 286.398C54.6046 286.398 50.7738 282.568 50.7738 277.84C50.7738 275.4 51.8111 273.207 53.4503 271.647C54.717 270.441 56.5216 267.708 57.1226 265.516C55.9502 266.222 54.8941 267.028 54.2595 267.694C52.699 269.334 50.5064 270.34 48.0663 270.34C43.3386 270.34 39.5078 266.509 39.5078 261.781C39.5078 257.054 43.3386 253.223 48.0663 253.223C50.5064 253.223 52.699 254.26 54.2595 255.899C54.9286 256.602 56.0599 257.492 57.3094 258.233C57.1341 250.384 54.4403 245.256 49.529 245.256H69.1667C64.2423 245.256 61.5173 250.411 61.3552 258.296C62.6725 257.54 63.8969 256.629 64.5918 255.899C66.1523 254.26 68.3449 253.223 70.785 253.223C75.5127 253.223 79.3435 257.054 79.3435 261.781C79.3435 266.509 75.5127 270.34 70.785 270.34C68.3449 270.34 66.1523 269.334 64.5918 267.694C63.931 267 62.7833 266.177 61.5419 265.454C62.1242 267.656 63.966 270.429 65.2454 271.647C66.8846 273.207 67.8907 275.4 67.8907 277.84C67.8907 282.568 64.06 286.398 59.3323 286.398Z" fill="black" />
    <path d="M147.309 16.5703C142.581 16.5703 138.75 20.4011 138.75 25.1288C138.75 27.5689 139.788 29.7615 141.427 31.322C142.694 32.5278 144.498 35.261 145.099 37.4529C143.927 36.7463 142.871 35.9411 142.236 35.2744C140.676 33.6352 138.483 32.6291 136.043 32.6291C131.315 32.6291 127.484 36.4598 127.484 41.1875C127.484 45.9152 131.315 49.7459 136.043 49.7459C138.483 49.7459 140.676 48.7087 142.236 47.0695C142.905 46.3665 144.036 45.4771 145.286 44.7354C145.111 52.5844 142.417 57.7131 137.506 57.7131H157.143C152.219 57.7131 149.494 52.5576 149.332 44.6731C150.649 45.4292 151.873 46.3395 152.568 47.0695C154.129 48.7087 156.322 49.7459 158.762 49.7459C163.489 49.7459 167.32 45.9152 167.32 41.1875C167.32 36.4598 163.489 32.6291 158.762 32.6291C156.322 32.6291 154.129 33.6352 152.568 35.2744C151.908 35.9685 150.76 36.7918 149.518 37.5152C150.101 35.3125 151.943 32.5399 153.222 31.322C154.861 29.7615 155.867 27.5689 155.867 25.1288C155.867 20.4011 152.037 16.5703 147.309 16.5703Z" fill="black" />
    <path d="M147.309 286.398C142.581 286.398 138.75 282.568 138.75 277.84C138.75 275.4 139.788 273.207 141.427 271.647C142.694 270.441 144.498 267.708 145.099 265.516C143.927 266.222 142.871 267.028 142.236 267.694C140.676 269.334 138.483 270.34 136.043 270.34C131.315 270.34 127.484 266.509 127.484 261.781C127.484 257.054 131.315 253.223 136.043 253.223C138.483 253.223 140.676 254.26 142.236 255.899C142.905 256.602 144.036 257.492 145.286 258.233C145.111 250.384 142.417 245.256 137.506 245.256H157.143C152.219 245.256 149.494 250.411 149.332 258.296C150.649 257.54 151.873 256.629 152.568 255.899C154.129 254.26 156.322 253.223 158.762 253.223C163.489 253.223 167.32 257.054 167.32 261.781C167.32 266.509 163.489 270.34 158.762 270.34C156.322 270.34 154.129 269.334 152.568 267.694C151.908 267 150.76 266.177 149.518 265.454C150.101 267.656 151.943 270.429 153.222 271.647C154.861 273.207 155.867 275.4 155.867 277.84C155.867 282.568 152.037 286.398 147.309 286.398Z" fill="black" />
    <path d="M59.3323 16.5703C54.6046 16.5703 50.7738 20.4011 50.7738 25.1288C50.7738 27.5689 51.8111 29.7615 53.4503 31.322C54.717 32.5278 56.5216 35.261 57.1226 37.4529C55.9502 36.7463 54.8941 35.9411 54.2595 35.2744C52.699 33.6352 50.5064 32.6291 48.0663 32.6291C43.3386 32.6291 39.5078 36.4598 39.5078 41.1875C39.5078 45.9152 43.3386 49.746 48.0663 49.746C50.5064 49.746 52.699 48.7087 54.2595 47.0695C54.9286 46.3665 56.0599 45.4771 57.3094 44.7354C57.1341 52.5844 54.4403 57.7131 49.529 57.7131H69.1667C64.2423 57.7131 61.5173 52.5576 61.3552 44.6731C62.6725 45.4292 63.8969 46.3395 64.5918 47.0695C66.1523 48.7087 68.3449 49.746 70.785 49.746C75.5127 49.746 79.3435 45.9152 79.3435 41.1875C79.3435 36.4598 75.5127 32.6291 70.785 32.6291C68.3449 32.6291 66.1523 33.6352 64.5918 35.2744C63.931 35.9686 62.7833 36.7918 61.5419 37.5152C62.1242 35.3125 63.966 32.5399 65.2454 31.322C66.8846 29.7615 67.8907 27.5689 67.8907 25.1288C67.8907 20.4011 64.06 16.5703 59.3323 16.5703Z" fill="black" />
    <path d="M59.3323 130.93C54.6046 130.93 50.7738 134.76 50.7738 139.488C50.7738 141.928 51.8111 144.121 53.4503 145.681C54.717 146.887 56.5216 149.62 57.1226 151.812C55.9502 151.106 54.8941 150.3 54.2595 149.634C52.699 147.995 50.5064 146.988 48.0663 146.988C43.3386 146.988 39.5078 150.819 39.5078 155.547C39.5078 160.275 43.3386 164.105 48.0663 164.105C50.5064 164.105 52.699 163.068 54.2595 161.429C54.9286 160.726 56.0599 159.836 57.3094 159.095C57.1341 166.944 54.4403 172.072 49.529 172.072H69.1667C64.2423 172.072 61.5173 166.917 61.3552 159.033C62.6725 159.789 63.8969 160.699 64.5918 161.429C66.1523 163.068 68.3449 164.105 70.785 164.105C75.5127 164.105 79.3435 160.275 79.3435 155.547C79.3435 150.819 75.5127 146.988 70.785 146.988C68.3449 146.988 66.1523 147.995 64.5918 149.634C63.931 150.328 62.7833 151.151 61.5419 151.875C62.1242 149.672 63.966 146.899 65.2454 145.681C66.8846 144.121 67.8907 141.928 67.8907 139.488C67.8907 134.76 64.06 130.93 59.3323 130.93Z" fill="black" />
    <path d="M147.309 130.93C142.581 130.93 138.75 134.76 138.75 139.488C138.75 141.928 139.788 144.121 141.427 145.681C142.694 146.887 144.498 149.62 145.099 151.812C143.927 151.106 142.871 150.3 142.236 149.634C140.676 147.995 138.483 146.988 136.043 146.988C131.315 146.988 127.484 150.819 127.484 155.547C127.484 160.275 131.315 164.105 136.043 164.105C138.483 164.105 140.676 163.068 142.236 161.429C142.905 160.726 144.036 159.836 145.286 159.095C145.111 166.944 142.417 172.072 137.506 172.072H157.143C152.219 172.072 149.494 166.917 149.332 159.033C150.649 159.789 151.873 160.699 152.568 161.429C154.129 163.068 156.321 164.105 158.762 164.105C163.489 164.105 167.32 160.275 167.32 155.547C167.32 150.819 163.489 146.988 158.762 146.988C156.322 146.988 154.129 147.995 152.568 149.634C151.908 150.328 150.76 151.151 149.518 151.875C150.101 149.672 151.943 146.899 153.222 145.681C154.861 144.121 155.867 141.928 155.867 139.488C155.867 134.76 152.037 130.93 147.309 130.93Z" fill="black" />
    <path d="M103.91 73.75C99.1827 73.75 95.352 77.5807 95.352 82.3084C95.352 84.7486 96.3892 86.9412 98.0284 88.5016C99.2951 89.7075 101.1 92.4407 101.701 94.6326C100.528 93.926 99.4722 93.1208 98.8376 92.4541C97.2771 90.8149 95.0845 89.8088 92.6444 89.8088C87.9167 89.8088 84.0859 93.6395 84.0859 98.3672C84.0859 103.095 87.9167 106.926 92.6444 106.926C95.0845 106.926 97.2771 105.888 98.8376 104.249C99.5068 103.546 100.638 102.657 101.888 101.915C101.712 109.764 99.0185 114.893 94.1071 114.893H113.745C108.82 114.893 106.095 109.737 105.933 101.853C107.251 102.609 108.475 103.519 109.17 104.249C110.73 105.888 112.923 106.926 115.363 106.926C120.091 106.926 123.922 103.095 123.922 98.3672C123.922 93.6395 120.091 89.8088 115.363 89.8088C112.923 89.8088 110.73 90.8149 109.17 92.4541C108.509 93.1482 107.361 93.9714 106.12 94.6948C106.702 92.4921 108.544 89.7195 109.824 88.5016C111.463 86.9412 112.469 84.7486 112.469 82.3084C112.469 77.5807 108.638 73.75 103.91 73.75Z" fill="black" />
  </g>
  <defs>
    <clipPath id="clip0_872_1987">
      <rect width="208" height="303" fill="white" />
    </clipPath>
  </defs>
</svg>
