<svg width="208" height="303" viewBox="0 0 208 303" fill="none" xmlns="http://www.w3.org/2000/svg">
  <g clip-path="url(#clip0_872_2051)">
    <path d="M207.69 294.112C207.69 298.832 203.848 302.69 199.138 302.69H8.85392C4.15407 302.69 0.3125 298.832 0.3125 294.112V8.89073C0.3125 4.17728 4.15407 0.3125 8.85392 0.3125H199.138C203.848 0.3125 207.69 4.17728 207.69 8.89073V294.112Z" fill="white" stroke="black" stroke-width="0.622432" />
    <path d="M17.5588 15.952H16.7419V11.1282C17.2938 10.7525 17.8378 10.4705 18.3745 10.282C18.9113 10.0942 19.4504 10 19.9926 10C21.2667 10 22.2623 10.5854 22.9796 11.7548C23.6968 12.9249 24.0554 14.554 24.0554 16.6425C24.0554 18.1293 23.8579 19.4623 23.464 20.6421C23.0701 21.822 22.3188 23.22 21.2113 24.8369L18.4189 28.9453H23.1607V26.2999H24.0943V32.8744H16.6641V29.2127L18.1472 26.9163C19.4249 24.9566 20.2753 23.2887 20.6983 21.9113C21.1208 20.5345 21.3323 18.9268 21.3323 17.0875C21.3323 15.349 21.1712 14.0245 20.8491 13.1152C20.5269 12.2059 20.0595 11.7506 19.4456 11.7506C18.9119 11.7506 18.487 12.1098 18.1697 12.8277C17.8524 13.5456 17.6488 14.5868 17.5588 15.952Z" fill="black" />
    <path d="M190.442 287.047H191.259V291.871C190.707 292.248 190.162 292.53 189.626 292.717C189.09 292.906 188.55 292.999 188.008 292.999C186.734 292.999 185.738 292.415 185.021 291.245C184.304 290.074 183.945 288.445 183.945 286.357C183.945 284.871 184.142 283.538 184.536 282.357C184.93 281.178 185.681 279.78 186.79 278.163L189.581 274.054H184.84V276.699H183.906V270.125H191.337V273.787L189.853 276.084C188.576 278.044 187.726 279.712 187.303 281.088C186.88 282.465 186.668 284.074 186.668 285.912C186.668 287.65 186.829 288.975 187.152 289.885C187.473 290.794 187.941 291.249 188.555 291.249C189.089 291.249 189.513 290.89 189.832 290.172C190.148 289.454 190.352 288.414 190.442 287.047Z" fill="black" />
    <path d="M187.65 265.66C189.071 265.66 190.223 264.508 190.223 263.087C190.223 262.353 189.911 261.694 189.418 261.224C189.038 260.862 188.495 260.04 188.314 259.381C188.667 259.593 188.984 259.836 189.175 260.036C189.644 260.529 190.304 260.831 191.037 260.831C192.459 260.831 193.611 259.68 193.611 258.258C193.611 256.837 192.459 255.685 191.037 255.685C190.304 255.685 189.644 255.997 189.175 256.489C188.974 256.701 188.634 256.968 188.258 257.191C188.311 254.831 189.121 253.289 190.598 253.289H184.693C186.173 253.289 186.993 254.839 187.042 257.21C186.646 256.983 186.277 256.709 186.068 256.489C185.599 255.997 184.94 255.685 184.206 255.685C182.785 255.685 181.633 256.837 181.633 258.258C181.633 259.68 182.785 260.831 184.206 260.831C184.94 260.831 185.599 260.529 186.068 260.036C186.267 259.827 186.612 259.58 186.985 259.362C186.81 260.025 186.257 260.858 185.872 261.224C185.379 261.694 185.076 262.353 185.076 263.087C185.076 264.508 186.228 265.66 187.65 265.66Z" fill="black" />
    <path d="M20.3515 36.9609C18.93 36.9609 17.7781 38.1128 17.7781 39.5343C17.7781 40.268 18.09 40.9273 18.5829 41.3965C18.9638 41.7591 19.5064 42.5809 19.6871 43.24C19.3346 43.0276 19.017 42.7854 18.8262 42.585C18.357 42.0921 17.6977 41.7896 16.964 41.7896C15.5425 41.7896 14.3906 42.9414 14.3906 44.363C14.3906 45.7845 15.5425 46.9363 16.964 46.9363C17.6977 46.9363 18.357 46.6245 18.8262 46.1316C19.0274 45.9202 19.3676 45.6528 19.7433 45.4297C19.6906 47.7898 18.8806 49.3319 17.4038 49.3319H23.3086C21.8279 49.3319 21.0085 47.7818 20.9598 45.411C21.3559 45.6384 21.724 45.9121 21.933 46.1316C22.4022 46.6245 23.0615 46.9363 23.7952 46.9363C25.2167 46.9363 26.3686 45.7845 26.3686 44.363C26.3686 42.9414 25.2167 41.7896 23.7952 41.7896C23.0615 41.7896 22.4022 42.0921 21.933 42.585C21.7343 42.7937 21.3892 43.0412 21.0159 43.2587C21.191 42.5964 21.7448 41.7627 22.1295 41.3965C22.6224 40.9273 22.9249 40.268 22.9249 39.5343C22.9249 38.1128 21.7731 36.9609 20.3515 36.9609Z" fill="black" />
    <path d="M103.91 16.6016C99.1827 16.6016 95.352 20.4323 95.352 25.16C95.352 27.6001 96.3892 29.7927 98.0284 31.3532C99.2951 32.5591 101.1 35.2922 101.701 37.4842C100.528 36.7776 99.4722 35.9723 98.8376 35.3057C97.2771 33.6664 95.0845 32.6603 92.6444 32.6603C87.9167 32.6603 84.0859 36.4911 84.0859 41.2188C84.0859 45.9465 87.9167 49.7772 92.6444 49.7772C95.0845 49.7772 97.2771 48.74 98.8376 47.1007C99.5068 46.3978 100.638 45.5083 101.888 44.7666C101.712 52.6157 99.0185 57.7443 94.1071 57.7443H113.745C108.82 57.7443 106.095 52.5888 105.933 44.7044C107.251 45.4605 108.475 46.3707 109.17 47.1007C110.73 48.74 112.923 49.7772 115.363 49.7772C120.091 49.7772 123.922 45.9465 123.922 41.2188C123.922 36.4911 120.091 32.6603 115.363 32.6603C112.923 32.6603 110.73 33.6664 109.17 35.3057C108.509 35.9998 107.361 36.823 106.12 37.5464C106.702 35.3437 108.544 32.5711 109.824 31.3532C111.463 29.7927 112.469 27.6001 112.469 25.16C112.469 20.4323 108.638 16.6016 103.91 16.6016Z" fill="black" />
    <path d="M103.91 286.398C99.1827 286.398 95.352 282.568 95.352 277.84C95.352 275.4 96.3892 273.207 98.0284 271.647C99.2951 270.441 101.1 267.708 101.701 265.516C100.528 266.222 99.4722 267.028 98.8376 267.694C97.2771 269.334 95.0845 270.34 92.6444 270.34C87.9167 270.34 84.0859 266.509 84.0859 261.781C84.0859 257.054 87.9167 253.223 92.6444 253.223C95.0845 253.223 97.2771 254.26 98.8376 255.899C99.5068 256.602 100.638 257.492 101.888 258.233C101.712 250.384 99.0185 245.256 94.1071 245.256H113.745C108.82 245.256 106.095 250.411 105.933 258.296C107.251 257.54 108.475 256.629 109.17 255.899C110.73 254.26 112.923 253.223 115.363 253.223C120.091 253.223 123.922 257.054 123.922 261.781C123.922 266.509 120.091 270.34 115.363 270.34C112.923 270.34 110.73 269.334 109.17 267.694C108.509 267 107.361 266.177 106.12 265.454C106.702 267.656 108.544 270.429 109.824 271.647C111.463 273.207 112.469 275.4 112.469 277.84C112.469 282.568 108.638 286.398 103.91 286.398Z" fill="black" />
  </g>
  <defs>
    <clipPath id="clip0_872_2051">
      <rect width="208" height="303" fill="white" />
    </clipPath>
  </defs>
</svg>
