<svg width="208" height="303" viewBox="0 0 208 303" fill="none" xmlns="http://www.w3.org/2000/svg">
  <g clip-path="url(#clip0_872_2002)">
    <path d="M207.691 294.1C207.691 298.821 203.85 302.677 199.139 302.677H8.85333C4.15407 302.677 0.3125 298.821 0.3125 294.1V8.88287C0.3125 4.16866 4.15407 0.304688 8.85333 0.304688H199.139C203.85 0.304688 207.691 4.16866 207.691 8.88162V294.1Z" fill="white" stroke="black" stroke-width="0.622419" />
    <path d="M18.9189 19.327C19.2177 18.8054 19.5463 18.4145 19.9011 18.1544C20.2558 17.893 20.648 17.7635 21.0787 17.7635C22.0995 17.7635 22.9024 18.4357 23.4874 19.7801C24.0725 21.1258 24.3651 22.9731 24.3651 25.3222C24.3651 27.8006 24.0339 29.7164 23.3717 31.0658C22.7094 32.4152 21.7708 33.0899 20.5583 33.0899C19.194 33.0899 18.1583 32.165 17.4512 30.314C16.7429 28.4641 16.3906 25.7454 16.3906 22.154C16.3906 18.0722 16.7803 14.9912 17.5608 12.9099C18.3413 10.8285 19.5027 9.78906 21.0426 9.78906C21.4434 9.78906 21.8729 9.86375 22.3347 10.0131C22.7953 10.1625 23.2895 10.3853 23.8198 10.6829V14.6514H23.0032C22.8937 13.6281 22.682 12.8551 22.3683 12.3285C22.0571 11.802 21.6563 11.5393 21.1696 11.5393C20.3853 11.5393 19.8152 12.1505 19.4629 13.373C19.1106 14.5966 18.9276 16.5809 18.9189 19.327ZM20.3965 31.3397C20.8596 31.3397 21.1895 30.9003 21.3862 30.0202C21.5828 29.1413 21.6812 27.6176 21.6812 25.4466C21.6812 23.2756 21.5816 21.7507 21.3862 20.8719C21.1895 19.993 20.8596 19.5523 20.3965 19.5523C19.9334 19.5523 19.6036 19.993 19.4069 20.8719C19.2114 21.7507 19.1131 23.2756 19.1131 25.4466C19.1131 27.6164 19.2114 29.1413 19.4069 30.0202C19.6036 30.9003 19.9334 31.3397 20.3965 31.3397Z" fill="black" />
    <path d="M189.071 283.67C188.772 284.192 188.444 284.582 188.089 284.843C187.749 285.098 187.335 285.236 186.91 285.234C185.892 285.234 185.088 284.562 184.503 283.217C183.918 281.872 183.625 280.024 183.625 277.677C183.625 275.197 183.956 273.282 184.617 271.932C185.281 270.582 186.218 269.906 187.432 269.906C188.797 269.906 189.833 270.832 190.539 272.682C191.246 274.533 191.601 277.253 191.601 280.843C191.601 284.925 191.209 288.005 190.428 290.086C189.648 292.168 188.489 293.208 186.946 293.208C186.507 293.202 186.071 293.126 185.655 292.984C185.139 292.811 184.642 292.586 184.17 292.313V288.346H184.987C185.096 289.369 185.308 290.142 185.62 290.669C185.932 291.195 186.334 291.458 186.821 291.458C187.605 291.458 188.175 290.848 188.526 289.624C188.879 288.402 189.061 286.417 189.071 283.67ZM187.594 271.658C187.129 271.658 186.801 272.097 186.604 272.977C186.407 273.855 186.31 275.38 186.31 277.551C186.31 279.722 186.407 281.247 186.604 282.127C186.801 283.004 187.129 283.444 187.594 283.444C188.054 283.444 188.387 283.004 188.583 282.127C188.779 281.247 188.877 279.722 188.877 277.551C188.877 275.381 188.779 273.855 188.583 272.977C188.387 272.097 188.055 271.658 187.594 271.658Z" fill="black" />
    <path d="M187.647 265.66C188.329 265.66 188.984 265.389 189.466 264.906C189.949 264.424 190.22 263.769 190.22 263.087C190.22 262.353 189.909 261.693 189.414 261.225C189.034 260.863 188.491 260.041 188.31 259.382C188.663 259.594 188.981 259.836 189.172 260.036C189.466 260.344 189.831 260.574 190.236 260.705C190.641 260.837 191.072 260.866 191.49 260.79C191.909 260.714 192.303 260.536 192.635 260.271C192.968 260.006 193.23 259.662 193.398 259.271C193.565 258.88 193.633 258.453 193.595 258.029C193.557 257.605 193.415 257.197 193.18 256.842C192.946 256.487 192.628 256.195 192.253 255.993C191.878 255.791 191.46 255.686 191.034 255.685C190.3 255.685 189.64 255.996 189.172 256.489C188.897 256.761 188.589 256.997 188.254 257.191C188.307 254.831 189.117 253.289 190.595 253.289H184.689C186.17 253.289 186.99 254.84 187.038 257.21C186.642 256.984 186.274 256.71 186.065 256.489C185.825 256.236 185.537 256.034 185.216 255.895C184.896 255.757 184.551 255.686 184.202 255.685C183.777 255.686 183.358 255.791 182.983 255.993C182.609 256.195 182.29 256.487 182.056 256.842C181.822 257.197 181.679 257.605 181.641 258.029C181.604 258.453 181.671 258.88 181.839 259.271C182.006 259.662 182.268 260.006 182.601 260.271C182.934 260.536 183.327 260.714 183.746 260.79C184.165 260.866 184.596 260.837 185 260.705C185.405 260.574 185.771 260.344 186.065 260.036C186.264 259.828 186.609 259.58 186.982 259.364C186.808 260.025 186.253 260.858 185.868 261.225C185.496 261.58 185.238 262.038 185.129 262.541C185.02 263.043 185.064 263.567 185.255 264.044C185.446 264.522 185.776 264.931 186.203 265.219C186.629 265.507 187.131 265.661 187.646 265.66H187.647ZM20.3568 36.9609C19.6743 36.9609 19.0199 37.232 18.5373 37.7146C18.0548 38.1971 17.7837 38.8516 17.7837 39.534C17.7837 40.2685 18.0949 40.9282 18.5878 41.3963C18.9688 41.7585 19.5115 42.5814 19.692 43.2387C19.3795 43.057 19.0906 42.8375 18.8318 42.5851C18.5378 42.2775 18.1722 42.0475 17.7675 41.9159C17.3628 41.7842 16.9318 41.755 16.5131 41.8308C16.0944 41.9066 15.701 42.0851 15.3682 42.3503C15.0353 42.6154 14.7735 42.959 14.606 43.3502C14.4386 43.7414 14.3708 44.1681 14.4087 44.5919C14.4466 45.0157 14.589 45.4236 14.8232 45.7789C15.0574 46.1342 15.376 46.4258 15.7506 46.6277C16.1252 46.8296 16.544 46.9355 16.9696 46.9358C17.704 46.9358 18.3625 46.6246 18.8318 46.1317C19.1063 45.8598 19.4142 45.6239 19.748 45.4296C19.6958 47.7898 18.8854 49.3321 17.409 49.3321H23.3133C21.8319 49.3321 21.014 47.7811 20.9655 45.4109C21.3613 45.6387 21.7286 45.9113 21.9377 46.1317C22.1771 46.3853 22.4657 46.5874 22.7859 46.7257C23.1062 46.864 23.4512 46.9355 23.8 46.9358C24.2255 46.9355 24.6443 46.8296 25.0189 46.6277C25.3935 46.4258 25.7122 46.1342 25.9464 45.7789C26.1806 45.4236 26.323 45.0157 26.3609 44.5919C26.3988 44.1681 26.331 43.7414 26.1635 43.3502C25.9961 42.959 25.7342 42.6154 25.4014 42.3503C25.0686 42.0851 24.6752 41.9066 24.2564 41.8308C23.8377 41.755 23.4067 41.7842 23.0021 41.9159C22.5974 42.0475 22.2317 42.2775 21.9377 42.5851C21.7385 42.793 21.3937 43.0407 21.0215 43.2586C21.1958 42.5963 21.7497 41.7623 22.1344 41.3963C22.5066 41.0414 22.764 40.5831 22.8732 40.0805C22.9824 39.5779 22.9385 39.0542 22.7472 38.5768C22.5559 38.0994 22.2259 37.6903 21.7998 37.4023C21.3737 37.1142 20.8711 36.9605 20.3568 36.9609Z" fill="black" />
    <path d="M59.3319 16.5703C58.2079 16.5701 57.095 16.7914 56.0566 17.2214C55.0181 17.6515 54.0746 18.2819 53.2799 19.0766C52.4852 19.8713 51.8548 20.8149 51.4247 21.8533C50.9947 22.8917 50.7734 24.0046 50.7736 25.1286C50.7736 27.5685 51.8105 29.7619 53.45 31.3216C54.716 32.5279 56.521 35.2603 57.1223 37.4525C55.9496 36.7454 54.894 35.9412 54.2591 35.274C53.4614 34.4346 52.5006 33.7669 51.4357 33.3121C50.3707 32.8572 49.2241 32.6247 48.0661 32.6287C46.9421 32.6286 45.8292 32.8498 44.7908 33.2799C43.7524 33.7099 42.8088 34.3403 42.0141 35.135C41.2194 35.9298 40.589 36.8733 40.1589 37.9117C39.7289 38.9501 39.5076 40.0631 39.5078 41.187C39.5076 42.3109 39.7289 43.4239 40.1589 44.4623C40.589 45.5007 41.2194 46.4442 42.0141 47.239C42.8088 48.0337 43.7524 48.6641 44.7908 49.0941C45.8292 49.5242 46.9421 49.7454 48.0661 49.7453C50.506 49.7453 52.6981 48.7083 54.2591 47.0688C54.9276 46.3655 56.0592 45.4755 57.309 44.7348C57.1335 52.5835 54.4396 57.7122 49.5288 57.7122H69.1661C64.2415 57.7122 61.5165 52.5573 61.3547 44.6725C62.6718 45.4282 63.8954 46.3394 64.5913 47.0688C65.3874 47.9126 66.3472 48.5851 67.412 49.0453C68.4769 49.5055 69.6244 49.7436 70.7844 49.7453C71.9083 49.7454 73.0213 49.5242 74.0597 49.0941C75.0981 48.6641 76.0416 48.0337 76.8363 47.239C77.6311 46.4442 78.2615 45.5007 78.6915 44.4623C79.1215 43.4239 79.3428 42.3109 79.3426 41.187C79.3428 40.0631 79.1215 38.9501 78.6915 37.9117C78.2615 36.8733 77.6311 35.9298 76.8363 35.135C76.0416 34.3403 75.0981 33.7099 74.0597 33.2799C73.0213 32.8498 71.9083 32.6286 70.7844 32.6287C69.6264 32.6247 68.4797 32.8572 67.4148 33.3121C66.3498 33.7669 65.389 34.4346 64.5913 35.274C63.9303 35.9686 62.7825 36.7915 61.5414 37.5147C62.1228 35.3114 63.9651 32.5391 65.2448 31.3216C66.0843 30.5239 66.7519 29.5631 67.2068 28.4982C67.6617 27.4332 67.8942 26.2866 67.8901 25.1286C67.8903 24.0046 67.669 22.8917 67.239 21.8533C66.809 20.8149 66.1786 19.8713 65.3838 19.0766C64.5891 18.2819 63.6456 17.6515 62.6072 17.2214C61.5687 16.7914 60.4558 16.5701 59.3319 16.5703Z" fill="black" />
    <path d="M59.3319 286.391C58.2079 286.391 57.095 286.17 56.0566 285.739C55.0181 285.309 54.0746 284.679 53.2799 283.884C52.4852 283.09 51.8548 282.146 51.4247 281.108C50.9947 280.069 50.7734 278.956 50.7736 277.832C50.7736 275.392 51.8105 273.199 53.45 271.639C54.716 270.433 56.521 267.701 57.1223 265.508C55.9496 266.216 54.894 267.02 54.2591 267.687C53.4614 268.526 52.5006 269.194 51.4357 269.649C50.3707 270.104 49.2241 270.336 48.0661 270.332C46.9421 270.332 45.8292 270.111 44.7908 269.681C43.7524 269.251 42.8088 268.621 42.0141 267.826C41.2194 267.031 40.589 266.088 40.1589 265.049C39.7289 264.011 39.5076 262.898 39.5078 261.774C39.5076 260.65 39.7289 259.537 40.1589 258.499C40.589 257.46 41.2194 256.517 42.0141 255.722C42.8088 254.927 43.7524 254.297 44.7908 253.867C45.8292 253.437 46.9421 253.216 48.0661 253.216C50.506 253.216 52.6981 254.253 54.2591 255.892C54.9276 256.595 56.0592 257.485 57.309 258.226C57.1335 250.377 54.4396 245.249 49.5288 245.249H69.1661C64.2415 245.249 61.5165 250.404 61.3547 258.288C62.6718 257.533 63.8954 256.622 64.5913 255.892C65.3874 255.048 66.3472 254.376 67.412 253.916C68.4769 253.455 69.6244 253.217 70.7844 253.216C71.9083 253.216 73.0213 253.437 74.0597 253.867C75.0981 254.297 76.0416 254.927 76.8363 255.722C77.6311 256.517 78.2615 257.46 78.6915 258.499C79.1215 259.537 79.3428 260.65 79.3426 261.774C79.3428 262.898 79.1215 264.011 78.6915 265.049C78.2615 266.088 77.6311 267.031 76.8363 267.826C76.0416 268.621 75.0981 269.251 74.0597 269.681C73.0213 270.111 71.9083 270.332 70.7844 270.332C69.6264 270.336 68.4797 270.104 67.4148 269.649C66.3498 269.194 65.389 268.526 64.5913 267.687C63.9303 266.992 62.7825 266.169 61.5414 265.446C62.1228 267.65 63.9651 270.422 65.2448 271.639C66.0843 272.437 66.7519 273.398 67.2068 274.463C67.6617 275.528 67.8942 276.674 67.8901 277.832C67.8903 278.956 67.669 280.069 67.239 281.108C66.809 282.146 66.1786 283.09 65.3838 283.884C64.5891 284.679 63.6456 285.309 62.6072 285.739C61.5687 286.17 60.4558 286.391 59.3319 286.391Z" fill="black" />
    <path d="M147.308 16.5703C146.184 16.5701 145.072 16.7914 144.033 17.2214C142.995 17.6515 142.051 18.2819 141.256 19.0766C140.462 19.8713 139.831 20.8149 139.401 21.8533C138.971 22.8917 138.75 24.0046 138.75 25.1286C138.75 27.5685 139.787 29.7619 141.427 31.3216C142.694 32.5279 144.498 35.2603 145.099 37.4525C143.926 36.7454 142.871 35.9412 142.236 35.274C141.438 34.4346 140.477 33.7669 139.412 33.3121C138.347 32.8572 137.201 32.6247 136.043 32.6287C134.919 32.6286 133.806 32.8498 132.767 33.2799C131.729 33.7099 130.785 34.3403 129.991 35.135C129.196 35.9298 128.566 36.8733 128.136 37.9117C127.705 38.9501 127.484 40.0631 127.484 41.187C127.484 42.3109 127.705 43.4239 128.136 44.4623C128.566 45.5007 129.196 46.4442 129.991 47.239C130.785 48.0337 131.729 48.6641 132.767 49.0941C133.806 49.5242 134.919 49.7454 136.043 49.7453C138.483 49.7453 140.676 48.7083 142.236 47.0688C142.905 46.3655 144.036 45.4755 145.286 44.7348C145.111 52.5835 142.416 57.7122 137.505 57.7122H157.143C152.218 57.7122 149.493 52.5573 149.331 44.6725C150.648 45.4282 151.873 46.3394 152.568 47.0688C153.364 47.9126 154.324 48.5851 155.389 49.0453C156.453 49.5055 157.601 49.7436 158.761 49.7453C159.885 49.7454 160.998 49.5242 162.036 49.0941C163.075 48.6641 164.018 48.0337 164.813 47.239C165.608 46.4442 166.238 45.5007 166.668 44.4623C167.098 43.4239 167.319 42.3109 167.319 41.187C167.319 40.0631 167.098 38.9501 166.668 37.9117C166.238 36.8733 165.608 35.9298 164.813 35.135C164.018 34.3403 163.075 33.7099 162.036 33.2799C160.998 32.8498 159.885 32.6286 158.761 32.6287C157.603 32.6247 156.456 32.8572 155.391 33.3121C154.326 33.7669 153.366 34.4346 152.568 35.274C151.908 35.9686 150.759 36.7915 149.518 37.5147C150.101 35.3114 151.942 32.5391 153.221 31.3216C154.061 30.5239 154.728 29.5631 155.183 28.4982C155.638 27.4332 155.871 26.2866 155.867 25.1286C155.867 24.0046 155.646 22.8917 155.216 21.8533C154.786 20.8149 154.155 19.8713 153.36 19.0766C152.566 18.2819 151.622 17.6515 150.584 17.2214C149.545 16.7914 148.432 16.5701 147.308 16.5703Z" fill="black" />
    <path d="M147.308 286.391C146.184 286.391 145.072 286.17 144.033 285.739C142.995 285.309 142.051 284.679 141.256 283.884C140.462 283.09 139.831 282.146 139.401 281.108C138.971 280.069 138.75 278.956 138.75 277.832C138.75 275.392 139.787 273.199 141.427 271.639C142.694 270.433 144.498 267.701 145.099 265.508C143.926 266.216 142.871 267.02 142.236 267.687C141.438 268.526 140.477 269.194 139.412 269.649C138.347 270.104 137.201 270.336 136.043 270.332C134.919 270.332 133.806 270.111 132.767 269.681C131.729 269.251 130.785 268.621 129.991 267.826C129.196 267.031 128.566 266.088 128.136 265.049C127.705 264.011 127.484 262.898 127.484 261.774C127.484 260.65 127.705 259.537 128.136 258.499C128.566 257.46 129.196 256.517 129.991 255.722C130.785 254.927 131.729 254.297 132.767 253.867C133.806 253.437 134.919 253.216 136.043 253.216C138.483 253.216 140.676 254.253 142.236 255.892C142.905 256.595 144.036 257.485 145.286 258.226C145.111 250.377 142.416 245.249 137.505 245.249H157.143C152.218 245.249 149.493 250.404 149.331 258.288C150.648 257.533 151.873 256.622 152.568 255.892C153.364 255.048 154.324 254.376 155.389 253.916C156.453 253.455 157.601 253.217 158.761 253.216C159.885 253.216 160.998 253.437 162.036 253.867C163.075 254.297 164.018 254.927 164.813 255.722C165.608 256.517 166.238 257.46 166.668 258.499C167.098 259.537 167.319 260.65 167.319 261.774C167.319 262.898 167.098 264.011 166.668 265.049C166.238 266.088 165.608 267.031 164.813 267.826C164.018 268.621 163.075 269.251 162.036 269.681C160.998 270.111 159.885 270.332 158.761 270.332C157.603 270.336 156.456 270.104 155.391 269.649C154.326 269.194 153.366 268.526 152.568 267.687C151.908 266.992 150.759 266.169 149.518 265.446C150.101 267.65 151.942 270.422 153.221 271.639C154.061 272.437 154.728 273.398 155.183 274.463C155.638 275.528 155.871 276.674 155.867 277.832C155.867 278.956 155.646 280.069 155.216 281.108C154.786 282.146 154.155 283.09 153.36 283.884C152.566 284.679 151.622 285.309 150.584 285.739C149.545 286.17 148.432 286.391 147.308 286.391Z" fill="black" />
    <path d="M59.3319 130.93C58.2079 130.93 57.095 131.151 56.0566 131.581C55.0181 132.011 54.0746 132.641 53.2799 133.436C52.4852 134.231 51.8548 135.174 51.4247 136.213C50.9947 137.251 50.7734 138.364 50.7736 139.488C50.7736 141.928 51.8105 144.121 53.45 145.681C54.716 146.887 56.521 149.62 57.1223 151.812C55.9496 151.105 54.894 150.301 54.2591 149.633C53.4614 148.794 52.5006 148.126 51.4357 147.671C50.3707 147.217 49.2241 146.984 48.0661 146.988C46.9421 146.988 45.8292 147.209 44.7908 147.639C43.7524 148.069 42.8088 148.7 42.0141 149.494C41.2194 150.289 40.589 151.233 40.1589 152.271C39.7289 153.309 39.5076 154.422 39.5078 155.546C39.5076 156.67 39.7289 157.783 40.1589 158.822C40.589 159.86 41.2194 160.804 42.0141 161.598C42.8088 162.393 43.7524 163.023 44.7908 163.453C45.8292 163.884 46.9421 164.105 48.0661 164.105C50.506 164.105 52.6981 163.068 54.2591 161.428C54.9276 160.725 56.0592 159.835 57.309 159.094C57.1335 166.943 54.4396 172.072 49.5288 172.072H69.1661C64.2415 172.072 61.5165 166.917 61.3547 159.032C62.6718 159.788 63.8954 160.699 64.5913 161.428C65.3874 162.272 66.3472 162.944 67.412 163.405C68.4769 163.865 69.6244 164.103 70.7844 164.105C71.9083 164.105 73.0213 163.884 74.0597 163.453C75.0981 163.023 76.0416 162.393 76.8363 161.598C77.6311 160.804 78.2615 159.86 78.6915 158.822C79.1215 157.783 79.3428 156.67 79.3426 155.546C79.3428 154.422 79.1215 153.309 78.6915 152.271C78.2615 151.233 77.6311 150.289 76.8363 149.494C76.0416 148.7 75.0981 148.069 74.0597 147.639C73.0213 147.209 71.9083 146.988 70.7844 146.988C69.6264 146.984 68.4797 147.217 67.4148 147.671C66.3498 148.126 65.389 148.794 64.5913 149.633C63.9303 150.328 62.7825 151.151 61.5414 151.874C62.1228 149.671 63.9651 146.898 65.2448 145.681C66.0843 144.883 66.7519 143.922 67.2068 142.858C67.6617 141.793 67.8942 140.646 67.8901 139.488C67.8903 138.364 67.669 137.251 67.239 136.213C66.809 135.174 66.1786 134.231 65.3838 133.436C64.5891 132.641 63.6456 132.011 62.6072 131.581C61.5687 131.151 60.4558 130.93 59.3319 130.93Z" fill="black" />
    <path d="M147.308 130.93C146.184 130.93 145.072 131.151 144.033 131.581C142.995 132.011 142.051 132.641 141.256 133.436C140.462 134.231 139.831 135.174 139.401 136.213C138.971 137.251 138.75 138.364 138.75 139.488C138.75 141.928 139.787 144.121 141.427 145.681C142.693 146.887 144.498 149.62 145.099 151.812C143.926 151.105 142.871 150.301 142.236 149.633C141.438 148.794 140.477 148.126 139.412 147.671C138.347 147.217 137.201 146.984 136.043 146.988C134.919 146.988 133.806 147.209 132.767 147.639C131.729 148.069 130.785 148.7 129.991 149.494C129.196 150.289 128.566 151.233 128.135 152.271C127.705 153.309 127.484 154.422 127.484 155.546C127.484 156.67 127.705 157.783 128.135 158.822C128.566 159.86 129.196 160.804 129.991 161.598C130.785 162.393 131.729 163.023 132.767 163.453C133.806 163.884 134.919 164.105 136.043 164.105C138.483 164.105 140.675 163.068 142.236 161.428C142.904 160.725 144.036 159.835 145.286 159.094C145.11 166.943 142.416 172.072 137.505 172.072H157.143C152.218 172.072 149.493 166.917 149.331 159.032C150.648 159.788 151.872 160.699 152.568 161.428C153.364 162.272 154.324 162.944 155.389 163.405C156.453 163.865 157.601 164.103 158.761 164.105C159.885 164.105 160.998 163.884 162.036 163.453C163.075 163.023 164.018 162.393 164.813 161.598C165.608 160.804 166.238 159.86 166.668 158.822C167.098 157.783 167.319 156.67 167.319 155.546C167.319 154.422 167.098 153.309 166.668 152.271C166.238 151.233 165.608 150.289 164.813 149.494C164.018 148.7 163.075 148.069 162.036 147.639C160.998 147.209 159.885 146.988 158.761 146.988C157.603 146.984 156.456 147.217 155.391 147.671C154.326 148.126 153.366 148.794 152.568 149.633C151.907 150.328 150.759 151.151 149.518 151.874C150.099 149.671 151.942 146.898 153.221 145.681C154.061 144.883 154.728 143.922 155.183 142.858C155.638 141.793 155.871 140.646 155.867 139.488C155.867 138.364 155.646 137.251 155.216 136.213C154.786 135.174 154.155 134.231 153.36 133.436C152.566 132.641 151.622 132.011 150.584 131.581C149.545 131.151 148.432 130.93 147.308 130.93Z" fill="black" />
  </g>
  <defs>
    <clipPath id="clip0_872_2002">
      <rect width="208" height="303" fill="white" />
    </clipPath>
  </defs>
</svg>
