<svg width="208" height="303" viewBox="0 0 208 303" fill="none" xmlns="http://www.w3.org/2000/svg">
  <g clip-path="url(#clip0_872_816)">
    <path d="M207.69 294.112C207.69 298.832 203.848 302.69 199.138 302.69H8.85392C4.15407 302.69 0.3125 298.832 0.3125 294.112V8.89073C0.3125 4.17728 4.15407 0.3125 8.85392 0.3125H199.138C203.848 0.3125 207.69 4.17728 207.69 8.89073V294.112Z" fill="white" stroke="black" stroke-width="0.622432" />
    <path d="M13.9521 33H8.75102L16.676 10.0433H22.9308L30.8446 33H25.6435L19.8931 15.2893H19.7137L13.9521 33ZM13.6271 23.9765H25.9125V27.7653H13.6271V23.9765Z" fill="#E61408" />
    <path d="M181.952 270H176.751L184.676 292.957H190.931L198.845 270H193.643L187.893 287.711H187.714L181.952 270ZM181.627 279.023H193.912V275.235H181.627V279.023Z" fill="#E61408" />
    <path d="M94.2033 131.406C88.8409 131.418 84.4804 136.001 84.5158 141.625C84.591 153.55 99.5692 162.175 103.985 171.594C108.4 162.175 123.409 153.55 123.485 141.625C123.52 136.001 119.159 131.418 113.797 131.406C108.435 131.395 104 135.959 103.985 141.594C103.969 135.959 99.5657 131.395 94.2033 131.406Z" fill="#E61408" />
    <path d="M17.4364 37.1016C15.824 37.105 14.5128 38.4832 14.5235 40.1742C14.5461 43.7599 19.0498 46.3531 20.3775 49.1853C21.7051 46.3531 26.2182 43.7599 26.2408 40.1742C26.2515 38.4832 24.9403 37.105 23.3279 37.1016C21.7155 37.0983 20.3822 38.4705 20.3775 40.1648C20.3727 38.4705 19.0488 37.0983 17.4364 37.1016Z" fill="#E61408" />
    <path d="M184.671 265.516C183.058 265.512 181.747 264.134 181.758 262.443C181.78 258.857 186.284 256.264 187.612 253.432C188.939 256.264 193.453 258.857 193.475 262.443C193.486 264.134 192.175 265.512 190.562 265.516C188.95 265.519 187.617 264.147 187.612 262.452C187.607 264.147 186.283 265.519 184.671 265.516Z" fill="#E61408" />
  </g>
  <defs>
    <clipPath id="clip0_872_816">
      <rect width="208" height="303" fill="white" />
    </clipPath>
  </defs>
</svg>
