<svg width="208" height="303" viewBox="0 0 208 303" fill="none" xmlns="http://www.w3.org/2000/svg">
  <g clip-path="url(#clip0_872_282)">
    <path d="M207.69 294.112C207.69 298.832 203.848 302.69 199.138 302.69H8.85392C4.15407 302.69 0.3125 298.832 0.3125 294.112V8.89073C0.3125 4.17728 4.15407 0.3125 8.85392 0.3125H199.138C203.848 0.3125 207.69 4.17728 207.69 8.89073V294.112Z" fill="white" stroke="black" stroke-width="0.622432" />
    <path d="M23.3008 10V13.9291H17.9713V18.877C18.2703 18.3609 18.5998 17.9713 18.959 17.7081C19.3183 17.4455 19.6975 17.3136 20.0969 17.3136C21.3345 17.3136 22.307 18.0132 23.0158 19.4113C23.7245 20.8093 24.0789 22.7112 24.0789 25.1165C24.0789 27.5624 23.7233 29.4668 23.0121 30.8296C22.3009 32.193 21.2992 32.8744 20.0075 32.8744C19.4666 32.8744 18.9256 32.7729 18.3846 32.5711C17.8436 32.3687 17.2783 32.055 16.6875 31.6295V26.7279H17.5044C17.5342 28.2086 17.7075 29.3112 18.0235 30.0364C18.3396 30.7615 18.8034 31.1238 19.4149 31.1238C20.0768 31.1238 20.5655 30.6308 20.8816 29.6443C21.1977 28.6578 21.3557 27.1528 21.3557 25.1298C21.3557 23.1373 21.2007 21.6475 20.8907 20.661C20.5807 19.6744 20.1109 19.1809 19.4812 19.1809C19.1408 19.1809 18.8387 19.3383 18.5736 19.6526C18.3086 19.9674 18.0612 20.4537 17.8315 21.1126H17.1543V10H23.3008Z" fill="#E61408" />
    <path d="M184.7 292.999V289.07H190.029V284.122C189.73 284.639 189.4 285.029 189.041 285.292C188.683 285.555 188.303 285.686 187.903 285.686C186.666 285.686 185.693 284.987 184.984 283.589C184.276 282.191 183.922 280.288 183.922 277.884C183.922 275.438 184.277 273.534 184.988 272.17C185.699 270.807 186.701 270.125 187.992 270.125C188.534 270.125 189.074 270.227 189.616 270.429C190.156 270.631 190.722 270.944 191.313 271.37V276.272H190.496C190.466 274.791 190.292 273.689 189.976 272.964C189.66 272.238 189.197 271.876 188.585 271.876C187.924 271.876 187.435 272.369 187.119 273.356C186.803 274.342 186.645 275.847 186.645 277.87C186.645 279.863 186.799 281.353 187.109 282.339C187.419 283.325 187.89 283.819 188.52 283.819C188.86 283.819 189.161 283.662 189.427 283.347C189.692 283.033 189.94 282.547 190.168 281.888H190.846V292.999H184.7Z" fill="#E61408" />
    <path d="M94.2033 131.406C88.8409 131.418 84.4804 136.001 84.5158 141.625C84.591 153.55 99.5692 162.175 103.985 171.594C108.4 162.175 123.409 153.55 123.485 141.625C123.52 136.001 119.159 131.418 113.797 131.406C108.435 131.395 104 135.959 103.985 141.594C103.969 135.959 99.5657 131.395 94.2033 131.406Z" fill="#E61408" />
    <path d="M17.4364 37.1016C15.824 37.105 14.5128 38.4832 14.5235 40.1742C14.5461 43.7599 19.0498 46.3531 20.3775 49.1853C21.7051 46.3531 26.2182 43.7599 26.2408 40.1742C26.2515 38.4832 24.9403 37.105 23.3279 37.1016C21.7155 37.0983 20.3822 38.4705 20.3775 40.1648C20.3727 38.4705 19.0488 37.0983 17.4364 37.1016Z" fill="#E61408" />
    <path d="M184.671 265.516C183.058 265.512 181.747 264.134 181.758 262.443C181.78 258.857 186.284 256.264 187.612 253.432C188.939 256.264 193.453 258.857 193.475 262.443C193.486 264.134 192.175 265.512 190.562 265.516C188.95 265.519 187.617 264.147 187.612 262.452C187.607 264.147 186.283 265.519 184.671 265.516Z" fill="#E61408" />
    <path d="M49.633 17.0469C44.2706 17.0584 39.9101 21.6419 39.9455 27.2656C40.0207 39.191 54.9989 47.8153 59.4143 57.2344C63.8297 47.8153 78.8391 39.191 78.9143 27.2656C78.9497 21.6419 74.5892 17.0584 69.2268 17.0469C63.8644 17.0359 59.4301 21.5997 59.4143 27.2344C59.3985 21.5997 54.9954 17.0359 49.633 17.0469Z" fill="#E61408" />
    <path d="M137.602 17.0469C132.239 17.0584 127.879 21.6419 127.914 27.2656C127.989 39.191 142.968 47.8153 147.383 57.2344C151.798 47.8153 166.808 39.191 166.883 27.2656C166.918 21.6419 162.558 17.0584 157.196 17.0469C151.833 17.0359 147.399 21.5997 147.383 27.2344C147.367 21.5997 142.964 17.0359 137.602 17.0469Z" fill="#E61408" />
    <path d="M49.633 285.922C44.2706 285.91 39.9101 281.327 39.9455 275.703C40.0207 263.778 54.9989 255.153 59.4143 245.734C63.8297 255.153 78.8391 263.778 78.9143 275.703C78.9497 281.327 74.5892 285.91 69.2268 285.922C63.8644 285.933 59.4301 281.369 59.4143 275.734C59.3985 281.369 54.9954 285.933 49.633 285.922Z" fill="#E61408" />
    <path d="M137.602 285.922C132.239 285.91 127.879 281.327 127.914 275.703C127.989 263.778 142.968 255.153 147.383 245.734C151.798 255.153 166.808 263.778 166.883 275.703C166.918 281.327 162.558 285.91 157.196 285.922C151.833 285.933 147.399 281.369 147.383 275.734C147.367 281.369 142.964 285.933 137.602 285.922Z" fill="#E61408" />
  </g>
  <defs>
    <clipPath id="clip0_872_282">
      <rect width="208" height="303" fill="white" />
    </clipPath>
  </defs>
</svg>
