<svg width="208" height="303" viewBox="0 0 208 303" fill="none" xmlns="http://www.w3.org/2000/svg">
  <g clip-path="url(#clip0_872_220)">
    <path d="M207.69 294.112C207.69 298.832 203.848 302.69 199.138 302.69H8.85392C4.15407 302.69 0.3125 298.832 0.3125 294.112V8.89073C0.3125 4.17728 4.15407 0.3125 8.85392 0.3125H199.138C203.848 0.3125 207.69 4.17728 207.69 8.89073V294.112Z" fill="white" stroke="black" stroke-width="0.622432" />
    <path d="M21.8369 23.5227C21.5354 24.0539 21.2048 24.4527 20.8437 24.7183C20.4826 24.9839 20.0912 25.1165 19.6706 25.1165C18.6579 25.1165 17.858 24.4466 17.2708 23.1063C16.6836 21.7666 16.3906 19.917 16.3906 17.5579C16.3906 15.0688 16.7176 13.1517 17.3705 11.8065C18.0233 10.4619 18.9582 9.78906 20.1751 9.78906C21.5512 9.78906 22.5943 10.7172 23.3018 12.5724C24.0118 14.4281 24.3655 17.1458 24.3655 20.726C24.3655 24.8083 23.9729 27.8894 23.1875 29.9701C22.4034 32.0514 21.2364 33.0914 19.6876 33.0914C19.2852 33.0914 18.8524 33.0166 18.3904 32.8677C17.9273 32.7182 17.43 32.4951 16.8964 32.1966V28.2286H17.7133C17.8336 29.251 18.0488 30.0254 18.36 30.5518C18.6713 31.0782 19.0724 31.3408 19.5648 31.3408C20.3574 31.3408 20.9312 30.7269 21.2874 29.499C21.6436 28.2712 21.826 26.2793 21.8369 23.5227ZM20.3392 11.5397C19.8687 11.5397 19.5344 11.9797 19.335 12.8587C19.1356 13.7382 19.036 15.2633 19.036 17.4333C19.036 19.6039 19.1356 21.129 19.335 22.0079C19.5344 22.8875 19.8687 23.327 20.3392 23.327C20.8097 23.327 21.144 22.8875 21.3433 22.0079C21.5427 21.129 21.6424 19.6039 21.6424 17.4333C21.6424 15.2633 21.5427 13.7382 21.3433 12.8587C21.144 11.9797 20.8097 11.5397 20.3392 11.5397Z" fill="#E61408" />
    <path d="M186.161 279.476C186.463 278.944 186.794 278.545 187.156 278.28C187.516 278.015 187.907 277.881 188.328 277.881C189.342 277.881 190.142 278.552 190.728 279.892C191.316 281.232 191.608 283.082 191.608 285.44C191.608 287.93 191.282 289.846 190.628 291.192C189.976 292.536 189.04 293.209 187.825 293.209C186.448 293.209 185.405 292.281 184.695 290.426C183.988 288.569 183.633 285.852 183.633 282.272C183.633 278.19 184.027 275.109 184.81 273.028C185.595 270.947 186.762 269.906 188.311 269.906C188.714 269.906 189.145 269.982 189.609 270.13C190.071 270.281 190.57 270.503 191.102 270.801V274.769H190.285C190.166 273.748 189.95 272.972 189.638 272.447C189.327 271.919 188.926 271.657 188.435 271.657C187.642 271.657 187.068 272.272 186.711 273.5C186.356 274.728 186.171 276.719 186.161 279.476ZM187.659 291.458C188.131 291.458 188.464 291.018 188.663 290.14C188.863 289.26 188.962 287.736 188.962 285.564C188.962 283.394 188.863 281.869 188.663 280.991C188.464 280.111 188.131 279.671 187.659 279.671C187.19 279.671 186.854 280.111 186.655 280.991C186.456 281.869 186.356 283.394 186.356 285.564C186.356 287.736 186.456 289.26 186.655 290.14C186.854 291.018 187.19 291.458 187.659 291.458Z" fill="#E61408" />
    <path d="M94.2033 131.406C88.8409 131.418 84.4804 136.001 84.5158 141.625C84.591 153.55 99.5692 162.175 103.985 171.594C108.4 162.175 123.409 153.55 123.485 141.625C123.52 136.001 119.159 131.418 113.797 131.406C108.435 131.395 104 135.959 103.985 141.594C103.969 135.959 99.5657 131.395 94.2033 131.406Z" fill="#E61408" />
    <path d="M17.4364 37.1016C15.824 37.105 14.5128 38.4832 14.5235 40.1742C14.5461 43.7599 19.0498 46.3531 20.3775 49.1853C21.7051 46.3531 26.2182 43.7599 26.2408 40.1742C26.2515 38.4832 24.9403 37.105 23.3279 37.1016C21.7155 37.0983 20.3822 38.4705 20.3775 40.1648C20.3727 38.4705 19.0488 37.0983 17.4364 37.1016Z" fill="#E61408" />
    <path d="M184.671 265.516C183.058 265.512 181.747 264.134 181.758 262.443C181.78 258.857 186.284 256.264 187.612 253.432C188.939 256.264 193.453 258.857 193.475 262.443C193.486 264.134 192.175 265.512 190.562 265.516C188.95 265.519 187.617 264.147 187.612 262.452C187.607 264.147 186.283 265.519 184.671 265.516Z" fill="#E61408" />
    <path d="M49.633 17.0469C44.2706 17.0584 39.9101 21.6419 39.9455 27.2656C40.0207 39.191 54.9989 47.8153 59.4143 57.2344C63.8297 47.8153 78.8391 39.191 78.9143 27.2656C78.9497 21.6419 74.5892 17.0584 69.2268 17.0469C63.8644 17.0359 59.4301 21.5997 59.4143 27.2344C59.3985 21.5997 54.9954 17.0359 49.633 17.0469Z" fill="#E61408" />
    <path d="M137.602 17.0469C132.239 17.0584 127.879 21.6419 127.914 27.2656C127.989 39.191 142.968 47.8153 147.383 57.2344C151.798 47.8153 166.808 39.191 166.883 27.2656C166.918 21.6419 162.558 17.0584 157.196 17.0469C151.833 17.0359 147.399 21.5997 147.383 27.2344C147.367 21.5997 142.964 17.0359 137.602 17.0469Z" fill="#E61408" />
    <path d="M49.633 93.2813C44.2706 93.2928 39.9101 97.8763 39.9455 103.5C40.0207 115.425 54.9989 124.05 59.4143 133.469C63.8297 124.05 78.8391 115.425 78.9143 103.5C78.9497 97.8763 74.5892 93.2928 69.2268 93.2813C63.8644 93.2703 59.4301 97.8341 59.4143 103.469C59.3985 97.8341 54.9954 93.2703 49.633 93.2813Z" fill="#E61408" />
    <path d="M137.602 93.2813C132.239 93.2928 127.879 97.8763 127.914 103.5C127.989 115.425 142.968 124.05 147.383 133.469C151.798 124.05 166.808 115.425 166.883 103.5C166.918 97.8763 162.558 93.2928 157.196 93.2813C151.833 93.2703 147.399 97.8341 147.383 103.469C147.367 97.8341 142.964 93.2703 137.602 93.2813Z" fill="#E61408" />
    <path d="M137.602 285.922C132.239 285.91 127.879 281.327 127.914 275.703C127.989 263.778 142.968 255.154 147.383 245.734C151.798 255.154 166.808 263.778 166.883 275.703C166.918 281.327 162.558 285.91 157.196 285.922C151.833 285.933 147.399 281.369 147.383 275.734C147.367 281.369 142.964 285.933 137.602 285.922Z" fill="#E61408" />
    <path d="M49.633 285.922C44.2706 285.91 39.9101 281.327 39.9455 275.703C40.0207 263.778 54.9989 255.153 59.4143 245.734C63.8297 255.153 78.8391 263.778 78.9143 275.703C78.9497 281.327 74.5892 285.91 69.2268 285.922C63.8644 285.933 59.4301 281.369 59.4143 275.734C59.3985 281.369 54.9954 285.933 49.633 285.922Z" fill="#E61408" />
    <path d="M136.11 209.695C130.747 209.684 126.387 205.1 126.422 199.477C126.497 187.551 141.475 178.927 145.891 169.508C150.306 178.927 165.316 187.551 165.391 199.477C165.426 205.1 161.066 209.684 155.703 209.695C150.341 209.706 145.907 205.143 145.891 199.508C145.875 205.143 141.472 209.706 136.11 209.695Z" fill="#E61408" />
    <path d="M49.633 209.695C44.2706 209.684 39.9101 205.1 39.9455 199.477C40.0207 187.551 54.9989 178.927 59.4143 169.508C63.8297 178.927 78.8391 187.551 78.9143 199.477C78.9497 205.1 74.5892 209.684 69.2268 209.695C63.8644 209.706 59.4301 205.143 59.4143 199.508C59.3985 205.143 54.9954 209.706 49.633 209.695Z" fill="#E61408" />
  </g>
  <defs>
    <clipPath id="clip0_872_220">
      <rect width="208" height="303" fill="white" />
    </clipPath>
  </defs>
</svg>
