<svg width="208" height="303" viewBox="0 0 208 303" fill="none" xmlns="http://www.w3.org/2000/svg">
  <g clip-path="url(#clip0_872_198)">
    <path d="M207.694 8.87511C207.694 4.15496 203.848 0.296875 199.142 0.296875L8.86469 0.296925C4.1545 0.296925 0.320312 4.15501 0.320312 8.87516L0.32035 294.099C0.32035 298.817 4.15453 302.676 8.86012 302.676H199.138C203.843 302.676 207.69 298.817 207.69 294.099V8.87516V8.88363L207.694 8.87511Z" fill="white" stroke="black" stroke-width="0.622432" />
    <path d="M49.6253 17.0547C44.2624 17.0659 39.9016 21.6495 39.9377 27.2726C40.0124 39.1984 54.9906 47.8228 59.4062 57.2414C63.8217 47.8228 78.831 39.1984 78.9057 27.2726C78.9418 21.6495 74.5811 17.0659 69.2182 17.0547C63.8566 17.0435 59.4223 21.6072 59.4062 27.2414C59.39 21.6072 54.9869 17.0435 49.6253 17.0547Z" fill="#E61408" />
    <path d="M49.6253 93.2891C44.2624 93.3003 39.9016 97.8839 39.9377 103.507C40.0124 115.433 54.9906 124.057 59.4062 133.476C63.8217 124.057 78.831 115.433 78.9057 103.507C78.9418 97.8839 74.5811 93.3003 69.2182 93.2891C63.8566 93.2779 59.4223 97.8416 59.4062 103.476C59.39 97.8416 54.9869 93.2779 49.6253 93.2891Z" fill="#E61408" />
    <path d="M158.375 17.0547C163.738 17.0659 168.098 21.6495 168.062 27.2726C167.988 39.1984 153.009 47.8228 148.594 57.2414C144.178 47.8228 129.169 39.1984 129.094 27.2726C129.058 21.6495 133.419 17.0659 138.782 17.0547C144.143 17.0435 148.578 21.6072 148.594 27.2414C148.61 21.6072 153.013 17.0435 158.375 17.0547Z" fill="#E61408" />
    <path d="M158.375 93.2891C163.738 93.3003 168.098 97.8839 168.062 103.507C167.988 115.433 153.009 124.057 148.594 133.476C144.178 124.057 129.169 115.433 129.094 103.507C129.058 97.8839 133.419 93.3003 138.782 93.2891C144.143 93.2779 148.578 97.8416 148.594 103.476C148.61 97.8416 153.013 93.2779 158.375 93.2891Z" fill="#E61408" />
    <path d="M18.0918 6.63912V21.7422H14.8986V9.67005H14.8101L11.3514 11.8382V9.00635L15.0903 6.63912H18.0918ZM27.6031 22.074C26.3347 22.0691 25.2432 21.7569 24.3288 21.1375C23.4193 20.518 22.7187 19.6208 22.227 18.4458C21.7403 17.2708 21.4994 15.8573 21.5043 14.2054C21.5043 12.5584 21.7477 11.1548 22.2344 9.99453C22.7261 8.83427 23.4266 7.95178 24.3362 7.34707C25.2506 6.73744 26.3396 6.43263 27.6031 6.43263C28.8666 6.43263 29.9531 6.73744 30.8626 7.34707C31.7771 7.9567 32.4801 8.84165 32.9718 10.0019C33.4634 11.1573 33.7068 12.5584 33.7018 14.2054C33.7018 15.8622 33.456 17.2781 32.9644 18.4531C32.4777 19.6282 31.7795 20.5254 30.87 21.1448C29.9605 21.7643 28.8715 22.074 27.6031 22.074ZM27.6031 19.4266C28.4684 19.4266 29.1591 18.9915 29.6753 18.1213C30.1916 17.2511 30.4472 15.9458 30.4423 14.2054C30.4423 13.0599 30.3243 12.1061 30.0883 11.3441C29.8572 10.582 29.5279 10.0093 29.1001 9.62581C28.6773 9.24233 28.1783 9.05059 27.6031 9.05059C26.7427 9.05059 26.0544 9.48077 25.5382 10.3411C25.022 11.2015 24.7614 12.4896 24.7565 14.2054C24.7565 15.3657 24.8721 16.3342 25.1031 17.111C25.3391 17.8828 25.671 18.463 26.0987 18.8514C26.5264 19.2348 27.0279 19.4266 27.6031 19.4266Z" fill="#E61408" />
    <path d="M17.4367 37.1016C15.8283 37.1049 14.5205 38.4832 14.5313 40.174C14.5537 43.7599 19.0458 46.3532 20.3701 49.1853C21.6944 46.3532 26.1958 43.7599 26.2182 40.174C26.229 38.4832 24.9212 37.1049 23.3128 37.1016C21.7048 37.0982 20.3749 38.4705 20.3701 40.1646C20.3652 38.4705 19.0447 37.0982 17.4367 37.1016Z" fill="#E61408" />
    <path d="M94.2034 55.1641C88.8405 55.1753 84.4797 59.7589 84.5158 65.3819C84.5905 77.3077 99.5688 85.9322 103.984 95.3508C108.4 85.9322 123.409 77.3077 123.484 65.3819C123.52 59.7589 119.159 55.1753 113.796 55.1641C108.435 55.1529 104 59.7166 103.984 65.3508C103.968 59.7166 99.565 55.1529 94.2034 55.1641Z" fill="#E61408" />
    <path d="M158.375 285.937C163.738 285.926 168.098 281.343 168.062 275.72C167.988 263.794 153.009 255.169 148.594 245.751C144.178 255.169 129.169 263.794 129.094 275.72C129.058 281.343 133.419 285.926 138.782 285.937C144.143 285.949 148.578 281.385 148.594 275.751C148.61 281.385 153.013 285.949 158.375 285.937Z" fill="#E61408" />
    <path d="M158.375 209.703C163.738 209.692 168.098 205.108 168.062 199.485C167.988 187.559 153.009 178.935 148.594 169.516C144.178 178.935 129.169 187.559 129.094 199.485C129.058 205.108 133.419 209.692 138.782 209.703C144.143 209.714 148.578 205.151 148.594 199.516C148.61 205.151 153.013 209.714 158.375 209.703Z" fill="#E61408" />
    <path d="M49.6253 285.937C44.2624 285.926 39.9016 281.343 39.9377 275.72C40.0124 263.794 54.9906 255.169 59.4062 245.751C63.8217 255.169 78.831 263.794 78.9057 275.72C78.9418 281.343 74.5811 285.926 69.2182 285.937C63.8566 285.949 59.4223 281.385 59.4062 275.751C59.39 281.385 54.9869 285.949 49.6253 285.937Z" fill="#E61408" />
    <path d="M49.6253 209.703C44.2624 209.692 39.9016 205.108 39.9377 199.485C40.0124 187.559 54.9906 178.935 59.4062 169.516C63.8217 178.935 78.831 187.559 78.9057 199.485C78.9418 205.108 74.5811 209.692 69.2182 209.703C63.8566 209.714 59.4223 205.151 59.4062 199.516C59.39 205.151 54.9869 209.714 49.6253 209.703Z" fill="#E61408" />
    <path d="M189.908 296.353V281.25H193.101V293.322H193.19L196.649 291.154V293.986L192.91 296.353H189.908ZM180.397 280.918C181.665 280.923 182.757 281.235 183.671 281.855C184.581 282.474 185.281 283.371 185.773 284.546C186.26 285.721 186.501 287.135 186.496 288.787C186.496 290.434 186.252 291.837 185.766 292.998C185.274 294.158 184.573 295.04 183.664 295.645C182.749 296.255 181.66 296.56 180.397 296.56C179.133 296.56 178.047 296.255 177.137 295.645C176.223 295.035 175.52 294.151 175.028 292.99C174.537 291.835 174.293 290.434 174.298 288.787C174.298 287.13 174.544 285.714 175.036 284.539C175.522 283.364 176.22 282.467 177.13 281.847C178.04 281.228 179.128 280.918 180.397 280.918ZM180.397 283.566C179.532 283.566 178.841 284.001 178.325 284.871C177.808 285.741 177.553 287.046 177.558 288.787C177.558 289.932 177.676 290.886 177.912 291.648C178.143 292.41 178.472 292.983 178.9 293.366C179.323 293.75 179.822 293.942 180.397 293.942C181.257 293.942 181.946 293.511 182.462 292.651C182.978 291.791 183.239 290.503 183.243 288.787C183.243 287.627 183.128 286.658 182.897 285.881C182.661 285.109 182.329 284.529 181.901 284.141C181.474 283.757 180.972 283.566 180.397 283.566Z" fill="#E61408" />
    <path d="M190.563 265.891C192.172 265.887 193.48 264.509 193.469 262.818C193.446 259.232 188.954 256.639 187.63 253.807C186.306 256.639 181.804 259.232 181.782 262.818C181.771 264.509 183.079 265.887 184.687 265.891C186.295 265.894 187.625 264.522 187.63 262.828C187.635 264.522 188.955 265.894 190.563 265.891Z" fill="#E61408" />
    <path d="M113.797 247.828C119.159 247.817 123.52 243.233 123.484 237.61C123.409 225.684 108.431 217.06 104.016 207.641C99.6002 217.06 84.5908 225.684 84.5162 237.61C84.48 243.233 88.8408 247.817 94.2037 247.828C99.5653 247.839 104 243.276 104.016 237.641C104.032 243.276 108.435 247.839 113.797 247.828Z" fill="#E61408" />
  </g>
  <defs>
    <clipPath id="clip0_872_198">
      <rect width="208" height="303" fill="white" />
    </clipPath>
  </defs>
</svg>
