<svg width="209" height="303" viewBox="0 0 209 303" fill="none" xmlns="http://www.w3.org/2000/svg">
  <g clip-path="url(#clip0_872_23)">
    <path d="M208.19 294.112C208.19 298.832 204.348 302.69 199.638 302.69H9.35393C4.65407 302.69 0.8125 298.832 0.8125 294.112V8.89073C0.8125 4.17728 4.65407 0.3125 9.35393 0.3125H199.638C204.348 0.3125 208.19 4.17728 208.19 8.89073V294.112Z" fill="white" stroke="black" stroke-width="0.622432" />
    <path d="M22.4831 20.6786C23.2879 20.9704 23.8987 21.628 24.3163 22.6523C24.7339 23.6765 24.943 25.0174 24.943 26.6744C24.943 28.7435 24.5941 30.3299 23.8963 31.4344C23.1985 32.5395 22.1925 33.0914 20.8778 33.0914C19.5624 33.0914 18.5564 32.5395 17.8586 31.4344C17.1608 30.3299 16.8125 28.7435 16.8125 26.6744C16.8125 25.0174 17.0192 23.6765 17.4331 22.6523C17.8471 21.628 18.4482 20.9704 19.236 20.6786C18.5449 20.3181 18.0264 19.7145 17.6811 18.8684C17.3352 18.0223 17.1626 16.9489 17.1626 15.6469C17.1626 13.7443 17.4793 12.2928 18.1139 11.291C18.7479 10.2899 19.6694 9.78906 20.8778 9.78906C22.0758 9.78906 22.9943 10.2899 23.6337 11.291C24.2732 12.2928 24.5929 13.7443 24.5929 15.6469C24.5929 16.9489 24.4178 18.0223 24.0689 18.8684C23.72 19.7145 23.1912 20.3181 22.4831 20.6786ZM22.2588 26.4209C22.2588 24.5797 22.1548 23.3118 21.9482 22.6176C21.7415 21.9235 21.3804 21.5764 20.8656 21.5764C20.3508 21.5764 19.9873 21.9235 19.7757 22.6176C19.5636 23.3118 19.4578 24.5797 19.4578 26.4209C19.4578 28.2821 19.5636 29.5677 19.7757 30.2771C19.9873 30.9864 20.3508 31.3408 20.8656 31.3408C21.3701 31.3408 21.7287 30.9864 21.9409 30.2771C22.1524 29.5677 22.2588 28.2821 22.2588 26.4209ZM21.9865 15.7052C21.9865 14.1212 21.9026 13.0313 21.7348 12.4344C21.5671 11.8381 21.2814 11.5397 20.8778 11.5397C20.4638 11.5397 20.1757 11.8381 20.0128 12.4344C19.8499 13.0313 19.7691 14.1212 19.7691 15.7052C19.7691 17.2795 19.8499 18.3597 20.0128 18.9462C20.1757 19.5328 20.4638 19.8258 20.8778 19.8258C21.2814 19.8258 21.5671 19.5328 21.7348 18.9462C21.9026 18.3597 21.9865 17.2795 21.9865 15.7052Z" fill="black" />
    <path d="M186.515 282.32C185.71 282.028 185.099 281.37 184.682 280.347C184.264 279.322 184.055 277.981 184.055 276.324C184.055 274.255 184.404 272.668 185.101 271.564C185.799 270.458 186.805 269.906 188.12 269.906C189.435 269.906 190.442 270.458 191.14 271.564C191.838 272.668 192.185 274.255 192.185 276.324C192.185 277.981 191.979 279.322 191.565 280.347C191.151 281.37 190.549 282.028 189.761 282.32C190.453 282.681 190.972 283.284 191.317 284.13C191.662 284.976 191.835 286.049 191.835 287.351C191.835 289.254 191.519 290.705 190.884 291.707C190.25 292.708 189.328 293.209 188.12 293.209C186.921 293.209 186.003 292.708 185.364 291.707C184.725 290.705 184.405 289.254 184.405 287.351C184.405 286.049 184.58 284.976 184.929 284.13C185.278 283.284 185.806 282.681 186.515 282.32ZM186.739 276.578C186.739 278.418 186.843 279.686 187.05 280.381C187.257 281.075 187.617 281.421 188.132 281.421C188.648 281.421 189.01 281.075 189.221 280.381C189.434 279.686 189.54 278.418 189.54 276.578C189.54 274.716 189.434 273.431 189.221 272.722C189.01 272.012 188.648 271.657 188.132 271.657C187.628 271.657 187.269 272.012 187.057 272.722C186.846 273.431 186.739 274.716 186.739 276.578ZM187.011 287.293C187.011 288.877 187.095 289.968 187.263 290.563C187.431 291.16 187.716 291.458 188.12 291.458C188.533 291.458 188.823 291.16 188.986 290.563C189.148 289.968 189.229 288.877 189.229 287.293C189.229 285.719 189.148 284.638 188.986 284.052C188.823 283.466 188.533 283.172 188.12 283.172C187.716 283.172 187.431 283.466 187.263 284.052C187.095 284.638 187.011 285.719 187.011 287.293Z" fill="black" />
    <path d="M59.9297 16.5625C55.9654 23.6974 42.4553 30.2338 42.4297 39.25C42.4176 43.5073 46.3461 46.9375 51.1797 46.9375C54.2589 46.9375 56.995 45.5556 58.5547 43.4375C57.9031 49.5677 56.1554 56.4188 49.7735 57.7187H59.9297H70.086C63.7041 56.4188 61.9563 49.5677 61.3047 43.4375C62.8644 45.5556 65.6005 46.9375 68.6797 46.9375C73.5133 46.9375 77.4418 43.5073 77.4297 39.25C77.4041 30.2338 63.8941 23.6974 59.9297 16.5625Z" fill="black" />
    <path d="M20.8853 36.9609C19.6936 39.1056 15.6363 41.0704 15.625 43.7805C15.625 45.0602 16.8022 46.0912 18.2551 46.0912C19.1807 46.0912 20.0031 45.6759 20.472 45.0392C20.2761 46.8818 19.7507 48.9412 17.8324 49.3319H20.8853H23.9381C22.0198 48.9412 21.4944 46.8818 21.2986 45.0392C21.7674 45.6759 22.5898 46.0912 23.5154 46.0912C24.9683 46.0912 26.1455 45.0602 26.1455 43.7805C26.1342 41.0704 22.0769 39.1056 20.8853 36.9609Z" fill="black" />
    <path d="M188.12 265.664C186.928 263.519 182.871 261.555 182.859 258.845C182.859 257.565 184.037 256.534 185.49 256.534C186.415 256.534 187.238 256.949 187.706 257.586C187.51 255.743 186.985 253.684 185.067 253.293H188.12H191.172C189.254 253.684 188.729 255.743 188.533 257.586C189.002 256.949 189.824 256.534 190.75 256.534C192.203 256.534 193.38 257.565 193.38 258.845C193.369 261.555 189.311 263.519 188.12 265.664Z" fill="black" />
    <path d="M147.898 286.406C143.934 279.271 130.424 272.735 130.398 263.719C130.386 259.461 134.315 256.031 139.148 256.031C142.228 256.031 144.964 257.413 146.523 259.531C145.872 253.401 144.124 246.55 137.742 245.25H147.898H158.055C151.673 246.55 149.925 253.401 149.273 259.531C150.833 257.413 153.569 256.031 156.648 256.031C161.482 256.031 165.411 259.461 165.398 263.719C165.373 272.735 151.863 279.271 147.898 286.406Z" fill="black" />
    <path d="M59.9297 286.406C55.9654 279.271 42.4553 272.735 42.4297 263.719C42.4176 259.461 46.3461 256.031 51.1797 256.031C54.2589 256.031 56.995 257.413 58.5547 259.531C57.9031 253.401 56.1554 246.55 49.7735 245.25H59.9297H70.086C63.7041 246.55 61.9563 253.401 61.3047 259.531C62.8644 257.413 65.6005 256.031 68.6797 256.031C73.5133 256.031 77.4418 259.461 77.4297 263.719C77.4041 272.735 63.8941 279.271 59.9297 286.406Z" fill="black" />
    <path d="M104.5 229.242C100.536 222.107 87.0256 215.571 87 206.555C86.9879 202.297 90.9165 198.867 95.75 198.867C98.8292 198.867 101.565 200.249 103.125 202.367C102.473 196.237 100.726 189.386 94.3438 188.086H104.5H114.656C108.274 189.386 106.527 196.237 105.875 202.367C107.435 200.249 110.171 198.867 113.25 198.867C118.084 198.867 122.012 202.297 122 206.555C121.974 215.571 108.464 222.107 104.5 229.242Z" fill="black" />
    <path d="M147.898 16.5625C143.934 23.6974 130.424 30.2338 130.398 39.25C130.386 43.5073 134.315 46.9375 139.148 46.9375C142.228 46.9375 144.964 45.5556 146.523 43.4375C145.872 49.5677 144.124 56.4188 137.742 57.7187H147.898H158.055C151.673 56.4188 149.925 49.5677 149.273 43.4375C150.833 45.5556 153.569 46.9375 156.648 46.9375C161.482 46.9375 165.411 43.5073 165.398 39.25C165.373 30.2338 151.863 23.6974 147.898 16.5625Z" fill="black" />
    <path d="M104.5 73.7422C100.536 80.8771 87.0256 87.4135 87 96.4297C86.9879 100.687 90.9165 104.117 95.75 104.117C98.8292 104.117 101.565 102.735 103.125 100.617C102.473 106.747 100.726 113.598 94.3438 114.898H104.5H114.656C108.274 113.598 106.527 106.747 105.875 100.617C107.435 102.735 110.171 104.117 113.25 104.117C118.084 104.117 122.012 100.687 122 96.4297C121.974 87.4135 108.464 80.8771 104.5 73.7422Z" fill="black" />
    <path d="M59.9297 130.922C55.9654 138.057 42.4553 144.593 42.4297 153.609C42.4176 157.867 46.3461 161.297 51.1797 161.297C54.2589 161.297 56.995 159.915 58.5547 157.797C57.9031 163.927 56.1554 170.778 49.7735 172.078H59.9297H70.086C63.7041 170.778 61.9563 163.927 61.3047 157.797C62.8644 159.915 65.6005 161.297 68.6797 161.297C73.5133 161.297 77.4418 157.867 77.4297 153.609C77.4041 144.593 63.8941 138.057 59.9297 130.922Z" fill="black" />
    <path d="M147.898 130.922C143.934 138.057 130.424 144.593 130.398 153.609C130.386 157.867 134.315 161.297 139.148 161.297C142.228 161.297 144.964 159.915 146.523 157.797C145.872 163.927 144.124 170.778 137.742 172.078H147.898H158.055C151.673 170.778 149.925 163.927 149.273 157.797C150.833 159.915 153.569 161.297 156.648 161.297C161.482 161.297 165.411 157.867 165.398 153.609C165.373 144.593 151.863 138.057 147.898 130.922Z" fill="black" />
  </g>
  <defs>
    <clipPath id="clip0_872_23">
      <rect width="208" height="303" fill="white" transform="translate(0.5)" />
    </clipPath>
  </defs>
</svg>
