<svg width="208" height="303" viewBox="0 0 208 303" fill="none" xmlns="http://www.w3.org/2000/svg">
  <g clip-path="url(#clip0_872_1311)">
    <path d="M207.687 294.111C207.68 296.379 206.778 298.551 205.176 300.156C203.574 301.76 201.402 302.666 199.135 302.676H8.83646C6.56921 302.663 4.39912 301.754 2.7994 300.147C1.19969 298.54 0.300123 296.366 0.296875 294.099V8.89407C0.296837 6.62463 1.19495 4.44739 2.79502 2.838C4.39509 1.2286 6.56706 0.317844 8.83646 0.304688H199.122C201.394 0.314564 203.569 1.22387 205.172 2.83362C206.775 4.44338 207.674 6.62248 207.674 8.89407V294.099L207.687 294.111Z" fill="white" stroke="black" stroke-width="0.622419" />
    <path d="M84.9375 151.493C89.2197 151.294 103.759 138.547 103.996 131.75C104.245 138.559 118.785 151.294 123.067 151.493C118.785 151.692 104.245 164.439 103.996 171.249C103.747 164.439 89.2197 151.705 84.9375 151.493Z" fill="#E61408" />
    <path d="M23.3022 10.0078V13.9291H17.9743V18.8835C18.2731 18.3731 18.5967 17.9748 18.9577 17.7134C19.3187 17.4519 19.7046 17.315 20.0905 17.315C21.3354 17.315 22.3064 18.0246 23.0159 19.4188C23.7255 20.813 24.074 22.7176 24.074 25.1201C24.074 27.5725 23.7255 29.4771 23.0035 30.8464C22.2939 32.2033 21.298 32.8755 20.0159 32.8755C19.4587 32.8754 18.9062 32.7741 18.3851 32.5767C17.7771 32.3386 17.2036 32.0204 16.6797 31.6307V26.7384H17.5013C17.5262 28.2198 17.7005 29.3153 18.0241 30.0373C18.3353 30.7717 18.7959 31.1327 19.4183 31.1327C20.0781 31.1327 20.5636 30.6348 20.8748 29.6389C21.1985 28.6679 21.3478 27.1492 21.3478 25.1326C21.3478 23.1409 21.1985 21.647 20.8872 20.6636C20.576 19.6802 20.103 19.1823 19.4806 19.1823C19.132 19.1823 18.8333 19.3441 18.5718 19.6553C18.3104 19.979 18.0615 20.4645 17.8249 21.1242H17.1527V10.0078H23.3022Z" fill="#E61408" />
    <path d="M40.3672 37.1416C44.6494 36.9424 59.1891 24.1953 59.4257 17.3984C59.6746 24.2077 74.2143 36.9424 78.4966 37.1416C74.2143 37.3407 59.6746 50.0879 59.4257 56.8971C59.1767 50.0879 44.6494 37.3532 40.3672 37.1416Z" fill="#E61408" />
    <path d="M128.344 37.1416C132.626 36.9424 147.166 24.1953 147.402 17.3984C147.651 24.2077 162.191 36.9424 166.473 37.1416C162.191 37.3407 147.651 50.0879 147.402 56.8971C147.153 50.0879 132.626 37.3532 128.344 37.1416Z" fill="#E61408" />
    <path d="M14.5859 43.0323C15.8706 42.9726 20.2325 39.1484 20.3035 37.1094C20.3782 39.1522 24.7401 42.9726 26.0248 43.0323C24.7401 43.0921 20.3782 46.9162 20.3035 48.959C20.2288 46.9162 15.8706 43.0958 14.5859 43.0323Z" fill="#E61408" />
    <path d="M184.682 292.984V289.063H190.01V284.109C189.711 284.619 189.388 285.017 189.027 285.279C188.666 285.54 188.28 285.677 187.894 285.677C186.649 285.677 185.678 284.968 184.968 283.573C184.259 282.179 183.91 280.275 183.91 277.872C183.91 275.42 184.259 273.515 184.981 272.146C185.69 270.789 186.686 270.117 187.969 270.117C188.526 270.117 189.078 270.218 189.599 270.415C190.207 270.654 190.781 270.972 191.305 271.362V276.254H190.483C190.458 274.772 190.284 273.677 189.96 272.955C189.649 272.22 189.188 271.859 188.566 271.859C187.906 271.859 187.421 272.357 187.11 273.353C186.786 274.324 186.637 275.843 186.637 277.86C186.637 279.851 186.786 281.345 187.097 282.329C187.408 283.312 187.881 283.81 188.504 283.81C188.852 283.81 189.151 283.648 189.413 283.337C189.674 283.013 189.923 282.528 190.159 281.868H190.832V292.984H184.682Z" fill="#E61408" />
    <path d="M167.617 265.851C163.335 266.05 148.795 278.797 148.559 285.594C148.31 278.784 133.77 266.05 129.488 265.851C133.77 265.651 148.31 252.904 148.559 246.095C148.808 252.904 163.335 265.639 167.617 265.851Z" fill="#E61408" />
    <path d="M79.6406 265.851C75.3584 266.05 60.8187 278.797 60.5822 285.594C60.3332 278.784 45.7935 266.05 41.5112 265.851C45.7935 265.651 60.3332 252.904 60.5822 246.095C60.8311 252.904 75.3584 265.639 79.6406 265.851Z" fill="#E61408" />
    <path d="M193.398 259.96C192.114 260.02 187.752 263.844 187.681 265.883C187.606 263.84 183.244 260.02 181.96 259.96C183.244 259.9 187.606 256.076 187.681 254.033C187.756 256.076 192.114 259.896 193.398 259.96Z" fill="#E61408" />
  </g>
  <defs>
    <clipPath id="clip0_872_1311">
      <rect width="208" height="303" fill="white" />
    </clipPath>
  </defs>
</svg>
