<svg width="208" height="303" viewBox="0 0 208 303" fill="none" xmlns="http://www.w3.org/2000/svg">
  <g clip-path="url(#clip0_872_1336)">
    <path d="M207.69 294.112C207.69 298.832 203.848 302.69 199.138 302.69H8.85392C4.15407 302.69 0.3125 298.832 0.3125 294.112V8.89073C0.3125 4.17728 4.15407 0.3125 8.85392 0.3125H199.138C203.848 0.3125 207.69 4.17728 207.69 8.89073V294.112Z" fill="white" stroke="black" stroke-width="0.622432" />
    <path d="M16.7412 10.8394C17.3345 10.4893 17.9095 10.2267 18.4675 10.0517C19.0255 9.87659 19.5665 9.78906 20.0892 9.78906C21.3061 9.78906 22.2386 10.2741 22.8865 11.243C23.5357 12.2125 23.8603 13.6015 23.8603 15.4098C23.8603 16.7659 23.6743 17.8661 23.3023 18.7098C22.9315 19.5535 22.3844 20.1212 21.6611 20.4124C22.5291 20.723 23.1771 21.3892 23.6062 22.4103C24.0341 23.4321 24.2493 24.8289 24.2493 26.6014C24.2493 28.6948 23.8773 30.3002 23.1345 31.4168C22.3917 32.5334 21.3171 33.0914 19.9117 33.0914C19.389 33.0914 18.8444 32.9905 18.2766 32.7899C17.7089 32.5893 17.1193 32.2878 16.5078 31.8854V26.9449H17.3248C17.3746 28.3751 17.5764 29.4656 17.929 30.2157C18.2815 30.9657 18.7702 31.3408 19.3951 31.3408C20.0698 31.3408 20.5937 30.9171 20.967 30.0698C21.339 29.2224 21.5262 28.0213 21.5262 26.4665C21.5262 24.8423 21.3341 23.5883 20.9512 22.7057C20.5682 21.8232 20.0236 21.3819 19.3173 21.3819H18.8808V19.5924H19.2273C19.8899 19.5924 20.3859 19.2502 20.7177 18.5651C21.0484 17.8807 21.215 16.8583 21.215 15.4979C21.215 14.219 21.0581 13.2392 20.7445 12.5596C20.4308 11.88 19.9798 11.5397 19.3939 11.5397C18.8577 11.5397 18.4322 11.8618 18.1186 12.5055C17.805 13.1498 17.619 14.0853 17.5582 15.3131H16.7412V10.8394Z" fill="#E61408" />
    <path d="M191.258 292.158C190.665 292.508 190.089 292.771 189.532 292.946C188.973 293.121 188.433 293.209 187.91 293.209C186.692 293.209 185.761 292.725 185.112 291.755C184.462 290.786 184.139 289.396 184.139 287.588C184.139 286.233 184.324 285.132 184.696 284.288C185.068 283.444 185.615 282.878 186.337 282.586C185.469 282.275 184.822 281.608 184.392 280.587C183.964 279.566 183.75 278.169 183.75 276.397C183.75 274.303 184.122 272.697 184.864 271.581C185.608 270.465 186.682 269.906 188.088 269.906C188.61 269.906 189.155 270.008 189.721 270.208C190.29 270.41 190.879 270.711 191.492 271.112V276.053H190.675C190.624 274.623 190.422 273.533 190.069 272.783C189.717 272.032 189.228 271.657 188.603 271.657C187.93 271.657 187.404 272.081 187.032 272.928C186.66 273.776 186.473 274.977 186.473 276.532C186.473 278.156 186.665 279.411 187.047 280.293C187.431 281.176 187.976 281.616 188.681 281.616H189.118V283.405H188.771C188.109 283.405 187.613 283.748 187.28 284.434C186.95 285.117 186.784 286.141 186.784 287.5C186.784 288.779 186.94 289.758 187.254 290.439C187.567 291.118 188.02 291.458 188.605 291.458C189.14 291.458 189.566 291.137 189.879 290.493C190.193 289.848 190.38 288.912 190.441 287.684H191.258V292.158Z" fill="#E61408" />
    <path d="M104 17.4219C103.967 18.537 103.306 22.7192 96.0937 29.6406C89.1528 36.302 85.9116 37.1017 84.9375 37.1719C85.9116 37.242 89.1528 38.0417 96.0937 44.7031C103.306 51.6246 103.967 55.8067 104 56.9219C104.033 55.8067 104.694 51.6246 111.906 44.7031C118.847 38.0417 122.088 37.242 123.062 37.1719C122.088 37.1017 118.847 36.302 111.906 29.6406C104.694 22.7192 104.033 18.537 104 17.4219Z" fill="#E61408" />
    <path d="M20.3802 37.2031C20.3705 37.5384 20.1715 38.7959 18.0029 40.8771C15.9159 42.8801 14.9413 43.1206 14.6484 43.1416C14.9413 43.1627 15.9159 43.4032 18.0029 45.4062C20.1715 47.4874 20.3705 48.7448 20.3802 49.0802C20.39 48.7449 20.589 47.4874 22.7575 45.4062C24.8446 43.4032 25.8191 43.1627 26.112 43.1416C25.8191 43.1206 24.8446 42.8801 22.7575 40.8771C20.589 38.7959 20.39 37.5384 20.3802 37.2031Z" fill="#E61408" />
    <path d="M187.622 253.539C187.613 253.874 187.414 255.132 185.245 257.213C183.158 259.216 182.184 259.456 181.891 259.478C182.184 259.499 183.158 259.739 185.245 261.742C187.414 263.823 187.613 265.081 187.622 265.416C187.632 265.081 187.831 263.823 190 261.742C192.087 259.739 193.061 259.499 193.354 259.478C193.061 259.456 192.087 259.216 190 257.213C187.831 255.132 187.632 253.874 187.622 253.539Z" fill="#E61408" />
    <path d="M104 131.75C103.967 132.865 103.306 137.047 96.0937 143.969C89.1528 150.63 85.9116 151.43 84.9375 151.5C85.9116 151.57 89.1528 152.37 96.0937 159.031C103.306 165.953 103.967 170.135 104 171.25C104.033 170.135 104.694 165.953 111.906 159.031C118.847 152.37 122.088 151.57 123.062 151.5C122.088 151.43 118.847 150.63 111.906 143.969C104.694 137.047 104.033 132.865 104 131.75Z" fill="#E61408" />
    <path d="M104 246.078C103.967 247.193 103.306 251.375 96.0937 258.297C89.1528 264.958 85.9116 265.758 84.9375 265.828C85.9116 265.898 89.1528 266.698 96.0937 273.359C103.306 280.281 103.967 284.463 104 285.578C104.033 284.463 104.694 280.281 111.906 273.359C118.847 266.698 122.088 265.898 123.062 265.828C122.088 265.758 118.847 264.958 111.906 258.297C104.694 251.375 104.033 247.193 104 246.078Z" fill="#E61408" />
  </g>
  <defs>
    <clipPath id="clip0_872_1336">
      <rect width="208" height="303" fill="white" />
    </clipPath>
  </defs>
</svg>
