<svg width="208" height="303" viewBox="0 0 208 303" fill="none" xmlns="http://www.w3.org/2000/svg">
  <g clip-path="url(#clip0_872_1229)">
    <path d="M207.69 294.112C207.69 298.832 203.848 302.69 199.138 302.69H8.85392C4.15407 302.69 0.3125 298.832 0.3125 294.112V8.89073C0.3125 4.17728 4.15407 0.3125 8.85392 0.3125H199.138C203.848 0.3125 207.69 4.17728 207.69 8.89073V294.112Z" fill="white" stroke="black" stroke-width="0.622432" />
    <path d="M12.21 32.6635V30.8351H14.0773V12.6623L11.9766 15.4305V13.1887L14.5015 9.78906H16.6059V30.8351H18.5121V32.6635H12.21Z" fill="#E61408" />
    <path d="M24.6425 33.0914C23.2992 33.0914 22.272 32.0915 21.5596 30.0904C20.8472 28.09 20.4922 25.2095 20.4922 21.4481C20.4922 17.6874 20.8472 14.8038 21.5596 12.7979C22.272 10.792 23.2992 9.78906 24.6425 9.78906C25.9762 9.78906 26.9986 10.792 27.7109 12.7979C28.4221 14.8038 28.7783 17.6874 28.7783 21.4481C28.7783 25.2095 28.4221 28.09 27.7109 30.0904C26.9986 32.0915 25.9762 33.0914 24.6425 33.0914ZM24.6425 31.3408C25.1799 31.3408 25.5494 30.7937 25.7513 29.6996C25.9531 28.6055 26.0552 25.855 26.0552 21.4475C26.0552 17.071 25.9531 14.326 25.7513 13.2112C25.5494 12.097 25.1799 11.5397 24.6425 11.5397C24.0955 11.5397 23.7211 12.0867 23.5193 13.1808C23.3162 14.275 23.2153 17.0309 23.2153 21.4475C23.2153 25.855 23.3162 28.6055 23.5193 29.6996C23.7211 30.7937 24.0955 31.3408 24.6425 31.3408Z" fill="#E61408" />
    <path d="M195.787 270.336V272.164H193.919V290.338L196.02 287.57V289.811L193.494 293.21H191.391V272.164H189.484V270.336H195.787Z" fill="#E61408" />
    <path d="M183.355 269.906C184.699 269.906 185.728 270.907 186.438 272.908C187.15 274.908 187.505 277.789 187.505 281.55C187.505 285.311 187.15 288.195 186.438 290.201C185.728 292.207 184.699 293.209 183.355 293.209C182.022 293.209 180.999 292.207 180.289 290.201C179.576 288.195 179.219 285.311 179.219 281.55C179.219 277.789 179.576 274.908 180.289 272.908C180.999 270.907 182.022 269.906 183.355 269.906ZM183.355 271.657C182.82 271.657 182.45 272.204 182.246 273.298C182.044 274.392 181.942 277.143 181.942 281.55C181.942 285.927 182.044 288.672 182.246 289.788C182.45 290.901 182.82 291.458 183.355 291.458C183.902 291.458 184.276 290.911 184.48 289.817C184.682 288.723 184.782 285.968 184.782 281.55C184.782 277.143 184.682 274.392 184.48 273.298C184.276 272.204 183.902 271.657 183.355 271.657Z" fill="#E61408" />
    <path d="M59.4297 17.3906C59.3972 18.5058 58.7354 22.6879 51.5234 29.6094C44.5825 36.2708 41.3413 37.0705 40.3672 37.1406C41.3413 37.2108 44.5825 38.0105 51.5234 44.6719C58.7354 51.5933 59.3972 55.7754 59.4297 56.8906C59.4622 55.7755 60.124 51.5933 67.3359 44.6719C74.2769 38.0105 77.5181 37.2108 78.4922 37.1406C77.5181 37.0705 74.2769 36.2708 67.3359 29.6094C60.124 22.6879 59.4622 18.5058 59.4297 17.3906Z" fill="#E61408" />
    <path d="M20.3802 37.4531C20.3705 37.7884 20.1715 39.0459 18.0029 41.1271C15.9159 43.1301 14.9413 43.3706 14.6484 43.3916C14.9413 43.4127 15.9159 43.6532 18.0029 45.6562C20.1715 47.7374 20.3705 48.9949 20.3802 49.3302C20.39 48.9949 20.589 47.7374 22.7575 45.6562C24.8446 43.6532 25.8191 43.4127 26.112 43.3916C25.8191 43.3706 24.8446 43.1301 22.7575 41.1271C20.589 39.0459 20.39 37.7884 20.3802 37.4531Z" fill="#E61408" />
    <path d="M187.622 253.539C187.613 253.874 187.414 255.132 185.245 257.213C183.158 259.216 182.184 259.456 181.891 259.478C182.184 259.499 183.158 259.739 185.245 261.742C187.414 263.823 187.613 265.081 187.622 265.416C187.632 265.081 187.831 263.823 190 261.742C192.087 259.739 193.061 259.499 193.354 259.478C193.061 259.456 192.087 259.216 190 257.213C187.831 255.132 187.632 253.874 187.622 253.539Z" fill="#E61408" />
    <path d="M147.398 17.3906C147.366 18.5058 146.704 22.6879 139.492 29.6094C132.551 36.2708 129.31 37.0705 128.336 37.1406C129.31 37.2108 132.551 38.0105 139.492 44.6719C146.704 51.5933 147.366 55.7754 147.398 56.8906C147.431 55.7755 148.093 51.5933 155.305 44.6719C162.246 38.0105 165.487 37.2108 166.461 37.1406C165.487 37.0705 162.246 36.2708 155.305 29.6094C148.093 22.6879 147.431 18.5058 147.398 17.3906Z" fill="#E61408" />
    <path d="M104 55.5078C103.967 56.623 103.306 60.8051 96.0937 67.7266C89.1528 74.388 85.9116 75.1877 84.9375 75.2578C85.9116 75.328 89.1528 76.1277 96.0937 82.7891C103.306 89.7105 103.967 93.8926 104 95.0078C104.033 93.8926 104.694 89.7105 111.906 82.7891C118.847 76.1277 122.088 75.3279 123.062 75.2578C122.088 75.1877 118.847 74.388 111.906 67.7266C104.694 60.8051 104.033 56.623 104 55.5078Z" fill="#E61408" />
    <path d="M59.4297 93.625C59.3972 94.7402 58.7354 98.9223 51.5234 105.844C44.5825 112.505 41.3413 113.305 40.3672 113.375C41.3413 113.445 44.5825 114.245 51.5234 120.906C58.7354 127.828 59.3972 132.01 59.4297 133.125C59.4622 132.01 60.124 127.828 67.3359 120.906C74.2769 114.245 77.5181 113.445 78.4922 113.375C77.5181 113.305 74.2769 112.505 67.3359 105.844C60.124 98.9223 59.4622 94.7402 59.4297 93.625Z" fill="#E61408" />
    <path d="M147.398 93.625C147.366 94.7402 146.704 98.9223 139.492 105.844C132.551 112.505 129.31 113.305 128.336 113.375C129.31 113.445 132.551 114.245 139.492 120.906C146.704 127.828 147.366 132.01 147.398 133.125C147.431 132.01 148.093 127.828 155.305 120.906C162.246 114.245 165.487 113.445 166.461 113.375C165.487 113.305 162.246 112.505 155.305 105.844C148.093 98.9223 147.431 94.7402 147.398 93.625Z" fill="#E61408" />
    <path d="M59.4297 169.852C59.3972 170.967 58.7354 175.149 51.5234 182.07C44.5825 188.732 41.3413 189.531 40.3672 189.602C41.3413 189.672 44.5825 190.471 51.5234 197.133C58.7354 204.054 59.3972 208.236 59.4297 209.352C59.4622 208.236 60.124 204.054 67.3359 197.133C74.2769 190.471 77.5181 189.672 78.4922 189.602C77.5181 189.531 74.2769 188.732 67.3359 182.07C60.124 175.149 59.4622 170.967 59.4297 169.852Z" fill="#E61408" />
    <path d="M145.906 169.852C145.874 170.967 145.212 175.149 138 182.07C131.059 188.732 127.818 189.531 126.844 189.602C127.818 189.672 131.059 190.471 138 197.133C145.212 204.054 145.874 208.236 145.906 209.352C145.939 208.236 146.601 204.054 153.812 197.133C160.753 190.471 163.995 189.672 164.969 189.602C163.995 189.531 160.753 188.732 153.812 182.07C146.601 175.149 145.939 170.967 145.906 169.852Z" fill="#E61408" />
    <path d="M104 207.961C103.967 209.076 103.306 213.258 96.0937 220.18C89.1528 226.841 85.9116 227.641 84.9375 227.711C85.9116 227.781 89.1528 228.581 96.0937 235.242C103.306 242.164 103.967 246.346 104 247.461C104.033 246.346 104.694 242.164 111.906 235.242C118.847 228.581 122.088 227.781 123.062 227.711C122.088 227.641 118.847 226.841 111.906 220.18C104.694 213.258 104.033 209.076 104 207.961Z" fill="#E61408" />
    <path d="M59.4297 246.078C59.3972 247.193 58.7354 251.375 51.5234 258.297C44.5825 264.958 41.3413 265.758 40.3672 265.828C41.3413 265.898 44.5825 266.698 51.5234 273.359C58.7354 280.281 59.3972 284.463 59.4297 285.578C59.4622 284.463 60.124 280.281 67.3359 273.359C74.2769 266.698 77.5181 265.898 78.4922 265.828C77.5181 265.758 74.2769 264.958 67.3359 258.297C60.124 251.375 59.4622 247.193 59.4297 246.078Z" fill="#E61408" />
    <path d="M147.398 246.078C147.366 247.193 146.704 251.375 139.492 258.297C132.551 264.958 129.31 265.758 128.336 265.828C129.31 265.898 132.551 266.698 139.492 273.359C146.704 280.281 147.366 284.463 147.398 285.578C147.431 284.463 148.093 280.281 155.305 273.359C162.246 266.698 165.487 265.898 166.461 265.828C165.487 265.758 162.246 264.958 155.305 258.297C148.093 251.375 147.431 247.193 147.398 246.078Z" fill="#E61408" />
  </g>
  <defs>
    <clipPath id="clip0_872_1229">
      <rect width="208" height="303" fill="white" />
    </clipPath>
  </defs>
</svg>
