<svg width="208" height="303" viewBox="0 0 208 303" fill="none" xmlns="http://www.w3.org/2000/svg">
  <g clip-path="url(#clip0_872_1249)">
    <path d="M207.69 294.112C207.69 298.832 203.848 302.69 199.138 302.69H8.85392C4.15407 302.69 0.3125 298.832 0.3125 294.112V8.89073C0.3125 4.17728 4.15407 0.3125 8.85392 0.3125H199.138C203.848 0.3125 207.69 4.17728 207.69 8.89073V294.112Z" fill="white" stroke="black" stroke-width="0.622432" />
    <path d="M21.8369 23.5227C21.5354 24.0539 21.2048 24.4527 20.8437 24.7183C20.4826 24.9839 20.0912 25.1165 19.6706 25.1165C18.6579 25.1165 17.858 24.4466 17.2708 23.1063C16.6836 21.7666 16.3906 19.917 16.3906 17.5579C16.3906 15.0688 16.7176 13.1517 17.3705 11.8065C18.0233 10.4619 18.9582 9.78906 20.1751 9.78906C21.5512 9.78906 22.5943 10.7172 23.3018 12.5724C24.0118 14.4281 24.3655 17.1458 24.3655 20.726C24.3655 24.8083 23.9729 27.8894 23.1875 29.9701C22.4034 32.0514 21.2364 33.0914 19.6876 33.0914C19.2852 33.0914 18.8524 33.0166 18.3904 32.8677C17.9273 32.7182 17.43 32.4951 16.8964 32.1966V28.2286H17.7133C17.8336 29.251 18.0488 30.0254 18.36 30.5518C18.6713 31.0782 19.0724 31.3408 19.5648 31.3408C20.3574 31.3408 20.9312 30.7269 21.2874 29.499C21.6436 28.2712 21.826 26.2793 21.8369 23.5227ZM20.3392 11.5397C19.8687 11.5397 19.5344 11.9797 19.335 12.8587C19.1356 13.7382 19.036 15.2633 19.036 17.4333C19.036 19.6039 19.1356 21.129 19.335 22.0079C19.5344 22.8875 19.8687 23.327 20.3392 23.327C20.8097 23.327 21.144 22.8875 21.3433 22.0079C21.5427 21.129 21.6424 19.6039 21.6424 17.4333C21.6424 15.2633 21.5427 13.7382 21.3433 12.8587C21.144 11.9797 20.8097 11.5397 20.3392 11.5397Z" fill="#E61408" />
    <path d="M186.161 279.476C186.463 278.944 186.794 278.545 187.156 278.28C187.516 278.015 187.907 277.881 188.328 277.881C189.342 277.881 190.142 278.552 190.728 279.892C191.316 281.232 191.608 283.082 191.608 285.44C191.608 287.93 191.282 289.846 190.628 291.192C189.976 292.536 189.04 293.209 187.825 293.209C186.448 293.209 185.405 292.281 184.695 290.426C183.988 288.569 183.633 285.852 183.633 282.272C183.633 278.19 184.027 275.109 184.81 273.028C185.595 270.947 186.762 269.906 188.311 269.906C188.714 269.906 189.145 269.982 189.609 270.13C190.071 270.281 190.57 270.503 191.102 270.801V274.769H190.285C190.166 273.748 189.95 272.972 189.638 272.447C189.327 271.919 188.926 271.657 188.435 271.657C187.642 271.657 187.068 272.272 186.711 273.5C186.356 274.728 186.171 276.719 186.161 279.476ZM187.659 291.458C188.131 291.458 188.464 291.018 188.663 290.14C188.863 289.26 188.962 287.736 188.962 285.564C188.962 283.394 188.863 281.869 188.663 280.991C188.464 280.111 188.131 279.671 187.659 279.671C187.19 279.671 186.854 280.111 186.655 280.991C186.456 281.869 186.356 283.394 186.356 285.564C186.356 287.736 186.456 289.26 186.655 290.14C186.854 291.018 187.19 291.458 187.659 291.458Z" fill="#E61408" />
    <path d="M59.4297 17.3906C59.3972 18.5058 58.7354 22.6879 51.5234 29.6094C44.5825 36.2708 41.3413 37.0705 40.3672 37.1406C41.3413 37.2108 44.5825 38.0105 51.5234 44.6719C58.7354 51.5933 59.3972 55.7754 59.4297 56.8906C59.4622 55.7755 60.124 51.5933 67.3359 44.6719C74.2769 38.0105 77.5181 37.2108 78.4922 37.1406C77.5181 37.0705 74.2769 36.2708 67.3359 29.6094C60.124 22.6879 59.4622 18.5058 59.4297 17.3906Z" fill="#E61408" />
    <path d="M20.3802 37.2031C20.3705 37.5384 20.1715 38.7959 18.0029 40.8771C15.9159 42.8801 14.9413 43.1206 14.6484 43.1416C14.9413 43.1627 15.9159 43.4032 18.0029 45.4062C20.1715 47.4874 20.3705 48.7448 20.3802 49.0802C20.39 48.7449 20.589 47.4874 22.7575 45.4062C24.8446 43.4032 25.8191 43.1627 26.112 43.1416C25.8191 43.1206 24.8446 42.8801 22.7575 40.8771C20.589 38.7959 20.39 37.5384 20.3802 37.2031Z" fill="#E61408" />
    <path d="M187.622 253.539C187.613 253.874 187.414 255.132 185.245 257.213C183.158 259.216 182.184 259.456 181.891 259.478C182.184 259.499 183.158 259.739 185.245 261.742C187.414 263.823 187.613 265.081 187.622 265.416C187.632 265.081 187.831 263.823 190 261.742C192.087 259.739 193.061 259.499 193.354 259.478C193.061 259.456 192.087 259.216 190 257.213C187.831 255.132 187.632 253.874 187.622 253.539Z" fill="#E61408" />
    <path d="M147.398 17.3906C147.366 18.5058 146.704 22.6879 139.492 29.6094C132.551 36.2708 129.31 37.0705 128.336 37.1406C129.31 37.2108 132.551 38.0105 139.492 44.6719C146.704 51.5933 147.366 55.7754 147.398 56.8906C147.431 55.7755 148.093 51.5933 155.305 44.6719C162.246 38.0105 165.487 37.2108 166.461 37.1406C165.487 37.0705 162.246 36.2708 155.305 29.6094C148.093 22.6879 147.431 18.5058 147.398 17.3906Z" fill="#E61408" />
    <path d="M59.4297 93.625C59.3972 94.7402 58.7354 98.9223 51.5234 105.844C44.5825 112.505 41.3413 113.305 40.3672 113.375C41.3413 113.445 44.5825 114.245 51.5234 120.906C58.7354 127.828 59.3972 132.01 59.4297 133.125C59.4622 132.01 60.124 127.828 67.3359 120.906C74.2769 114.245 77.5181 113.445 78.4922 113.375C77.5181 113.305 74.2769 112.505 67.3359 105.844C60.124 98.9223 59.4622 94.7402 59.4297 93.625Z" fill="#E61408" />
    <path d="M147.398 93.625C147.366 94.7402 146.704 98.9223 139.492 105.844C132.551 112.505 129.31 113.305 128.336 113.375C129.31 113.445 132.551 114.245 139.492 120.906C146.704 127.828 147.366 132.01 147.398 133.125C147.431 132.01 148.093 127.828 155.305 120.906C162.246 114.245 165.487 113.445 166.461 113.375C165.487 113.305 162.246 112.505 155.305 105.844C148.093 98.9223 147.431 94.7402 147.398 93.625Z" fill="#E61408" />
    <path d="M104 131.75C103.967 132.865 103.306 137.047 96.0937 143.969C89.1528 150.63 85.9116 151.43 84.9375 151.5C85.9116 151.57 89.1528 152.37 96.0937 159.031C103.306 165.953 103.967 170.135 104 171.25C104.033 170.135 104.694 165.953 111.906 159.031C118.847 152.37 122.088 151.57 123.062 151.5C122.088 151.43 118.847 150.63 111.906 143.969C104.694 137.047 104.033 132.865 104 131.75Z" fill="#E61408" />
    <path d="M59.4297 169.852C59.3972 170.967 58.7354 175.149 51.5234 182.07C44.5825 188.732 41.3413 189.531 40.3672 189.602C41.3413 189.672 44.5825 190.471 51.5234 197.133C58.7354 204.054 59.3972 208.236 59.4297 209.352C59.4622 208.236 60.124 204.054 67.3359 197.133C74.2769 190.471 77.5181 189.672 78.4922 189.602C77.5181 189.531 74.2769 188.732 67.3359 182.07C60.124 175.149 59.4622 170.967 59.4297 169.852Z" fill="#E61408" />
    <path d="M145.906 169.852C145.874 170.967 145.212 175.149 138 182.07C131.059 188.732 127.818 189.531 126.844 189.602C127.818 189.672 131.059 190.471 138 197.133C145.212 204.054 145.874 208.236 145.906 209.352C145.939 208.236 146.601 204.054 153.812 197.133C160.753 190.471 163.995 189.672 164.969 189.602C163.995 189.531 160.753 188.732 153.812 182.07C146.601 175.149 145.939 170.967 145.906 169.852Z" fill="#E61408" />
    <path d="M59.4297 246.078C59.3972 247.193 58.7354 251.375 51.5234 258.297C44.5825 264.958 41.3413 265.758 40.3672 265.828C41.3413 265.898 44.5825 266.698 51.5234 273.359C58.7354 280.281 59.3972 284.463 59.4297 285.578C59.4622 284.463 60.124 280.281 67.3359 273.359C74.2769 266.698 77.5181 265.898 78.4922 265.828C77.5181 265.758 74.2769 264.958 67.3359 258.297C60.124 251.375 59.4622 247.193 59.4297 246.078Z" fill="#E61408" />
    <path d="M147.398 246.078C147.366 247.193 146.704 251.375 139.492 258.297C132.551 264.958 129.31 265.758 128.336 265.828C129.31 265.898 132.551 266.698 139.492 273.359C146.704 280.281 147.366 284.463 147.398 285.578C147.431 284.463 148.093 280.281 155.305 273.359C162.246 266.698 165.487 265.898 166.461 265.828C165.487 265.758 162.246 264.958 155.305 258.297C148.093 251.375 147.431 247.193 147.398 246.078Z" fill="#E61408" />
  </g>
  <defs>
    <clipPath id="clip0_872_1249">
      <rect width="208" height="303" fill="white" />
    </clipPath>
  </defs>
</svg>
