<svg width="208" height="303" viewBox="0 0 208 303" fill="none" xmlns="http://www.w3.org/2000/svg">
  <g clip-path="url(#clip0_872_1282)">
    <path d="M207.69 294.112C207.69 298.832 203.848 302.69 199.138 302.69H8.85392C4.15407 302.69 0.3125 298.832 0.3125 294.112V8.89073C0.3125 4.17728 4.15407 0.3125 8.85392 0.3125H199.138C203.848 0.3125 207.69 4.17728 207.69 8.89073V294.112Z" fill="white" stroke="black" stroke-width="0.622432" />
    <path d="M24.0556 14.0378L19.9217 32.6652H18.554L22.5822 14.4591H17.6368V17.4934H16.7031V10.2188H24.0556V14.0378Z" fill="#E61408" />
    <path d="M183.945 288.964L188.079 270.336H189.448L185.419 288.542H190.364V285.508H191.298V292.782H183.945V288.964Z" fill="#E61408" />
    <path d="M59.4297 17.3906C59.3972 18.5058 58.7354 22.6879 51.5234 29.6094C44.5825 36.2708 41.3413 37.0705 40.3672 37.1406C41.3413 37.2108 44.5825 38.0105 51.5234 44.6719C58.7354 51.5933 59.3972 55.7754 59.4297 56.8906C59.4622 55.7755 60.124 51.5933 67.3359 44.6719C74.2769 38.0105 77.5181 37.2108 78.4922 37.1406C77.5181 37.0705 74.2769 36.2708 67.3359 29.6094C60.124 22.6879 59.4622 18.5058 59.4297 17.3906Z" fill="#E61408" />
    <path d="M20.3802 37.2031C20.3705 37.5384 20.1715 38.7959 18.0029 40.8771C15.9159 42.8801 14.9413 43.1206 14.6484 43.1416C14.9413 43.1627 15.9159 43.4032 18.0029 45.4062C20.1715 47.4874 20.3705 48.7448 20.3802 49.0802C20.39 48.7449 20.589 47.4874 22.7575 45.4062C24.8446 43.4032 25.8191 43.1627 26.112 43.1416C25.8191 43.1206 24.8446 42.8801 22.7575 40.8771C20.589 38.7959 20.39 37.5384 20.3802 37.2031Z" fill="#E61408" />
    <path d="M187.622 253.539C187.613 253.874 187.414 255.132 185.245 257.213C183.158 259.216 182.184 259.456 181.891 259.478C182.184 259.499 183.158 259.739 185.245 261.742C187.414 263.823 187.613 265.081 187.622 265.416C187.632 265.081 187.831 263.823 190 261.742C192.087 259.739 193.061 259.499 193.354 259.478C193.061 259.456 192.087 259.216 190 257.213C187.831 255.132 187.632 253.874 187.622 253.539Z" fill="#E61408" />
    <path d="M147.398 17.3906C147.366 18.5058 146.704 22.6879 139.492 29.6094C132.551 36.2708 129.31 37.0705 128.336 37.1406C129.31 37.2108 132.551 38.0105 139.492 44.6719C146.704 51.5933 147.366 55.7754 147.398 56.8906C147.431 55.7755 148.093 51.5933 155.305 44.6719C162.246 38.0105 165.487 37.2108 166.461 37.1406C165.487 37.0705 162.246 36.2708 155.305 29.6094C148.093 22.6879 147.431 18.5058 147.398 17.3906Z" fill="#E61408" />
    <path d="M104 74.5703C103.967 75.6855 103.306 79.8676 96.0937 86.7891C89.1528 93.4505 85.9116 94.2502 84.9375 94.3203C85.9116 94.3904 89.1528 95.1902 96.0937 101.852C103.306 108.773 103.967 112.955 104 114.07C104.033 112.955 104.694 108.773 111.906 101.852C118.847 95.1902 122.088 94.3904 123.062 94.3203C122.088 94.2502 118.847 93.4505 111.906 86.7891C104.694 79.8676 104.033 75.6855 104 74.5703Z" fill="#E61408" />
    <path d="M59.4297 131.75C59.3972 132.865 58.7354 137.047 51.5234 143.969C44.5825 150.63 41.3413 151.43 40.3672 151.5C41.3413 151.57 44.5825 152.37 51.5234 159.031C58.7354 165.953 59.3972 170.135 59.4297 171.25C59.4622 170.135 60.124 165.953 67.3359 159.031C74.2769 152.37 77.5181 151.57 78.4922 151.5C77.5181 151.43 74.2769 150.63 67.3359 143.969C60.124 137.047 59.4622 132.865 59.4297 131.75Z" fill="#E61408" />
    <path d="M147.398 131.75C147.366 132.865 146.704 137.047 139.492 143.969C132.551 150.63 129.31 151.43 128.336 151.5C129.31 151.57 132.551 152.37 139.492 159.031C146.704 165.953 147.366 170.135 147.398 171.25C147.431 170.135 148.093 165.953 155.305 159.031C162.246 152.37 165.487 151.57 166.461 151.5C165.487 151.43 162.246 150.63 155.305 143.969C148.093 137.047 147.431 132.865 147.398 131.75Z" fill="#E61408" />
    <path d="M59.4297 246.078C59.3972 247.193 58.7354 251.375 51.5234 258.297C44.5825 264.958 41.3413 265.758 40.3672 265.828C41.3413 265.898 44.5825 266.698 51.5234 273.359C58.7354 280.281 59.3972 284.463 59.4297 285.578C59.4622 284.463 60.124 280.281 67.3359 273.359C74.2769 266.698 77.5181 265.898 78.4922 265.828C77.5181 265.758 74.2769 264.958 67.3359 258.297C60.124 251.375 59.4622 247.193 59.4297 246.078Z" fill="#E61408" />
    <path d="M147.398 246.078C147.366 247.193 146.704 251.375 139.492 258.297C132.551 264.958 129.31 265.758 128.336 265.828C129.31 265.898 132.551 266.698 139.492 273.359C146.704 280.281 147.366 284.463 147.398 285.578C147.431 284.463 148.093 280.281 155.305 273.359C162.246 266.698 165.487 265.898 166.461 265.828C165.487 265.758 162.246 264.958 155.305 258.297C148.093 251.375 147.431 247.193 147.398 246.078Z" fill="#E61408" />
  </g>
  <defs>
    <clipPath id="clip0_872_1282">
      <rect width="208" height="303" fill="white" />
    </clipPath>
  </defs>
</svg>
