<svg width="208" height="303" viewBox="0 0 208 303" fill="none" xmlns="http://www.w3.org/2000/svg">
  <g clip-path="url(#clip0_872_2028)">
    <path d="M207.69 294.112C207.69 298.832 203.848 302.69 199.138 302.69H8.85392C4.15407 302.69 0.3125 298.832 0.3125 294.112V8.89073C0.3125 4.17728 4.15407 0.3125 8.85392 0.3125H199.138C203.848 0.3125 207.69 4.17728 207.69 8.89073V294.112Z" fill="white" stroke="black" stroke-width="0.622432" />
    <path d="M16.7412 10.8394C17.3345 10.4893 17.9095 10.2267 18.4675 10.0517C19.0255 9.87659 19.5665 9.78906 20.0892 9.78906C21.3061 9.78906 22.2386 10.2741 22.8865 11.243C23.5357 12.2125 23.8603 13.6015 23.8603 15.4098C23.8603 16.7659 23.6743 17.8661 23.3023 18.7098C22.9315 19.5535 22.3844 20.1212 21.6611 20.4124C22.5291 20.723 23.1771 21.3892 23.6062 22.4103C24.0341 23.4321 24.2493 24.8289 24.2493 26.6014C24.2493 28.6948 23.8773 30.3002 23.1345 31.4168C22.3917 32.5334 21.3171 33.0914 19.9117 33.0914C19.389 33.0914 18.8444 32.9905 18.2766 32.7899C17.7089 32.5893 17.1193 32.2878 16.5078 31.8854V26.9449H17.3248C17.3746 28.3751 17.5764 29.4656 17.929 30.2157C18.2815 30.9657 18.7702 31.3408 19.3951 31.3408C20.0698 31.3408 20.5937 30.9171 20.967 30.0698C21.339 29.2224 21.5262 28.0213 21.5262 26.4665C21.5262 24.8423 21.3341 23.5883 20.9512 22.7057C20.5682 21.8232 20.0236 21.3819 19.3173 21.3819H18.8808V19.5924H19.2273C19.8899 19.5924 20.3859 19.2502 20.7177 18.5651C21.0484 17.8807 21.215 16.8583 21.215 15.4979C21.215 14.219 21.0581 13.2392 20.7445 12.5596C20.4308 11.88 19.9798 11.5397 19.3939 11.5397C18.8577 11.5397 18.4322 11.8618 18.1186 12.5055C17.805 13.1498 17.619 14.0853 17.5582 15.3131H16.7412V10.8394Z" fill="black" />
    <path d="M191.258 292.158C190.665 292.508 190.089 292.771 189.532 292.946C188.973 293.121 188.433 293.209 187.91 293.209C186.692 293.209 185.761 292.725 185.112 291.755C184.462 290.786 184.139 289.396 184.139 287.588C184.139 286.233 184.324 285.132 184.696 284.288C185.068 283.444 185.615 282.878 186.337 282.586C185.469 282.275 184.822 281.608 184.392 280.587C183.964 279.566 183.75 278.169 183.75 276.397C183.75 274.303 184.122 272.697 184.864 271.581C185.608 270.465 186.682 269.906 188.088 269.906C188.61 269.906 189.155 270.008 189.721 270.208C190.29 270.41 190.879 270.711 191.492 271.112V276.053H190.675C190.624 274.623 190.422 273.533 190.069 272.783C189.717 272.032 189.228 271.657 188.603 271.657C187.93 271.657 187.404 272.081 187.032 272.928C186.66 273.776 186.473 274.977 186.473 276.532C186.473 278.156 186.665 279.411 187.047 280.293C187.431 281.176 187.976 281.616 188.681 281.616H189.118V283.405H188.771C188.109 283.405 187.613 283.748 187.28 284.434C186.95 285.117 186.784 286.141 186.784 287.5C186.784 288.779 186.94 289.758 187.254 290.439C187.567 291.118 188.02 291.458 188.605 291.458C189.14 291.458 189.566 291.137 189.879 290.493C190.193 289.848 190.38 288.912 190.441 287.684H191.258V292.158Z" fill="black" />
    <path d="M187.65 265.66C189.071 265.66 190.223 264.508 190.223 263.087C190.223 262.353 189.911 261.694 189.418 261.224C189.038 260.862 188.495 260.04 188.314 259.381C188.667 259.593 188.984 259.836 189.175 260.036C189.644 260.529 190.304 260.831 191.037 260.831C192.459 260.831 193.611 259.68 193.611 258.258C193.611 256.837 192.459 255.685 191.037 255.685C190.304 255.685 189.644 255.997 189.175 256.489C188.974 256.701 188.634 256.968 188.258 257.191C188.311 254.831 189.121 253.289 190.598 253.289H184.693C186.173 253.289 186.993 254.839 187.042 257.21C186.646 256.983 186.277 256.709 186.068 256.489C185.599 255.997 184.94 255.685 184.206 255.685C182.785 255.685 181.633 256.837 181.633 258.258C181.633 259.68 182.785 260.831 184.206 260.831C184.94 260.831 185.599 260.529 186.068 260.036C186.267 259.827 186.612 259.58 186.985 259.362C186.81 260.025 186.257 260.858 185.872 261.224C185.379 261.694 185.076 262.353 185.076 263.087C185.076 264.508 186.228 265.66 187.65 265.66Z" fill="black" />
    <path d="M20.3515 36.9609C18.93 36.9609 17.7781 38.1128 17.7781 39.5343C17.7781 40.268 18.09 40.9273 18.5829 41.3965C18.9638 41.7591 19.5064 42.5809 19.6871 43.24C19.3346 43.0276 19.017 42.7854 18.8262 42.585C18.357 42.0921 17.6977 41.7896 16.964 41.7896C15.5425 41.7896 14.3906 42.9414 14.3906 44.363C14.3906 45.7845 15.5425 46.9363 16.964 46.9363C17.6977 46.9363 18.357 46.6245 18.8262 46.1316C19.0274 45.9202 19.3676 45.6528 19.7433 45.4297C19.6906 47.7898 18.8806 49.3319 17.4038 49.3319H23.3086C21.8279 49.3319 21.0085 47.7818 20.9598 45.411C21.3559 45.6384 21.724 45.9121 21.933 46.1316C22.4022 46.6245 23.0615 46.9363 23.7952 46.9363C25.2167 46.9363 26.3686 45.7845 26.3686 44.363C26.3686 42.9414 25.2167 41.7896 23.7952 41.7896C23.0615 41.7896 22.4022 42.0921 21.933 42.585C21.7343 42.7937 21.3892 43.0412 21.0159 43.2587C21.191 42.5964 21.7448 41.7627 22.1295 41.3965C22.6224 40.9273 22.9249 40.268 22.9249 39.5343C22.9249 38.1128 21.7731 36.9609 20.3515 36.9609Z" fill="black" />
    <path d="M103.91 16.6016C99.1827 16.6016 95.352 20.4323 95.352 25.16C95.352 27.6001 96.3892 29.7927 98.0284 31.3532C99.2951 32.5591 101.1 35.2922 101.701 37.4842C100.528 36.7776 99.4722 35.9723 98.8376 35.3057C97.2771 33.6664 95.0845 32.6603 92.6444 32.6603C87.9167 32.6603 84.0859 36.4911 84.0859 41.2188C84.0859 45.9465 87.9167 49.7772 92.6444 49.7772C95.0845 49.7772 97.2771 48.74 98.8376 47.1007C99.5068 46.3978 100.638 45.5083 101.888 44.7666C101.712 52.6157 99.0185 57.7443 94.1071 57.7443H113.745C108.82 57.7443 106.095 52.5888 105.933 44.7044C107.251 45.4605 108.475 46.3707 109.17 47.1007C110.73 48.74 112.923 49.7772 115.363 49.7772C120.091 49.7772 123.922 45.9465 123.922 41.2188C123.922 36.4911 120.091 32.6603 115.363 32.6603C112.923 32.6603 110.73 33.6664 109.17 35.3057C108.509 35.9998 107.361 36.823 106.12 37.5464C106.702 35.3437 108.544 32.5711 109.824 31.3532C111.463 29.7927 112.469 27.6001 112.469 25.16C112.469 20.4323 108.638 16.6016 103.91 16.6016Z" fill="black" />
    <path d="M103.91 286.398C99.1827 286.398 95.352 282.568 95.352 277.84C95.352 275.4 96.3892 273.207 98.0284 271.647C99.2951 270.441 101.1 267.708 101.701 265.516C100.528 266.222 99.4722 267.028 98.8376 267.694C97.2771 269.334 95.0845 270.34 92.6444 270.34C87.9167 270.34 84.0859 266.509 84.0859 261.781C84.0859 257.054 87.9167 253.223 92.6444 253.223C95.0845 253.223 97.2771 254.26 98.8376 255.899C99.5068 256.602 100.638 257.492 101.888 258.233C101.712 250.384 99.0185 245.256 94.1071 245.256H113.745C108.82 245.256 106.095 250.411 105.933 258.296C107.251 257.54 108.475 256.629 109.17 255.899C110.73 254.26 112.923 253.223 115.363 253.223C120.091 253.223 123.922 257.054 123.922 261.781C123.922 266.509 120.091 270.34 115.363 270.34C112.923 270.34 110.73 269.334 109.17 267.694C108.509 267 107.361 266.177 106.12 265.454C106.702 267.656 108.544 270.429 109.824 271.647C111.463 273.207 112.469 275.4 112.469 277.84C112.469 282.568 108.638 286.398 103.91 286.398Z" fill="black" />
    <path d="M103.91 130.93C99.1827 130.93 95.352 134.76 95.352 139.488C95.352 141.928 96.3892 144.121 98.0284 145.681C99.2951 146.887 101.1 149.62 101.701 151.812C100.528 151.106 99.4722 150.3 98.8376 149.634C97.2771 147.995 95.0845 146.988 92.6444 146.988C87.9167 146.988 84.0859 150.819 84.0859 155.547C84.0859 160.275 87.9167 164.105 92.6444 164.105C95.0845 164.105 97.2771 163.068 98.8376 161.429C99.5068 160.726 100.638 159.836 101.888 159.095C101.712 166.944 99.0185 172.072 94.1071 172.072H113.745C108.82 172.072 106.095 166.917 105.933 159.033C107.251 159.789 108.475 160.699 109.17 161.429C110.73 163.068 112.923 164.105 115.363 164.105C120.091 164.105 123.922 160.275 123.922 155.547C123.922 150.819 120.091 146.988 115.363 146.988C112.923 146.988 110.73 147.995 109.17 149.634C108.509 150.328 107.361 151.151 106.12 151.875C106.702 149.672 108.544 146.899 109.824 145.681C111.463 144.121 112.469 141.928 112.469 139.488C112.469 134.76 108.638 130.93 103.91 130.93Z" fill="black" />
  </g>
  <defs>
    <clipPath id="clip0_872_2028">
      <rect width="208" height="303" fill="white" />
    </clipPath>
  </defs>
</svg>
