<svg width="208" height="303" viewBox="0 0 208 303" fill="none" xmlns="http://www.w3.org/2000/svg">
  <g clip-path="url(#clip0_872_1933)">
    <path d="M207.69 294.112C207.69 298.832 203.848 302.69 199.138 302.69H8.85392C4.15407 302.69 0.3125 298.832 0.3125 294.112V8.89073C0.3125 4.17728 4.15407 0.3125 8.85392 0.3125H199.138C203.848 0.3125 207.69 4.17728 207.69 8.89073V294.112Z" fill="white" stroke="black" stroke-width="0.622432" />
    <path d="M12.21 32.6635V30.8351H14.0773V12.6623L11.9766 15.4305V13.1887L14.5015 9.78906H16.6059V30.8351H18.5121V32.6635H12.21Z" fill="black" />
    <path d="M24.6425 33.0914C23.2992 33.0914 22.272 32.0915 21.5596 30.0904C20.8472 28.09 20.4922 25.2095 20.4922 21.4481C20.4922 17.6874 20.8472 14.8038 21.5596 12.7979C22.272 10.792 23.2992 9.78906 24.6425 9.78906C25.9762 9.78906 26.9986 10.792 27.7109 12.7979C28.4221 14.8038 28.7783 17.6874 28.7783 21.4481C28.7783 25.2095 28.4221 28.09 27.7109 30.0904C26.9986 32.0915 25.9762 33.0914 24.6425 33.0914ZM24.6425 31.3408C25.1799 31.3408 25.5494 30.7937 25.7513 29.6996C25.9531 28.6055 26.0552 25.855 26.0552 21.4475C26.0552 17.071 25.9531 14.326 25.7513 13.2112C25.5494 12.097 25.1799 11.5397 24.6425 11.5397C24.0955 11.5397 23.7211 12.0867 23.5193 13.1808C23.3162 14.275 23.2153 17.0309 23.2153 21.4475C23.2153 25.855 23.3162 28.6055 23.5193 29.6996C23.7211 30.7937 24.0955 31.3408 24.6425 31.3408Z" fill="black" />
    <path d="M195.787 270.336V272.164H193.919V290.338L196.02 287.57V289.811L193.494 293.21H191.391V272.164H189.484V270.336H195.787Z" fill="black" />
    <path d="M183.355 269.906C184.699 269.906 185.728 270.907 186.438 272.908C187.15 274.908 187.505 277.789 187.505 281.55C187.505 285.311 187.15 288.195 186.438 290.201C185.728 292.207 184.699 293.209 183.355 293.209C182.022 293.209 180.999 292.207 180.289 290.201C179.576 288.195 179.219 285.311 179.219 281.55C179.219 277.789 179.576 274.908 180.289 272.908C180.999 270.907 182.022 269.906 183.355 269.906ZM183.355 271.657C182.82 271.657 182.45 272.204 182.246 273.298C182.044 274.392 181.942 277.143 181.942 281.55C181.942 285.927 182.044 288.672 182.246 289.788C182.45 290.901 182.82 291.458 183.355 291.458C183.902 291.458 184.276 290.911 184.48 289.817C184.682 288.723 184.782 285.968 184.782 281.55C184.782 277.143 184.682 274.392 184.48 273.298C184.276 272.204 183.902 271.657 183.355 271.657Z" fill="black" />
    <path d="M187.65 265.66C189.071 265.66 190.223 264.508 190.223 263.087C190.223 262.353 189.911 261.694 189.418 261.224C189.038 260.862 188.495 260.04 188.314 259.381C188.667 259.593 188.984 259.836 189.175 260.036C189.644 260.529 190.304 260.831 191.037 260.831C192.459 260.831 193.611 259.68 193.611 258.258C193.611 256.837 192.459 255.685 191.037 255.685C190.304 255.685 189.644 255.997 189.175 256.489C188.974 256.701 188.634 256.968 188.258 257.191C188.311 254.831 189.121 253.289 190.598 253.289H184.693C186.173 253.289 186.993 254.839 187.042 257.21C186.646 256.983 186.277 256.709 186.068 256.489C185.599 255.997 184.94 255.685 184.206 255.685C182.785 255.685 181.633 256.837 181.633 258.258C181.633 259.68 182.785 260.831 184.206 260.831C184.94 260.831 185.599 260.529 186.068 260.036C186.267 259.827 186.612 259.58 186.985 259.362C186.81 260.025 186.257 260.858 185.872 261.224C185.379 261.694 185.076 262.353 185.076 263.087C185.076 264.508 186.228 265.66 187.65 265.66Z" fill="black" />
    <path d="M20.3515 36.9609C18.93 36.9609 17.7781 38.1128 17.7781 39.5343C17.7781 40.268 18.09 40.9273 18.5829 41.3965C18.9638 41.7591 19.5064 42.5809 19.6871 43.24C19.3346 43.0276 19.017 42.7854 18.8262 42.585C18.357 42.0921 17.6977 41.7896 16.964 41.7896C15.5425 41.7896 14.3906 42.9414 14.3906 44.363C14.3906 45.7845 15.5425 46.9363 16.964 46.9363C17.6977 46.9363 18.357 46.6245 18.8262 46.1316C19.0274 45.9202 19.3676 45.6528 19.7433 45.4297C19.6906 47.7898 18.8806 49.3319 17.4038 49.3319H23.3086C21.8279 49.3319 21.0085 47.7818 20.9598 45.411C21.3559 45.6384 21.724 45.9121 21.933 46.1316C22.4022 46.6245 23.0615 46.9363 23.7952 46.9363C25.2167 46.9363 26.3686 45.7845 26.3686 44.363C26.3686 42.9414 25.2167 41.7896 23.7952 41.7896C23.0615 41.7896 22.4022 42.0921 21.933 42.585C21.7343 42.7937 21.3892 43.0412 21.0159 43.2587C21.191 42.5964 21.7448 41.7627 22.1295 41.3965C22.6224 40.9273 22.9249 40.268 22.9249 39.5343C22.9249 38.1128 21.7731 36.9609 20.3515 36.9609Z" fill="black" />
    <path d="M59.3323 286.398C54.6046 286.398 50.7738 282.568 50.7738 277.84C50.7738 275.4 51.8111 273.207 53.4503 271.647C54.717 270.441 56.5216 267.708 57.1226 265.516C55.9502 266.222 54.8941 267.028 54.2595 267.694C52.699 269.334 50.5064 270.34 48.0663 270.34C43.3386 270.34 39.5078 266.509 39.5078 261.781C39.5078 257.054 43.3386 253.223 48.0663 253.223C50.5064 253.223 52.699 254.26 54.2595 255.899C54.9286 256.602 56.0599 257.492 57.3094 258.233C57.1341 250.384 54.4403 245.256 49.529 245.256H69.1667C64.2423 245.256 61.5173 250.411 61.3552 258.296C62.6725 257.54 63.8969 256.629 64.5918 255.899C66.1523 254.26 68.3449 253.223 70.785 253.223C75.5127 253.223 79.3435 257.054 79.3435 261.781C79.3435 266.509 75.5127 270.34 70.785 270.34C68.3449 270.34 66.1523 269.334 64.5918 267.694C63.931 267 62.7833 266.177 61.5419 265.454C62.1242 267.656 63.966 270.429 65.2454 271.647C66.8846 273.207 67.8907 275.4 67.8907 277.84C67.8907 282.568 64.06 286.398 59.3323 286.398Z" fill="black" />
    <path d="M59.3323 16.5703C54.6046 16.5703 50.7738 20.4011 50.7738 25.1288C50.7738 27.5689 51.8111 29.7615 53.4503 31.322C54.717 32.5278 56.5216 35.261 57.1226 37.4529C55.9502 36.7463 54.8941 35.9411 54.2595 35.2744C52.699 33.6352 50.5064 32.6291 48.0663 32.6291C43.3386 32.6291 39.5078 36.4598 39.5078 41.1875C39.5078 45.9152 43.3386 49.746 48.0663 49.746C50.5064 49.746 52.699 48.7087 54.2595 47.0695C54.9286 46.3665 56.0599 45.4771 57.3094 44.7354C57.1341 52.5844 54.4403 57.7131 49.529 57.7131H69.1667C64.2423 57.7131 61.5173 52.5576 61.3552 44.6731C62.6725 45.4292 63.8969 46.3395 64.5918 47.0695C66.1523 48.7087 68.3449 49.746 70.785 49.746C75.5127 49.746 79.3435 45.9152 79.3435 41.1875C79.3435 36.4598 75.5127 32.6291 70.785 32.6291C68.3449 32.6291 66.1523 33.6352 64.5918 35.2744C63.931 35.9686 62.7833 36.7918 61.5419 37.5152C62.1242 35.3125 63.966 32.5399 65.2454 31.322C66.8846 29.7615 67.8907 27.5689 67.8907 25.1288C67.8907 20.4011 64.06 16.5703 59.3323 16.5703Z" fill="black" />
    <path d="M59.3323 92.7969C54.6046 92.7969 50.7738 96.6276 50.7738 101.355C50.7738 103.795 51.8111 105.988 53.4503 107.549C54.717 108.754 56.5216 111.488 57.1226 113.679C55.9502 112.973 54.8941 112.168 54.2595 111.501C52.699 109.862 50.5064 108.856 48.0663 108.856C43.3386 108.856 39.5078 112.686 39.5078 117.414C39.5078 122.142 43.3386 125.973 48.0663 125.973C50.5064 125.973 52.699 124.935 54.2595 123.296C54.9286 122.593 56.0599 121.704 57.3094 120.962C57.1341 128.811 54.4403 133.94 49.529 133.94H69.1667C64.2423 133.94 61.5173 128.784 61.3552 120.9C62.6725 121.656 63.8969 122.566 64.5918 123.296C66.1523 124.935 68.3449 125.973 70.785 125.973C75.5127 125.973 79.3435 122.142 79.3435 117.414C79.3435 112.686 75.5127 108.856 70.785 108.856C68.3449 108.856 66.1523 109.862 64.5918 111.501C63.931 112.195 62.7833 113.018 61.5419 113.742C62.1242 111.539 63.966 108.766 65.2454 107.549C66.8846 105.988 67.8907 103.795 67.8907 101.355C67.8907 96.6276 64.06 92.7969 59.3323 92.7969Z" fill="black" />
    <path d="M147.309 16.5703C142.581 16.5703 138.75 20.4011 138.75 25.1288C138.75 27.5689 139.788 29.7615 141.427 31.322C142.694 32.5278 144.498 35.261 145.099 37.4529C143.927 36.7463 142.871 35.9411 142.236 35.2744C140.676 33.6352 138.483 32.6291 136.043 32.6291C131.315 32.6291 127.484 36.4598 127.484 41.1875C127.484 45.9152 131.315 49.746 136.043 49.746C138.483 49.746 140.676 48.7087 142.236 47.0695C142.905 46.3665 144.036 45.4771 145.286 44.7354C145.111 52.5844 142.417 57.7131 137.506 57.7131H157.143C152.219 57.7131 149.494 52.5576 149.332 44.6731C150.649 45.4292 151.873 46.3395 152.568 47.0695C154.129 48.7087 156.322 49.746 158.762 49.746C163.489 49.746 167.32 45.9152 167.32 41.1875C167.32 36.4598 163.489 32.6291 158.762 32.6291C156.322 32.6291 154.129 33.6352 152.568 35.2744C151.908 35.9685 150.76 36.7918 149.518 37.5152C150.101 35.3125 151.943 32.5399 153.222 31.322C154.861 29.7615 155.867 27.5689 155.867 25.1288C155.867 20.4011 152.037 16.5703 147.309 16.5703Z" fill="black" />
    <path d="M147.309 92.7969C142.581 92.7969 138.75 96.6276 138.75 101.355C138.75 103.795 139.788 105.988 141.427 107.549C142.694 108.754 144.498 111.488 145.099 113.679C143.927 112.973 142.871 112.168 142.236 111.501C140.676 109.862 138.483 108.856 136.043 108.856C131.315 108.856 127.484 112.686 127.484 117.414C127.484 122.142 131.315 125.973 136.043 125.973C138.483 125.973 140.676 124.935 142.236 123.296C142.905 122.593 144.036 121.704 145.286 120.962C145.111 128.811 142.417 133.94 137.506 133.94H157.143C152.219 133.94 149.494 128.784 149.332 120.9C150.649 121.656 151.873 122.566 152.568 123.296C154.129 124.935 156.321 125.973 158.762 125.973C163.489 125.973 167.32 122.142 167.32 117.414C167.32 112.686 163.489 108.856 158.762 108.856C156.322 108.856 154.129 109.862 152.568 111.501C151.908 112.195 150.76 113.018 149.518 113.742C150.101 111.539 151.943 108.766 153.222 107.549C154.861 105.988 155.867 103.795 155.867 101.355C155.867 96.6276 152.037 92.7969 147.309 92.7969Z" fill="black" />
    <path d="M147.309 286.406C142.581 286.406 138.75 282.576 138.75 277.848C138.75 275.408 139.788 273.215 141.427 271.655C142.694 270.449 144.498 267.716 145.099 265.524C143.927 266.23 142.871 267.035 142.236 267.702C140.676 269.341 138.483 270.347 136.043 270.347C131.315 270.347 127.484 266.517 127.484 261.789C127.484 257.061 131.315 253.231 136.043 253.231C138.483 253.231 140.676 254.268 142.236 255.907C142.905 256.61 144.036 257.5 145.286 258.241C145.111 250.392 142.417 245.263 137.506 245.263H157.143C152.219 245.263 149.494 250.419 149.332 258.303C150.649 257.547 151.873 256.637 152.568 255.907C154.129 254.268 156.322 253.231 158.762 253.231C163.489 253.231 167.32 257.061 167.32 261.789C167.32 266.517 163.489 270.347 158.762 270.347C156.322 270.347 154.129 269.341 152.568 267.702C151.908 267.008 150.76 266.185 149.518 265.461C150.101 267.664 151.943 270.437 153.222 271.655C154.861 273.215 155.867 275.408 155.867 277.848C155.867 282.576 152.037 286.406 147.309 286.406Z" fill="black" />
    <path d="M145.809 210.172C141.081 210.172 137.25 206.341 137.25 201.613C137.25 199.173 138.288 196.981 139.927 195.42C141.194 194.214 142.998 191.481 143.599 189.289C142.427 189.996 141.371 190.801 140.736 191.468C139.176 193.107 136.983 194.113 134.543 194.113C129.815 194.113 125.984 190.282 125.984 185.555C125.984 180.827 129.815 176.996 134.543 176.996C136.983 176.996 139.176 178.033 140.736 179.673C141.405 180.376 142.536 181.265 143.786 182.007C143.611 174.158 140.917 169.029 136.006 169.029H155.643C150.719 169.029 147.994 174.185 147.832 182.069C149.149 181.313 150.373 180.403 151.068 179.673C152.629 178.033 154.821 176.996 157.262 176.996C161.989 176.996 165.82 180.827 165.82 185.555C165.82 190.282 161.989 194.113 157.262 194.113C154.822 194.113 152.629 193.107 151.068 191.468C150.408 190.774 149.26 189.95 148.018 189.227C148.601 191.43 150.443 194.202 151.722 195.42C153.361 196.981 154.367 199.173 154.367 201.613C154.367 206.341 150.537 210.172 145.809 210.172Z" fill="black" />
    <path d="M59.3323 210.172C54.6046 210.172 50.7738 206.341 50.7738 201.613C50.7738 199.173 51.8111 196.981 53.4503 195.42C54.717 194.214 56.5216 191.481 57.1226 189.289C55.9502 189.996 54.8941 190.801 54.2595 191.468C52.699 193.107 50.5064 194.113 48.0663 194.113C43.3386 194.113 39.5078 190.282 39.5078 185.555C39.5078 180.827 43.3386 176.996 48.0663 176.996C50.5064 176.996 52.699 178.033 54.2595 179.673C54.9286 180.376 56.0599 181.265 57.3094 182.007C57.1341 174.158 54.4403 169.029 49.529 169.029H69.1667C64.2423 169.029 61.5173 174.185 61.3552 182.069C62.6725 181.313 63.8969 180.403 64.5918 179.673C66.1523 178.033 68.3449 176.996 70.785 176.996C75.5127 176.996 79.3435 180.827 79.3435 185.555C79.3435 190.282 75.5127 194.113 70.785 194.113C68.3449 194.113 66.1523 193.107 64.5918 191.468C63.931 190.774 62.7833 189.95 61.5419 189.227C62.1242 191.43 63.966 194.202 65.2454 195.42C66.8846 196.981 67.8907 199.173 67.8907 201.613C67.8907 206.341 64.06 210.172 59.3323 210.172Z" fill="black" />
    <path d="M103.91 54.6875C99.1827 54.6875 95.352 58.5182 95.352 63.2459C95.352 65.6861 96.3892 67.8787 98.0284 69.4391C99.2951 70.645 101.1 73.3782 101.701 75.5701C100.528 74.8635 99.4722 74.0583 98.8376 73.3916C97.2771 71.7524 95.0845 70.7463 92.6444 70.7463C87.9167 70.7463 84.0859 74.577 84.0859 79.3047C84.0859 84.0324 87.9167 87.8631 92.6444 87.8631C95.0845 87.8631 97.2771 86.8259 98.8376 85.1867C99.5068 84.4837 100.638 83.5943 101.888 82.8526C101.712 90.7016 99.0185 95.8303 94.1071 95.8303H113.745C108.82 95.8303 106.095 90.6748 105.933 82.7903C107.251 83.5464 108.475 84.4567 109.17 85.1867C110.73 86.8259 112.923 87.8631 115.363 87.8631C120.091 87.8631 123.922 84.0324 123.922 79.3047C123.922 74.577 120.091 70.7463 115.363 70.7463C112.923 70.7463 110.73 71.7524 109.17 73.3916C108.509 74.0857 107.361 74.9089 106.12 75.6323C106.702 73.4296 108.544 70.657 109.824 69.4391C111.463 67.8787 112.469 65.6861 112.469 63.2459C112.469 58.5182 108.638 54.6875 103.91 54.6875Z" fill="black" />
    <path d="M103.91 248.289C99.1827 248.289 95.352 244.458 95.352 239.731C95.352 237.29 96.3892 235.098 98.0284 233.537C99.2951 232.332 101.1 229.598 101.701 227.406C100.528 228.113 99.4722 228.918 98.8376 229.585C97.2771 231.224 95.0845 232.23 92.6444 232.23C87.9167 232.23 84.0859 228.4 84.0859 223.672C84.0859 218.944 87.9167 215.113 92.6444 215.113C95.0845 215.113 97.2771 216.151 98.8376 217.79C99.5068 218.493 100.638 219.382 101.888 220.124C101.712 212.275 99.0185 207.146 94.1071 207.146H113.745C108.82 207.146 106.095 212.302 105.933 220.186C107.251 219.43 108.475 218.52 109.17 217.79C110.73 216.151 112.923 215.113 115.363 215.113C120.091 215.113 123.922 218.944 123.922 223.672C123.922 228.4 120.091 232.23 115.363 232.23C112.923 232.23 110.73 231.224 109.17 229.585C108.509 228.891 107.361 228.068 106.12 227.344C106.702 229.547 108.544 232.32 109.824 233.537C111.463 235.098 112.469 237.29 112.469 239.731C112.469 244.458 108.638 248.289 103.91 248.289Z" fill="black" />
  </g>
  <defs>
    <clipPath id="clip0_872_1933">
      <rect width="208" height="303" fill="white" />
    </clipPath>
  </defs>
</svg>
