<svg width="22" height="20" viewBox="0 0 22 20" fill="none" xmlns="http://www.w3.org/2000/svg">
  <path d="M10.1907 0.25C10.9707 0.26 11.7107 0.73 12.0007 1.5L17.0007 13.45C17.0907 13.71 17.1407 14 17.1307 14.25C17.1194 14.6363 16.9974 15.0111 16.7794 15.3302C16.5614 15.6492 16.2565 15.899 15.9007 16.05L8.53074 19.1C8.27074 19.22 8.00074 19.25 7.74074 19.25C7.34989 19.2414 6.97015 19.1183 6.64846 18.8962C6.32677 18.674 6.07725 18.3625 5.93074 18L0.970741 6.05C0.550741 5.04 1.04074 3.87 2.06074 3.45L9.42074 0.4C9.67074 0.31 9.93074 0.25 10.1907 0.25ZM13.6707 0.25H15.1207C15.6512 0.25 16.1599 0.460714 16.535 0.835786C16.91 1.21086 17.1207 1.71957 17.1207 2.25V8.6L13.6707 0.25ZM19.1307 1.79L20.4707 2.36C20.7133 2.45877 20.934 2.60446 21.1202 2.78871C21.3063 2.97295 21.4543 3.19214 21.5556 3.43369C21.6568 3.67524 21.7094 3.93441 21.7103 4.19633C21.7112 4.45825 21.6604 4.71777 21.5607 4.96L19.1307 10.82V1.79ZM10.1907 2.22L2.80074 5.29L7.77074 17.3L15.1707 14.24L10.1907 2.22ZM7.65074 6.54L10.8807 8.95L10.4407 12.96L7.21074 10.54L7.65074 6.54Z" fill="white" />
</svg>
